M48
;GenerationSoftware,Autodesk,EAGLE,9.7.0*%
;CreationDate,2026-04-10T19:31:50Z*%
FMAT,2
ICI,OFF
METRIC,TZ,000.000
T8C0.200
T7C0.300
T6C0.350
T5C0.559
T4C0.650
T3C0.700
T2C1.067
T1C2.451
%
G90
M71
T1
X83801Y127122
X88881Y127122
X88881Y130297
X83801Y130297
T2
X86341Y130297
X85325Y125217
X87357Y125217
T3
X75553Y136713
X69773Y136713
T4
X68343Y140363
X76983Y140363
X76983Y136213
X68343Y136213
T5
X69292Y109580
X83930Y109540
X62026Y109500
X58330Y109500
X80234Y109540
X72988Y109580
T6
X86100Y114300
X87200Y119300
X64400Y140100
X86500Y120700
X80600Y126300
X76400Y109400
X86976Y126486
X70410Y126940
X67900Y128700
X66100Y124700
X67700Y122300
X64800Y125500
X59000Y133800
X63400Y131700
X77400Y129000
X76900Y130300
X60900Y133400
X63200Y134300
X51100Y136700
X60400Y132500
X65700Y135800
X65700Y137400
X57000Y110400
X68440Y125280
X67640Y124660
X80500Y124900
X62000Y130700
X67600Y125300
X65900Y128800
X86700Y133800
X61100Y128700
X60800Y129800
X61700Y139400
X67100Y120900
X81800Y123400
X69900Y118800
X78200Y130000
X89300Y124000
X53900Y136900
X90900Y129600
X81000Y130700
X64300Y132000
T7
X50900Y137700
X83700Y123700
X82156Y121744
X87600Y128400
X91000Y127800
X86200Y125700
X83700Y122600
X70000Y121000
X71300Y119000
X74700Y127900
X64400Y110800
X66700Y113500
X80500Y122700
X79600Y121500
X60600Y129200
X78000Y119300
X80800Y118100
X83400Y113500
X75600Y117400
X62100Y125700
X61000Y119400
X70900Y115100
X61200Y117500
X68000Y113372
X76000Y110900
X66800Y111100
X87500Y133800
X88300Y133800
X89000Y133800
X89700Y133800
X90500Y133800
X91300Y133800
X92100Y133800
X92900Y133800
X93600Y133800
X85900Y133800
X85100Y133800
X84300Y133800
X83500Y133800
X82700Y133800
X81900Y133800
X81200Y133800
X81200Y134500
X81200Y135200
X81200Y136000
X81200Y136700
X81200Y137500
X81200Y138100
X81200Y140200
X81200Y140900
X81200Y138800
X60200Y135500
X57200Y140800
X56300Y136300
X58753Y139453
X56500Y140200
X56100Y138600
X61500Y136600
X50600Y138600
X65700Y133800
X70650Y130250
X81200Y139500
X52500Y137600
X52500Y136660
X51900Y136700
X73060Y124790
X71860Y124790
X71860Y125990
X73060Y125990
X74260Y125990
X75460Y125990
X75460Y124790
X74260Y124790
X71860Y123590
X73060Y123590
X74260Y123590
X75460Y123590
X75460Y122390
X74260Y122390
X73060Y122390
X71860Y122390
T8
X72160Y126940
X70910Y123690
X76910Y125940
X73660Y121440
X52280Y112790
X70910Y124190
X70910Y122190
X73910Y120940
X76410Y120940
X70910Y123190
M30