G04 EAGLE Gerber RS-274X export*
G75*
%MOMM*%
%FSLAX34Y34*%
%LPD*%
%INTop Copper*%
%IPPOS*%
%AMOC8*
5,1,8,0,0,1.08239X$1,22.5*%
G01*
G04 Define Apertures*
%ADD10R,1.150000X1.800000*%
%ADD11R,0.430000X0.280000*%
%ADD12R,0.700000X0.600000*%
%ADD13R,0.280000X0.430000*%
%ADD14R,0.600000X0.700000*%
%ADD15R,0.350000X0.250000*%
%ADD16R,0.250000X0.350000*%
%ADD17R,1.200000X0.600000*%
%ADD18R,0.800000X1.150000*%
%ADD19C,0.200000*%
%ADD20C,0.250000*%
%ADD21R,0.350000X0.300000*%
%ADD22R,0.300000X0.350000*%
%ADD23C,0.216000*%
%ADD24R,0.700000X0.300000*%
%ADD25R,1.000000X0.300000*%
%ADD26C,0.783000*%
%ADD27R,0.300000X1.150000*%
%ADD28R,0.600000X1.150000*%
%ADD29C,1.170000*%
%ADD30R,0.500000X0.600000*%
%ADD31R,0.600000X0.500000*%
%ADD32R,5.300000X0.900000*%
%ADD33R,1.200000X2.200000*%
%ADD34R,0.800000X0.900000*%
%ADD35R,0.500000X1.050000*%
%ADD36R,1.168400X1.600200*%
%ADD37R,0.711200X1.092200*%
%ADD38R,1.066800X1.066800*%
%ADD39R,1.397000X1.092200*%
%ADD40C,2.000000*%
%ADD41R,4.850000X4.850000*%
%ADD42C,0.808000*%
%ADD43C,0.067500*%
%ADD44R,1.300000X0.900000*%
%ADD45R,0.950000X0.850000*%
%ADD46R,1.800000X1.000000*%
%ADD47C,0.150000*%
%ADD48C,0.452400*%
%ADD49C,0.502400*%
%ADD50C,0.300000*%
%ADD51C,0.352400*%
G36*
X871385Y1069067D02*
X871300Y1069062D01*
X848824Y1069062D01*
X848549Y1069113D01*
X848294Y1069277D01*
X848122Y1069527D01*
X848062Y1069824D01*
X848062Y1085444D01*
X846444Y1087062D01*
X846029Y1087062D01*
X845754Y1087113D01*
X845499Y1087277D01*
X845327Y1087527D01*
X845267Y1087824D01*
X845267Y1088585D01*
X845323Y1088871D01*
X845490Y1089124D01*
X845902Y1089536D01*
X845902Y1101256D01*
X845158Y1102000D01*
X841680Y1102000D01*
X841405Y1102051D01*
X841150Y1102215D01*
X840978Y1102465D01*
X840918Y1102762D01*
X840918Y1103824D01*
X840965Y1104088D01*
X841124Y1104346D01*
X841372Y1104521D01*
X841668Y1104586D01*
X841966Y1104531D01*
X842219Y1104363D01*
X842772Y1103810D01*
X844312Y1103810D01*
X844312Y1112390D01*
X842772Y1112390D01*
X842219Y1111837D01*
X841999Y1111684D01*
X841704Y1111614D01*
X841405Y1111665D01*
X841150Y1111828D01*
X840978Y1112079D01*
X840918Y1112376D01*
X840918Y1115434D01*
X840013Y1116339D01*
X839855Y1116569D01*
X839790Y1116866D01*
X839846Y1117164D01*
X840013Y1117417D01*
X840507Y1117910D01*
X840741Y1118069D01*
X841037Y1118133D01*
X841053Y1118130D01*
X847710Y1118130D01*
X847723Y1118133D01*
X848021Y1118077D01*
X848274Y1117910D01*
X848331Y1117852D01*
X848494Y1117611D01*
X848554Y1117314D01*
X848554Y1113052D01*
X848507Y1112788D01*
X848348Y1112530D01*
X848100Y1112355D01*
X847804Y1112290D01*
X847506Y1112345D01*
X847439Y1112390D01*
X845836Y1112390D01*
X845836Y1103810D01*
X847376Y1103810D01*
X848423Y1104857D01*
X848665Y1105020D01*
X848962Y1105080D01*
X852350Y1105080D01*
X853094Y1105824D01*
X853094Y1110376D01*
X852817Y1110653D01*
X852654Y1110894D01*
X852594Y1111192D01*
X852594Y1118060D01*
X852641Y1118324D01*
X852800Y1118582D01*
X853048Y1118757D01*
X853344Y1118822D01*
X853642Y1118767D01*
X853895Y1118599D01*
X854364Y1118130D01*
X856318Y1118130D01*
X856593Y1118079D01*
X856848Y1117915D01*
X857020Y1117665D01*
X857080Y1117368D01*
X857080Y1112542D01*
X857024Y1112256D01*
X856857Y1112003D01*
X856080Y1111226D01*
X856080Y1107674D01*
X856515Y1107239D01*
X856673Y1107008D01*
X856738Y1106712D01*
X856683Y1106414D01*
X856515Y1106161D01*
X856080Y1105726D01*
X856080Y1102174D01*
X856824Y1101430D01*
X858448Y1101430D01*
X858734Y1101374D01*
X858986Y1101207D01*
X860413Y1099780D01*
X868858Y1099780D01*
X869144Y1099724D01*
X869397Y1099557D01*
X869707Y1099247D01*
X869870Y1099006D01*
X869930Y1098708D01*
X869930Y1095773D01*
X869879Y1095498D01*
X869715Y1095243D01*
X869465Y1095071D01*
X869168Y1095011D01*
X868564Y1095011D01*
X868390Y1094973D01*
X868092Y1095028D01*
X867839Y1095196D01*
X866754Y1096281D01*
X860622Y1096281D01*
X860622Y1075199D01*
X866754Y1075199D01*
X867839Y1076284D01*
X868070Y1076442D01*
X868366Y1076507D01*
X868571Y1076469D01*
X881468Y1076469D01*
X882212Y1077213D01*
X882212Y1094267D01*
X881468Y1095011D01*
X874732Y1095011D01*
X874457Y1095062D01*
X874202Y1095226D01*
X874030Y1095476D01*
X873970Y1095773D01*
X873970Y1096848D01*
X874017Y1097112D01*
X874176Y1097370D01*
X874424Y1097545D01*
X874720Y1097610D01*
X875018Y1097555D01*
X875085Y1097510D01*
X876688Y1097510D01*
X876688Y1106090D01*
X875148Y1106090D01*
X874101Y1105043D01*
X873860Y1104880D01*
X873562Y1104820D01*
X870174Y1104820D01*
X869397Y1104043D01*
X869156Y1103880D01*
X868858Y1103820D01*
X862882Y1103820D01*
X862607Y1103871D01*
X862352Y1104035D01*
X862180Y1104285D01*
X862120Y1104582D01*
X862120Y1105726D01*
X861685Y1106161D01*
X861527Y1106392D01*
X861462Y1106688D01*
X861517Y1106986D01*
X861685Y1107239D01*
X862120Y1107674D01*
X862120Y1111226D01*
X861343Y1112003D01*
X861180Y1112244D01*
X861120Y1112542D01*
X861120Y1118518D01*
X861160Y1118724D01*
X861160Y1130426D01*
X860416Y1131170D01*
X854071Y1131170D01*
X854058Y1131167D01*
X853759Y1131223D01*
X853507Y1131390D01*
X847877Y1137020D01*
X837291Y1137020D01*
X837005Y1137076D01*
X836752Y1137243D01*
X835463Y1138532D01*
X832537Y1138532D01*
X830468Y1136463D01*
X830468Y1133537D01*
X832537Y1131468D01*
X835463Y1131468D01*
X836752Y1132757D01*
X836993Y1132920D01*
X837291Y1132980D01*
X845888Y1132980D01*
X846174Y1132924D01*
X846426Y1132757D01*
X846712Y1132471D01*
X846865Y1132251D01*
X846935Y1131956D01*
X846884Y1131657D01*
X846721Y1131402D01*
X846471Y1131230D01*
X846174Y1131170D01*
X841364Y1131170D01*
X840620Y1130426D01*
X840620Y1124052D01*
X840564Y1123766D01*
X840397Y1123514D01*
X838126Y1121243D01*
X837885Y1121080D01*
X837588Y1121020D01*
X819266Y1121020D01*
X818991Y1121071D01*
X818736Y1121235D01*
X818564Y1121485D01*
X818504Y1121782D01*
X818504Y1130091D01*
X818559Y1130377D01*
X818727Y1130630D01*
X831504Y1143407D01*
X831745Y1143570D01*
X832042Y1143630D01*
X846358Y1143630D01*
X846633Y1143579D01*
X846888Y1143415D01*
X847060Y1143165D01*
X847120Y1142868D01*
X847120Y1139874D01*
X847864Y1139130D01*
X853916Y1139130D01*
X854660Y1139874D01*
X854660Y1151426D01*
X853916Y1152170D01*
X847864Y1152170D01*
X847120Y1151426D01*
X847120Y1148432D01*
X847069Y1148157D01*
X846905Y1147902D01*
X846655Y1147730D01*
X846358Y1147670D01*
X830053Y1147670D01*
X828021Y1145638D01*
X827801Y1145485D01*
X827506Y1145415D01*
X827207Y1145466D01*
X826952Y1145629D01*
X826780Y1145879D01*
X826720Y1146176D01*
X826720Y1146626D01*
X826285Y1147061D01*
X826127Y1147292D01*
X826062Y1147588D01*
X826117Y1147886D01*
X826285Y1148139D01*
X826720Y1148574D01*
X826720Y1150198D01*
X826776Y1150484D01*
X826943Y1150736D01*
X832029Y1155822D01*
X832249Y1155975D01*
X832544Y1156045D01*
X832843Y1155994D01*
X833098Y1155831D01*
X833270Y1155581D01*
X833330Y1155284D01*
X833330Y1154774D01*
X834074Y1154030D01*
X843126Y1154030D01*
X843870Y1154774D01*
X843870Y1164826D01*
X843126Y1165570D01*
X834074Y1165570D01*
X833330Y1164826D01*
X833330Y1162582D01*
X833279Y1162307D01*
X833115Y1162052D01*
X832865Y1161880D01*
X832568Y1161820D01*
X832313Y1161820D01*
X823586Y1153093D01*
X823345Y1152930D01*
X823048Y1152870D01*
X821424Y1152870D01*
X820680Y1152126D01*
X820680Y1148574D01*
X821115Y1148139D01*
X821273Y1147908D01*
X821338Y1147612D01*
X821283Y1147314D01*
X821115Y1147061D01*
X820680Y1146626D01*
X820680Y1143074D01*
X821424Y1142330D01*
X822874Y1142330D01*
X823137Y1142283D01*
X823395Y1142124D01*
X823570Y1141876D01*
X823636Y1141580D01*
X823580Y1141282D01*
X823412Y1141029D01*
X819805Y1137421D01*
X819585Y1137268D01*
X819290Y1137198D01*
X818991Y1137249D01*
X818736Y1137413D01*
X818564Y1137663D01*
X818504Y1137960D01*
X818504Y1142061D01*
X818497Y1142206D01*
X818478Y1142331D01*
X818447Y1142453D01*
X818404Y1142571D01*
X818350Y1142685D01*
X818284Y1142793D01*
X818208Y1142894D01*
X818123Y1142987D01*
X818029Y1143071D01*
X817927Y1143145D01*
X817818Y1143209D01*
X817704Y1143261D01*
X817584Y1143303D01*
X817462Y1143332D01*
X817334Y1143349D01*
X817214Y1143354D01*
X807171Y1143354D01*
X807026Y1143347D01*
X806901Y1143328D01*
X806779Y1143297D01*
X806661Y1143254D01*
X806547Y1143200D01*
X806439Y1143134D01*
X806338Y1143058D01*
X806245Y1142973D01*
X806162Y1142879D01*
X806075Y1142760D01*
X804447Y1140266D01*
X804398Y1140199D01*
X802364Y1137721D01*
X802259Y1137616D01*
X799855Y1135643D01*
X799731Y1135560D01*
X796989Y1134095D01*
X796851Y1134038D01*
X794035Y1133184D01*
X793773Y1133152D01*
X790648Y1133318D01*
X790472Y1133318D01*
X787347Y1133152D01*
X787085Y1133184D01*
X784269Y1134038D01*
X784132Y1134095D01*
X781389Y1135560D01*
X781265Y1135643D01*
X778861Y1137616D01*
X778756Y1137721D01*
X776722Y1140199D01*
X776673Y1140266D01*
X775045Y1142760D01*
X774960Y1142878D01*
X774876Y1142972D01*
X774783Y1143058D01*
X774682Y1143133D01*
X774574Y1143199D01*
X774461Y1143253D01*
X774342Y1143296D01*
X774220Y1143328D01*
X774095Y1143346D01*
X773949Y1143354D01*
X763909Y1143354D01*
X763764Y1143347D01*
X763639Y1143328D01*
X763517Y1143297D01*
X763399Y1143254D01*
X763285Y1143200D01*
X763177Y1143134D01*
X763076Y1143058D01*
X762983Y1142973D01*
X762899Y1142879D01*
X762825Y1142777D01*
X762761Y1142668D01*
X762709Y1142554D01*
X762667Y1142434D01*
X762638Y1142312D01*
X762621Y1142184D01*
X762616Y1142064D01*
X762616Y1129342D01*
X762565Y1129067D01*
X762402Y1128812D01*
X762151Y1128640D01*
X761854Y1128580D01*
X758592Y1128580D01*
X758306Y1128636D01*
X758054Y1128803D01*
X754243Y1132614D01*
X754080Y1132855D01*
X754020Y1133152D01*
X754020Y1157837D01*
X739027Y1172830D01*
X732572Y1172830D01*
X732297Y1172881D01*
X732042Y1173045D01*
X731870Y1173295D01*
X731810Y1173592D01*
X731810Y1177086D01*
X731066Y1177830D01*
X722014Y1177830D01*
X721270Y1177086D01*
X721270Y1173592D01*
X721219Y1173317D01*
X721055Y1173062D01*
X720805Y1172890D01*
X720508Y1172830D01*
X704349Y1172830D01*
X704063Y1172886D01*
X703810Y1173053D01*
X696613Y1180250D01*
X692722Y1180250D01*
X692436Y1180306D01*
X692184Y1180473D01*
X685403Y1187254D01*
X685240Y1187495D01*
X685180Y1187792D01*
X685180Y1192916D01*
X684436Y1193660D01*
X677384Y1193660D01*
X676449Y1192725D01*
X676218Y1192567D01*
X675922Y1192502D01*
X675624Y1192557D01*
X675371Y1192725D01*
X674436Y1193660D01*
X667384Y1193660D01*
X666640Y1192916D01*
X666640Y1187792D01*
X666584Y1187506D01*
X666417Y1187254D01*
X657946Y1178783D01*
X657705Y1178620D01*
X657408Y1178560D01*
X651244Y1178560D01*
X650500Y1177816D01*
X650500Y1165264D01*
X651244Y1164520D01*
X660296Y1164520D01*
X661040Y1165264D01*
X661040Y1175848D01*
X661096Y1176134D01*
X661263Y1176386D01*
X668774Y1183897D01*
X669015Y1184060D01*
X669312Y1184120D01*
X672508Y1184120D01*
X672794Y1184064D01*
X673046Y1183897D01*
X685447Y1171496D01*
X685610Y1171255D01*
X685670Y1170958D01*
X685670Y1164184D01*
X686414Y1163440D01*
X695466Y1163440D01*
X696210Y1164184D01*
X696210Y1173100D01*
X696257Y1173364D01*
X696416Y1173622D01*
X696664Y1173797D01*
X696960Y1173862D01*
X697258Y1173807D01*
X697511Y1173639D01*
X702360Y1168790D01*
X720508Y1168790D01*
X720783Y1168739D01*
X721038Y1168575D01*
X721210Y1168325D01*
X721270Y1168028D01*
X721270Y1164534D01*
X722014Y1163790D01*
X731066Y1163790D01*
X731810Y1164534D01*
X731810Y1168028D01*
X731861Y1168303D01*
X732025Y1168558D01*
X732275Y1168730D01*
X732572Y1168790D01*
X737038Y1168790D01*
X737324Y1168734D01*
X737576Y1168567D01*
X749757Y1156386D01*
X749920Y1156145D01*
X749980Y1155848D01*
X749980Y1131163D01*
X756603Y1124540D01*
X761854Y1124540D01*
X762129Y1124489D01*
X762384Y1124325D01*
X762556Y1124075D01*
X762616Y1123778D01*
X762616Y1121779D01*
X762623Y1121634D01*
X762642Y1121509D01*
X762673Y1121387D01*
X762716Y1121269D01*
X762770Y1121155D01*
X762836Y1121047D01*
X762912Y1120946D01*
X762997Y1120853D01*
X763091Y1120769D01*
X763193Y1120695D01*
X763302Y1120631D01*
X763416Y1120579D01*
X763536Y1120537D01*
X763595Y1120524D01*
X763932Y1120346D01*
X764111Y1120101D01*
X764181Y1119806D01*
X764130Y1119507D01*
X763967Y1119252D01*
X763716Y1119080D01*
X763419Y1119020D01*
X754152Y1119020D01*
X753866Y1119076D01*
X753614Y1119243D01*
X747837Y1125020D01*
X715059Y1125020D01*
X714773Y1125076D01*
X714520Y1125243D01*
X711073Y1128690D01*
X696972Y1128690D01*
X696697Y1128741D01*
X696442Y1128905D01*
X696270Y1129155D01*
X696210Y1129452D01*
X696210Y1141736D01*
X695466Y1142480D01*
X686414Y1142480D01*
X685670Y1141736D01*
X685670Y1136500D01*
X685619Y1136225D01*
X685455Y1135970D01*
X685205Y1135798D01*
X684908Y1135738D01*
X683291Y1135738D01*
X683005Y1135794D01*
X682752Y1135961D01*
X681463Y1137250D01*
X678537Y1137250D01*
X676468Y1135181D01*
X676468Y1132255D01*
X678732Y1129991D01*
X678885Y1129771D01*
X678955Y1129476D01*
X678904Y1129177D01*
X678741Y1128922D01*
X678491Y1128750D01*
X678193Y1128690D01*
X663072Y1128690D01*
X662797Y1128741D01*
X662542Y1128905D01*
X662370Y1129155D01*
X662310Y1129452D01*
X662310Y1135778D01*
X649230Y1135778D01*
X649230Y1132466D01*
X649183Y1132203D01*
X649024Y1131945D01*
X648776Y1131770D01*
X648480Y1131704D01*
X648182Y1131760D01*
X647929Y1131928D01*
X635243Y1144614D01*
X635080Y1144855D01*
X635020Y1145152D01*
X635020Y1150848D01*
X635076Y1151134D01*
X635243Y1151386D01*
X645020Y1161163D01*
X645020Y1236223D01*
X645067Y1236486D01*
X645226Y1236744D01*
X645474Y1236920D01*
X645770Y1236985D01*
X646068Y1236929D01*
X646321Y1236762D01*
X668007Y1215076D01*
X668170Y1214834D01*
X668230Y1214537D01*
X668230Y1211894D01*
X668174Y1211608D01*
X668007Y1211355D01*
X667218Y1210567D01*
X667218Y1207433D01*
X669433Y1205218D01*
X672567Y1205218D01*
X674782Y1207433D01*
X674782Y1210567D01*
X673993Y1211355D01*
X673830Y1211597D01*
X673770Y1211894D01*
X673770Y1217147D01*
X671924Y1218993D01*
X667926Y1222992D01*
X667768Y1223222D01*
X667703Y1223518D01*
X667758Y1223816D01*
X667926Y1224069D01*
X670614Y1226757D01*
X670855Y1226920D01*
X671152Y1226980D01*
X673792Y1226980D01*
X674055Y1226933D01*
X674313Y1226774D01*
X674489Y1226526D01*
X674554Y1226230D01*
X674498Y1225932D01*
X674331Y1225679D01*
X673218Y1224567D01*
X673218Y1221433D01*
X675433Y1219218D01*
X678567Y1219218D01*
X679355Y1220007D01*
X679597Y1220170D01*
X679894Y1220230D01*
X686488Y1220230D01*
X686763Y1220179D01*
X687018Y1220015D01*
X687190Y1219765D01*
X687250Y1219468D01*
X687250Y1219034D01*
X687287Y1218997D01*
X687445Y1218766D01*
X687510Y1218470D01*
X687455Y1218172D01*
X687287Y1217919D01*
X685980Y1216612D01*
X685980Y1213322D01*
X692782Y1213322D01*
X692782Y1207020D01*
X696572Y1207020D01*
X696740Y1207188D01*
X696970Y1207346D01*
X697266Y1207411D01*
X697565Y1207355D01*
X697817Y1207188D01*
X698537Y1206468D01*
X700411Y1206468D01*
X700674Y1206421D01*
X700932Y1206262D01*
X701108Y1206014D01*
X701173Y1205718D01*
X701117Y1205420D01*
X700950Y1205167D01*
X700400Y1204617D01*
X700400Y1203582D01*
X700349Y1203307D01*
X700185Y1203052D01*
X699935Y1202880D01*
X699645Y1202822D01*
X699607Y1202783D01*
X699376Y1202625D01*
X699080Y1202560D01*
X698782Y1202615D01*
X698529Y1202783D01*
X697222Y1204090D01*
X693932Y1204090D01*
X693932Y1192010D01*
X695822Y1192010D01*
X696085Y1191963D01*
X696343Y1191804D01*
X696519Y1191556D01*
X696584Y1191260D01*
X696528Y1190962D01*
X696361Y1190709D01*
X695218Y1189567D01*
X695218Y1186433D01*
X697433Y1184218D01*
X700567Y1184218D01*
X702782Y1186433D01*
X702782Y1187549D01*
X702838Y1187835D01*
X703005Y1188088D01*
X705940Y1191023D01*
X705940Y1192518D01*
X705991Y1192793D01*
X706155Y1193048D01*
X706405Y1193220D01*
X706695Y1193279D01*
X707440Y1194024D01*
X707440Y1202076D01*
X707106Y1202411D01*
X706948Y1202641D01*
X706882Y1202937D01*
X706938Y1203235D01*
X707106Y1203488D01*
X711415Y1207797D01*
X711645Y1207955D01*
X711941Y1208020D01*
X712240Y1207965D01*
X712492Y1207797D01*
X713160Y1207130D01*
X715040Y1207130D01*
X716061Y1208151D01*
X716292Y1208309D01*
X716588Y1208374D01*
X716886Y1208318D01*
X717139Y1208151D01*
X718160Y1207130D01*
X719568Y1207130D01*
X719832Y1207083D01*
X720090Y1206924D01*
X720265Y1206676D01*
X720330Y1206380D01*
X720275Y1206082D01*
X720107Y1205829D01*
X719541Y1205263D01*
X719310Y1205105D01*
X719014Y1205040D01*
X718716Y1205095D01*
X718463Y1205263D01*
X718426Y1205300D01*
X711374Y1205300D01*
X710630Y1204556D01*
X710630Y1196504D01*
X711374Y1195760D01*
X712118Y1195760D01*
X712393Y1195709D01*
X712648Y1195545D01*
X712820Y1195295D01*
X712880Y1194998D01*
X712880Y1194294D01*
X712829Y1194019D01*
X712665Y1193764D01*
X712415Y1193592D01*
X712118Y1193532D01*
X711537Y1193532D01*
X709468Y1191463D01*
X709468Y1188537D01*
X711537Y1186468D01*
X714463Y1186468D01*
X716532Y1188537D01*
X716532Y1190360D01*
X716588Y1190646D01*
X716755Y1190898D01*
X716920Y1191063D01*
X716920Y1194998D01*
X716971Y1195273D01*
X717135Y1195528D01*
X717385Y1195700D01*
X717682Y1195760D01*
X718426Y1195760D01*
X718463Y1195797D01*
X718694Y1195955D01*
X718990Y1196020D01*
X719288Y1195965D01*
X719541Y1195797D01*
X720848Y1194490D01*
X724138Y1194490D01*
X724138Y1201292D01*
X730440Y1201292D01*
X730440Y1205082D01*
X729693Y1205829D01*
X729540Y1206049D01*
X729470Y1206344D01*
X729521Y1206643D01*
X729684Y1206898D01*
X729935Y1207070D01*
X729992Y1207081D01*
X731061Y1208151D01*
X731292Y1208309D01*
X731588Y1208374D01*
X731886Y1208318D01*
X732139Y1208151D01*
X733337Y1206953D01*
X733500Y1206711D01*
X733560Y1206414D01*
X733560Y1206182D01*
X733504Y1205896D01*
X733337Y1205643D01*
X732730Y1205036D01*
X732730Y1203923D01*
X732674Y1203637D01*
X732630Y1203570D01*
X732630Y1201153D01*
X732670Y1201094D01*
X732730Y1200797D01*
X732730Y1199684D01*
X733474Y1198940D01*
X736462Y1198940D01*
X736748Y1198884D01*
X737001Y1198717D01*
X738048Y1197670D01*
X739738Y1197670D01*
X739738Y1203122D01*
X744440Y1203122D01*
X744440Y1205562D01*
X744173Y1205829D01*
X744020Y1206049D01*
X743950Y1206344D01*
X744001Y1206643D01*
X744164Y1206898D01*
X744415Y1207070D01*
X744712Y1207130D01*
X745040Y1207130D01*
X746061Y1208151D01*
X746292Y1208309D01*
X746588Y1208374D01*
X746886Y1208318D01*
X747139Y1208151D01*
X748160Y1207130D01*
X750040Y1207130D01*
X751061Y1208151D01*
X751292Y1208309D01*
X751588Y1208374D01*
X751886Y1208318D01*
X752139Y1208151D01*
X753160Y1207130D01*
X755040Y1207130D01*
X755579Y1207669D01*
X755799Y1207822D01*
X756094Y1207892D01*
X756393Y1207841D01*
X756648Y1207677D01*
X756820Y1207427D01*
X756880Y1207130D01*
X756880Y1202357D01*
X756827Y1202076D01*
X756661Y1201822D01*
X756410Y1201653D01*
X753516Y1200454D01*
X750346Y1197284D01*
X748630Y1193142D01*
X748630Y1188658D01*
X750346Y1184516D01*
X753516Y1181346D01*
X757658Y1179630D01*
X762142Y1179630D01*
X766284Y1181346D01*
X769454Y1184516D01*
X771170Y1188658D01*
X771170Y1193142D01*
X769454Y1197284D01*
X766284Y1200454D01*
X762142Y1202170D01*
X761682Y1202170D01*
X761407Y1202221D01*
X761152Y1202385D01*
X760980Y1202635D01*
X760920Y1202932D01*
X760920Y1206452D01*
X760967Y1206716D01*
X761126Y1206974D01*
X761374Y1207149D01*
X761670Y1207214D01*
X761968Y1207159D01*
X762221Y1206991D01*
X762844Y1206368D01*
X762899Y1206368D01*
X763185Y1206312D01*
X763438Y1206145D01*
X764675Y1204907D01*
X764772Y1204789D01*
X765209Y1204129D01*
X765292Y1204112D01*
X765679Y1203904D01*
X765739Y1203844D01*
X766530Y1203844D01*
X766682Y1203829D01*
X779751Y1201164D01*
X780138Y1200956D01*
X780464Y1200630D01*
X781577Y1200630D01*
X781863Y1200574D01*
X781930Y1200530D01*
X782784Y1200530D01*
X782936Y1200515D01*
X783711Y1200357D01*
X783782Y1200404D01*
X784202Y1200530D01*
X797068Y1200530D01*
X797343Y1200479D01*
X797598Y1200315D01*
X797770Y1200065D01*
X797830Y1199768D01*
X797830Y1197758D01*
X799546Y1193616D01*
X802716Y1190446D01*
X806858Y1188730D01*
X811342Y1188730D01*
X815484Y1190446D01*
X818654Y1193616D01*
X820370Y1197758D01*
X820370Y1202242D01*
X818654Y1206384D01*
X815484Y1209554D01*
X811342Y1211270D01*
X806858Y1211270D01*
X802716Y1209554D01*
X799455Y1206293D01*
X799213Y1206130D01*
X798916Y1206070D01*
X788592Y1206070D01*
X788317Y1206121D01*
X788062Y1206285D01*
X787890Y1206535D01*
X787830Y1206832D01*
X787830Y1207638D01*
X778339Y1207638D01*
X778330Y1207605D01*
X778118Y1207387D01*
X777839Y1207269D01*
X777536Y1207270D01*
X768480Y1209116D01*
X768094Y1209324D01*
X767355Y1210062D01*
X767192Y1210304D01*
X767132Y1210601D01*
X767132Y1210656D01*
X765356Y1212432D01*
X762844Y1212432D01*
X761600Y1211188D01*
X761370Y1211030D01*
X761073Y1210965D01*
X760775Y1211020D01*
X760522Y1211188D01*
X760040Y1211670D01*
X758920Y1211670D01*
X758657Y1211717D01*
X758399Y1211876D01*
X758223Y1212124D01*
X758158Y1212420D01*
X758214Y1212718D01*
X758381Y1212971D01*
X758870Y1213460D01*
X758870Y1214348D01*
X758921Y1214623D01*
X759085Y1214878D01*
X759335Y1215050D01*
X759632Y1215110D01*
X761902Y1215110D01*
X763390Y1216598D01*
X763390Y1218868D01*
X763441Y1219143D01*
X763605Y1219398D01*
X763855Y1219570D01*
X764152Y1219630D01*
X765040Y1219630D01*
X765529Y1220119D01*
X765749Y1220272D01*
X766044Y1220342D01*
X766343Y1220291D01*
X766598Y1220127D01*
X766770Y1219877D01*
X766830Y1219580D01*
X766830Y1218460D01*
X767678Y1217612D01*
X767836Y1217382D01*
X767901Y1217085D01*
X767845Y1216787D01*
X767678Y1216534D01*
X767080Y1215937D01*
X767080Y1215906D01*
X767024Y1215620D01*
X766857Y1215367D01*
X766830Y1215340D01*
X766830Y1213460D01*
X768160Y1212130D01*
X770040Y1212130D01*
X771370Y1213460D01*
X771370Y1214198D01*
X771426Y1214484D01*
X771593Y1214736D01*
X775644Y1218787D01*
X775885Y1218950D01*
X776182Y1219010D01*
X793175Y1219010D01*
X793439Y1218963D01*
X793697Y1218804D01*
X793872Y1218556D01*
X793937Y1218260D01*
X793882Y1217962D01*
X793714Y1217709D01*
X792468Y1216463D01*
X792468Y1213537D01*
X794537Y1211468D01*
X797463Y1211468D01*
X799532Y1213537D01*
X799532Y1216463D01*
X798286Y1217709D01*
X798133Y1217929D01*
X798063Y1218224D01*
X798114Y1218523D01*
X798277Y1218778D01*
X798527Y1218950D01*
X798825Y1219010D01*
X799845Y1219010D01*
X800131Y1218954D01*
X800383Y1218787D01*
X801242Y1217928D01*
X817262Y1217928D01*
X817536Y1217877D01*
X817792Y1217713D01*
X817963Y1217463D01*
X818024Y1217166D01*
X818024Y1215981D01*
X820093Y1213912D01*
X823019Y1213912D01*
X825088Y1215981D01*
X825088Y1218907D01*
X823019Y1220976D01*
X821196Y1220976D01*
X820910Y1221032D01*
X820657Y1221199D01*
X819889Y1221968D01*
X810720Y1221968D01*
X810457Y1222015D01*
X810199Y1222174D01*
X810023Y1222422D01*
X809958Y1222718D01*
X810014Y1223016D01*
X810181Y1223269D01*
X810951Y1224039D01*
X811193Y1224202D01*
X811490Y1224262D01*
X833427Y1224262D01*
X833713Y1224206D01*
X833966Y1224039D01*
X835537Y1222468D01*
X838463Y1222468D01*
X840532Y1224537D01*
X840532Y1227463D01*
X838463Y1229532D01*
X835537Y1229532D01*
X834530Y1228525D01*
X834289Y1228362D01*
X833991Y1228302D01*
X809439Y1228302D01*
X809405Y1228279D01*
X809109Y1228214D01*
X808811Y1228269D01*
X808558Y1228437D01*
X806463Y1230532D01*
X804782Y1230532D01*
X804507Y1230583D01*
X804252Y1230747D01*
X804080Y1230997D01*
X804020Y1231294D01*
X804020Y1236213D01*
X799223Y1241010D01*
X799060Y1241252D01*
X799000Y1241549D01*
X799000Y1242416D01*
X798200Y1243216D01*
X798042Y1243447D01*
X797977Y1243743D01*
X798032Y1244041D01*
X798200Y1244294D01*
X798683Y1244777D01*
X798924Y1244940D01*
X799222Y1245000D01*
X803859Y1245000D01*
X804093Y1245158D01*
X804390Y1245218D01*
X806567Y1245218D01*
X808782Y1247433D01*
X808782Y1250567D01*
X806567Y1252782D01*
X803433Y1252782D01*
X801571Y1250919D01*
X801351Y1250766D01*
X801056Y1250697D01*
X800757Y1250747D01*
X800502Y1250911D01*
X800330Y1251161D01*
X800290Y1251358D01*
X790890Y1251358D01*
X790890Y1251322D01*
X790839Y1251047D01*
X790675Y1250792D01*
X790425Y1250620D01*
X790128Y1250560D01*
X785472Y1250560D01*
X785208Y1250607D01*
X784950Y1250766D01*
X784775Y1251014D01*
X784710Y1251310D01*
X784765Y1251608D01*
X784933Y1251861D01*
X785450Y1252378D01*
X785450Y1254818D01*
X782272Y1254818D01*
X782272Y1250890D01*
X782798Y1250890D01*
X783073Y1250839D01*
X783328Y1250675D01*
X783500Y1250425D01*
X783560Y1250128D01*
X783560Y1242652D01*
X783509Y1242377D01*
X783362Y1242148D01*
X783362Y1237962D01*
X786540Y1237962D01*
X786540Y1240402D01*
X786223Y1240719D01*
X786070Y1240939D01*
X786000Y1241234D01*
X786051Y1241533D01*
X786214Y1241788D01*
X786465Y1241960D01*
X786762Y1242020D01*
X790356Y1242020D01*
X790859Y1242523D01*
X791079Y1242676D01*
X791280Y1242724D01*
X791160Y1242898D01*
X791100Y1243196D01*
X791100Y1244238D01*
X791151Y1244513D01*
X791315Y1244768D01*
X791565Y1244940D01*
X791862Y1245000D01*
X791938Y1245000D01*
X792224Y1244944D01*
X792477Y1244777D01*
X792960Y1244294D01*
X793118Y1244063D01*
X793183Y1243767D01*
X793128Y1243469D01*
X792960Y1243216D01*
X792401Y1242657D01*
X792181Y1242504D01*
X791980Y1242456D01*
X792100Y1242282D01*
X792160Y1241984D01*
X792160Y1239428D01*
X792104Y1239142D01*
X791937Y1238889D01*
X790890Y1237842D01*
X790890Y1236152D01*
X796342Y1236152D01*
X796342Y1231450D01*
X798827Y1231450D01*
X798899Y1231500D01*
X799194Y1231570D01*
X799493Y1231519D01*
X799748Y1231356D01*
X799920Y1231106D01*
X799980Y1230808D01*
X799980Y1229163D01*
X800912Y1228231D01*
X801065Y1228011D01*
X801135Y1227716D01*
X801084Y1227417D01*
X800921Y1227162D01*
X800671Y1226990D01*
X800374Y1226930D01*
X787302Y1226930D01*
X787027Y1226981D01*
X786772Y1227145D01*
X786600Y1227395D01*
X786540Y1227692D01*
X786540Y1228318D01*
X781838Y1228318D01*
X781838Y1229842D01*
X786540Y1229842D01*
X786540Y1232282D01*
X786221Y1232601D01*
X786063Y1232832D01*
X785998Y1233128D01*
X786053Y1233426D01*
X786221Y1233679D01*
X786540Y1233998D01*
X786540Y1236438D01*
X781838Y1236438D01*
X781838Y1241894D01*
X781587Y1241941D01*
X781332Y1242105D01*
X781160Y1242355D01*
X781100Y1242652D01*
X781100Y1250128D01*
X781151Y1250403D01*
X781219Y1250509D01*
X780748Y1250509D01*
X780748Y1256342D01*
X785450Y1256342D01*
X785450Y1258782D01*
X785076Y1259156D01*
X784918Y1259387D01*
X784853Y1259683D01*
X784908Y1259981D01*
X785076Y1260234D01*
X785220Y1260378D01*
X785220Y1262818D01*
X780518Y1262818D01*
X780518Y1268270D01*
X778828Y1268270D01*
X777781Y1267223D01*
X777540Y1267060D01*
X777242Y1267000D01*
X775932Y1267000D01*
X775646Y1267056D01*
X775394Y1267223D01*
X774217Y1268400D01*
X772796Y1268400D01*
X772533Y1268447D01*
X772275Y1268606D01*
X772100Y1268854D01*
X772034Y1269150D01*
X772090Y1269448D01*
X772258Y1269701D01*
X776314Y1273757D01*
X776555Y1273920D01*
X776852Y1273980D01*
X782508Y1273980D01*
X782783Y1273929D01*
X783038Y1273765D01*
X783210Y1273515D01*
X783270Y1273218D01*
X783270Y1272204D01*
X784014Y1271460D01*
X786508Y1271460D01*
X786783Y1271409D01*
X787038Y1271245D01*
X787210Y1270995D01*
X787270Y1270698D01*
X787270Y1266963D01*
X788337Y1265896D01*
X788500Y1265655D01*
X788560Y1265358D01*
X788560Y1264048D01*
X788504Y1263762D01*
X788337Y1263509D01*
X787290Y1262462D01*
X787290Y1260772D01*
X796670Y1260772D01*
X796670Y1262462D01*
X795623Y1263509D01*
X795460Y1263751D01*
X795400Y1264048D01*
X795400Y1267036D01*
X794656Y1267780D01*
X792482Y1267780D01*
X792196Y1267836D01*
X791944Y1268003D01*
X791533Y1268414D01*
X791370Y1268655D01*
X791310Y1268952D01*
X791310Y1270698D01*
X791361Y1270973D01*
X791525Y1271228D01*
X791775Y1271400D01*
X792072Y1271460D01*
X794566Y1271460D01*
X795199Y1272093D01*
X795419Y1272246D01*
X795714Y1272316D01*
X796013Y1272265D01*
X796268Y1272102D01*
X796440Y1271852D01*
X796469Y1271709D01*
X797988Y1270190D01*
X803028Y1270190D01*
X803028Y1277742D01*
X811080Y1277742D01*
X811080Y1282282D01*
X810033Y1283329D01*
X809870Y1283571D01*
X809810Y1283868D01*
X809810Y1291328D01*
X809866Y1291614D01*
X810033Y1291866D01*
X815020Y1296853D01*
X815020Y1304837D01*
X814005Y1305852D01*
X813842Y1306093D01*
X813782Y1306390D01*
X813782Y1308567D01*
X811567Y1310782D01*
X808433Y1310782D01*
X806895Y1309243D01*
X806653Y1309080D01*
X806356Y1309020D01*
X805043Y1309020D01*
X802486Y1306463D01*
X802245Y1306300D01*
X801948Y1306240D01*
X800638Y1306240D01*
X800352Y1306296D01*
X800099Y1306463D01*
X799052Y1307510D01*
X797362Y1307510D01*
X797362Y1298130D01*
X799052Y1298130D01*
X800099Y1299177D01*
X800341Y1299340D01*
X800638Y1299400D01*
X803626Y1299400D01*
X804370Y1300144D01*
X804370Y1302318D01*
X804426Y1302604D01*
X804593Y1302856D01*
X806155Y1304419D01*
X806386Y1304577D01*
X806682Y1304642D01*
X806980Y1304586D01*
X807233Y1304419D01*
X808433Y1303218D01*
X810218Y1303218D01*
X810493Y1303167D01*
X810748Y1303003D01*
X810920Y1302753D01*
X810980Y1302456D01*
X810980Y1298842D01*
X810924Y1298556D01*
X810757Y1298304D01*
X806676Y1294223D01*
X806435Y1294060D01*
X806138Y1294000D01*
X798514Y1294000D01*
X797881Y1293367D01*
X797661Y1293214D01*
X797366Y1293144D01*
X797067Y1293195D01*
X796812Y1293358D01*
X796640Y1293608D01*
X796612Y1293751D01*
X795092Y1295270D01*
X790052Y1295270D01*
X790052Y1287718D01*
X788528Y1287718D01*
X788528Y1295270D01*
X785302Y1295270D01*
X785027Y1295321D01*
X784772Y1295485D01*
X784600Y1295735D01*
X784540Y1296032D01*
X784540Y1296876D01*
X784596Y1297162D01*
X784763Y1297415D01*
X785782Y1298433D01*
X785782Y1301567D01*
X783567Y1303782D01*
X780433Y1303782D01*
X778218Y1301567D01*
X778218Y1298433D01*
X780277Y1296375D01*
X780440Y1296133D01*
X780500Y1295836D01*
X780500Y1290152D01*
X780444Y1289866D01*
X780277Y1289614D01*
X779083Y1288420D01*
X778863Y1288267D01*
X778568Y1288197D01*
X778269Y1288248D01*
X778014Y1288411D01*
X777842Y1288661D01*
X777782Y1288958D01*
X777782Y1291567D01*
X775567Y1293782D01*
X772433Y1293782D01*
X770446Y1291794D01*
X770215Y1291636D01*
X769919Y1291571D01*
X769621Y1291627D01*
X769368Y1291794D01*
X768342Y1292820D01*
X765902Y1292820D01*
X765902Y1288118D01*
X764378Y1288118D01*
X764378Y1292820D01*
X761938Y1292820D01*
X760661Y1291543D01*
X760420Y1291380D01*
X760122Y1291320D01*
X757792Y1291320D01*
X757792Y1286618D01*
X756268Y1286618D01*
X756268Y1291320D01*
X754392Y1291320D01*
X754117Y1291371D01*
X754011Y1291439D01*
X754011Y1290898D01*
X748178Y1290898D01*
X748178Y1295600D01*
X745712Y1295600D01*
X745437Y1295651D01*
X745182Y1295815D01*
X745010Y1296065D01*
X744950Y1296362D01*
X744950Y1297792D01*
X743462Y1299280D01*
X739672Y1299280D01*
X739672Y1292978D01*
X738148Y1292978D01*
X738148Y1299280D01*
X734358Y1299280D01*
X732870Y1297792D01*
X732870Y1297562D01*
X732819Y1297287D01*
X732655Y1297032D01*
X732405Y1296860D01*
X732108Y1296800D01*
X724894Y1296800D01*
X724150Y1296056D01*
X724150Y1295812D01*
X724099Y1295537D01*
X723935Y1295282D01*
X723685Y1295110D01*
X723388Y1295050D01*
X723282Y1295050D01*
X723007Y1295101D01*
X722752Y1295265D01*
X722580Y1295515D01*
X722520Y1295812D01*
X722520Y1296056D01*
X721776Y1296800D01*
X714724Y1296800D01*
X713980Y1296056D01*
X713980Y1290004D01*
X714724Y1289260D01*
X721776Y1289260D01*
X722520Y1290004D01*
X722520Y1290248D01*
X722571Y1290523D01*
X722735Y1290778D01*
X722985Y1290950D01*
X723282Y1291010D01*
X723388Y1291010D01*
X723663Y1290959D01*
X723918Y1290795D01*
X724090Y1290545D01*
X724150Y1290248D01*
X724150Y1290004D01*
X724894Y1289260D01*
X731946Y1289260D01*
X732083Y1289397D01*
X732314Y1289555D01*
X732610Y1289620D01*
X732908Y1289565D01*
X733161Y1289397D01*
X734177Y1288381D01*
X734335Y1288150D01*
X734400Y1287854D01*
X734345Y1287556D01*
X734177Y1287303D01*
X734140Y1287266D01*
X734140Y1286522D01*
X734089Y1286247D01*
X733925Y1285992D01*
X733675Y1285820D01*
X733378Y1285760D01*
X733302Y1285760D01*
X733016Y1285816D01*
X732763Y1285983D01*
X731946Y1286800D01*
X724894Y1286800D01*
X724150Y1286056D01*
X724150Y1281932D01*
X724094Y1281646D01*
X723927Y1281394D01*
X723821Y1281288D01*
X723601Y1281135D01*
X723306Y1281065D01*
X723007Y1281116D01*
X722752Y1281279D01*
X722580Y1281529D01*
X722520Y1281826D01*
X722520Y1286056D01*
X721776Y1286800D01*
X714724Y1286800D01*
X713980Y1286056D01*
X713980Y1280004D01*
X714724Y1279260D01*
X715468Y1279260D01*
X715743Y1279209D01*
X715998Y1279045D01*
X716170Y1278795D01*
X716230Y1278498D01*
X716230Y1277202D01*
X716174Y1276916D01*
X716007Y1276664D01*
X711741Y1272398D01*
X711521Y1272245D01*
X711226Y1272175D01*
X710927Y1272226D01*
X710672Y1272389D01*
X710500Y1272639D01*
X710440Y1272936D01*
X710440Y1280458D01*
X710491Y1280733D01*
X710655Y1280988D01*
X710905Y1281160D01*
X711195Y1281219D01*
X711940Y1281964D01*
X711940Y1290016D01*
X711195Y1290761D01*
X710927Y1290811D01*
X710672Y1290975D01*
X710500Y1291225D01*
X710440Y1291522D01*
X710440Y1295537D01*
X710496Y1295823D01*
X710663Y1296076D01*
X719594Y1305007D01*
X719836Y1305170D01*
X720133Y1305230D01*
X762537Y1305230D01*
X762823Y1305174D01*
X763076Y1305007D01*
X764995Y1303088D01*
X765158Y1302846D01*
X765218Y1302549D01*
X765218Y1301433D01*
X767433Y1299218D01*
X770567Y1299218D01*
X772782Y1301433D01*
X772782Y1302549D01*
X772838Y1302835D01*
X773005Y1303088D01*
X786924Y1317007D01*
X787166Y1317170D01*
X787463Y1317230D01*
X814147Y1317230D01*
X815924Y1319007D01*
X816166Y1319170D01*
X816463Y1319230D01*
X844537Y1319230D01*
X844823Y1319174D01*
X845076Y1319007D01*
X847007Y1317076D01*
X847170Y1316834D01*
X847230Y1316537D01*
X847230Y1315721D01*
X847181Y1315452D01*
X847020Y1315195D01*
X846771Y1315022D01*
X846474Y1314959D01*
X846176Y1315017D01*
X840846Y1317225D01*
X835175Y1317225D01*
X829935Y1315055D01*
X825925Y1311045D01*
X823755Y1305806D01*
X823755Y1300135D01*
X825925Y1294895D01*
X829935Y1290885D01*
X835175Y1288715D01*
X840846Y1288715D01*
X846085Y1290885D01*
X849694Y1294495D01*
X849914Y1294648D01*
X850209Y1294717D01*
X850508Y1294667D01*
X850763Y1294503D01*
X850935Y1294253D01*
X850995Y1293956D01*
X850995Y1292418D01*
X851652Y1291761D01*
X851815Y1291519D01*
X851875Y1291222D01*
X851875Y1288122D01*
X855108Y1284889D01*
X855264Y1284664D01*
X855331Y1284368D01*
X855278Y1284070D01*
X855113Y1283816D01*
X854861Y1283646D01*
X853404Y1283042D01*
X851588Y1281226D01*
X851021Y1279859D01*
X850873Y1279629D01*
X850625Y1279453D01*
X850329Y1279388D01*
X850031Y1279444D01*
X849778Y1279611D01*
X846085Y1283305D01*
X840846Y1285475D01*
X835175Y1285475D01*
X829935Y1283305D01*
X825925Y1279295D01*
X823755Y1274056D01*
X823755Y1268385D01*
X825925Y1263145D01*
X829935Y1259135D01*
X835175Y1256965D01*
X840846Y1256965D01*
X846085Y1259135D01*
X849775Y1262826D01*
X850000Y1262981D01*
X850296Y1263049D01*
X850595Y1262996D01*
X850849Y1262830D01*
X851018Y1262579D01*
X851588Y1261204D01*
X852042Y1260749D01*
X852197Y1260524D01*
X852265Y1260229D01*
X852212Y1259930D01*
X852046Y1259676D01*
X851795Y1259507D01*
X849095Y1258388D01*
X847032Y1256325D01*
X845915Y1253629D01*
X845915Y1250711D01*
X847032Y1248015D01*
X849095Y1245952D01*
X851791Y1244835D01*
X854709Y1244835D01*
X857405Y1245952D01*
X859468Y1248015D01*
X860585Y1250711D01*
X860585Y1252706D01*
X860636Y1252981D01*
X860800Y1253236D01*
X861050Y1253408D01*
X861347Y1253468D01*
X863463Y1253468D01*
X865372Y1255377D01*
X865581Y1255524D01*
X865532Y1255763D01*
X865532Y1257360D01*
X865588Y1257646D01*
X865755Y1257898D01*
X865845Y1257988D01*
X865845Y1259603D01*
X865892Y1259866D01*
X866051Y1260124D01*
X866299Y1260300D01*
X866595Y1260365D01*
X866893Y1260309D01*
X867146Y1260142D01*
X867612Y1259675D01*
X868862Y1259675D01*
X869125Y1259628D01*
X869383Y1259469D01*
X869559Y1259221D01*
X869624Y1258925D01*
X869568Y1258627D01*
X869401Y1258374D01*
X867352Y1256325D01*
X866998Y1255471D01*
X866858Y1255250D01*
X866624Y1255078D01*
X866673Y1254845D01*
X866615Y1254547D01*
X866235Y1253629D01*
X866235Y1250711D01*
X867352Y1248015D01*
X869415Y1245952D01*
X872111Y1244835D01*
X875029Y1244835D01*
X877725Y1245952D01*
X879788Y1248015D01*
X880905Y1250711D01*
X880905Y1253433D01*
X880956Y1253708D01*
X881120Y1253963D01*
X881370Y1254135D01*
X881667Y1254195D01*
X901071Y1254195D01*
X901357Y1254139D01*
X901609Y1253972D01*
X907716Y1247866D01*
X907876Y1247630D01*
X907939Y1247333D01*
X907881Y1247035D01*
X906268Y1243142D01*
X906268Y1238658D01*
X907984Y1234516D01*
X911154Y1231346D01*
X915296Y1229630D01*
X919780Y1229630D01*
X923922Y1231346D01*
X927092Y1234516D01*
X928808Y1238658D01*
X928808Y1243142D01*
X927092Y1247284D01*
X923922Y1250454D01*
X919780Y1252170D01*
X915296Y1252170D01*
X911403Y1250557D01*
X911123Y1250499D01*
X910825Y1250555D01*
X910572Y1250722D01*
X903060Y1258235D01*
X897824Y1258235D01*
X897561Y1258282D01*
X897303Y1258441D01*
X897127Y1258689D01*
X897062Y1258985D01*
X897118Y1259283D01*
X897285Y1259536D01*
X900895Y1263145D01*
X903065Y1268385D01*
X903065Y1274056D01*
X900895Y1279295D01*
X896885Y1283305D01*
X894050Y1284479D01*
X893829Y1284619D01*
X893650Y1284864D01*
X893580Y1285159D01*
X893631Y1285458D01*
X893794Y1285713D01*
X894044Y1285885D01*
X894342Y1285945D01*
X901802Y1285945D01*
X907852Y1291995D01*
X908093Y1292158D01*
X908390Y1292218D01*
X910567Y1292218D01*
X912782Y1294433D01*
X912782Y1296610D01*
X912838Y1296896D01*
X913005Y1297148D01*
X916639Y1300783D01*
X916870Y1300941D01*
X917166Y1301006D01*
X917464Y1300950D01*
X917717Y1300783D01*
X918154Y1300346D01*
X922296Y1298630D01*
X926780Y1298630D01*
X930922Y1300346D01*
X934092Y1303516D01*
X935808Y1307658D01*
X935808Y1312142D01*
X934092Y1316284D01*
X930922Y1319454D01*
X926780Y1321170D01*
X922296Y1321170D01*
X918154Y1319454D01*
X914984Y1316284D01*
X913268Y1312142D01*
X913268Y1307658D01*
X914401Y1304923D01*
X914459Y1304644D01*
X914403Y1304345D01*
X914236Y1304093D01*
X910148Y1300005D01*
X909907Y1299842D01*
X909610Y1299782D01*
X907433Y1299782D01*
X905218Y1297567D01*
X905218Y1295390D01*
X905162Y1295104D01*
X904995Y1294852D01*
X900351Y1290208D01*
X900110Y1290045D01*
X899813Y1289985D01*
X897824Y1289985D01*
X897561Y1290032D01*
X897303Y1290191D01*
X897127Y1290439D01*
X897062Y1290735D01*
X897118Y1291033D01*
X897285Y1291286D01*
X900895Y1294895D01*
X903065Y1300135D01*
X903065Y1305806D01*
X900895Y1311045D01*
X896885Y1315055D01*
X891646Y1317225D01*
X885975Y1317225D01*
X880735Y1315055D01*
X876725Y1311045D01*
X874555Y1305806D01*
X874555Y1300135D01*
X876725Y1294895D01*
X878030Y1293591D01*
X878183Y1293371D01*
X878252Y1293076D01*
X878202Y1292777D01*
X878038Y1292522D01*
X877788Y1292350D01*
X877491Y1292290D01*
X875388Y1292290D01*
X875102Y1292346D01*
X874850Y1292513D01*
X871908Y1295455D01*
X868108Y1295455D01*
X867845Y1295502D01*
X867587Y1295661D01*
X867411Y1295909D01*
X867346Y1296205D01*
X867402Y1296503D01*
X867569Y1296756D01*
X869628Y1298815D01*
X870745Y1301511D01*
X870745Y1304429D01*
X869628Y1307125D01*
X867565Y1309188D01*
X864869Y1310305D01*
X861951Y1310305D01*
X859255Y1309188D01*
X857836Y1307769D01*
X857616Y1307616D01*
X857321Y1307546D01*
X857022Y1307597D01*
X856767Y1307761D01*
X856595Y1308011D01*
X856535Y1308308D01*
X856535Y1310643D01*
X852993Y1314185D01*
X852830Y1314427D01*
X852770Y1314724D01*
X852770Y1319147D01*
X847147Y1324770D01*
X813853Y1324770D01*
X812076Y1322993D01*
X811834Y1322830D01*
X811537Y1322770D01*
X784853Y1322770D01*
X769539Y1307456D01*
X769308Y1307298D01*
X769012Y1307233D01*
X768714Y1307289D01*
X768461Y1307456D01*
X765147Y1310770D01*
X717523Y1310770D01*
X710913Y1304160D01*
X710682Y1304002D01*
X710386Y1303937D01*
X710088Y1303993D01*
X709835Y1304160D01*
X707963Y1306032D01*
X707728Y1306032D01*
X707465Y1306079D01*
X707207Y1306238D01*
X707032Y1306486D01*
X706966Y1306782D01*
X707022Y1307080D01*
X707190Y1307333D01*
X726150Y1326293D01*
X726150Y1342218D01*
X726201Y1342493D01*
X726365Y1342748D01*
X726615Y1342920D01*
X726912Y1342980D01*
X730837Y1342980D01*
X735809Y1347952D01*
X736029Y1348105D01*
X736324Y1348175D01*
X736623Y1348124D01*
X736878Y1347961D01*
X737050Y1347711D01*
X737110Y1347414D01*
X737110Y1340282D01*
X737054Y1339996D01*
X736887Y1339744D01*
X734980Y1337837D01*
X734980Y1332342D01*
X734924Y1332056D01*
X734880Y1331989D01*
X734880Y1328538D01*
X734824Y1328252D01*
X734657Y1327999D01*
X733610Y1326952D01*
X733610Y1325412D01*
X742190Y1325412D01*
X742190Y1326952D01*
X741143Y1327999D01*
X740980Y1328241D01*
X740920Y1328538D01*
X740920Y1331926D01*
X740176Y1332670D01*
X739782Y1332670D01*
X739507Y1332721D01*
X739252Y1332885D01*
X739080Y1333135D01*
X739020Y1333432D01*
X739020Y1335848D01*
X739076Y1336134D01*
X739243Y1336386D01*
X741150Y1338293D01*
X741150Y1348598D01*
X741201Y1348873D01*
X741365Y1349128D01*
X741615Y1349300D01*
X741912Y1349360D01*
X746186Y1349360D01*
X746322Y1349453D01*
X746618Y1349518D01*
X746916Y1349463D01*
X747071Y1349360D01*
X752992Y1349360D01*
X753278Y1349304D01*
X753531Y1349137D01*
X754578Y1348090D01*
X757868Y1348090D01*
X757868Y1357142D01*
X759392Y1357142D01*
X759392Y1348090D01*
X762682Y1348090D01*
X764170Y1349578D01*
X764170Y1349583D01*
X764274Y1349968D01*
X764476Y1350194D01*
X764751Y1350323D01*
X765054Y1350335D01*
X765337Y1350228D01*
X766164Y1349709D01*
X766348Y1349603D01*
X766529Y1349517D01*
X766702Y1349449D01*
X767796Y1349067D01*
X768000Y1349004D01*
X768194Y1348961D01*
X768379Y1348933D01*
X769068Y1348856D01*
X769068Y1375404D01*
X768380Y1375327D01*
X768171Y1375295D01*
X767976Y1375250D01*
X767798Y1375194D01*
X766704Y1374811D01*
X766506Y1374733D01*
X766327Y1374646D01*
X766165Y1374552D01*
X765185Y1373936D01*
X765009Y1373816D01*
X764853Y1373691D01*
X764718Y1373564D01*
X763898Y1372744D01*
X763754Y1372588D01*
X763630Y1372431D01*
X763525Y1372276D01*
X762909Y1371296D01*
X762803Y1371112D01*
X762717Y1370931D01*
X762649Y1370758D01*
X762267Y1369664D01*
X762204Y1369460D01*
X762161Y1369266D01*
X762153Y1369213D01*
X761959Y1368808D01*
X761713Y1368630D01*
X761417Y1368563D01*
X761119Y1368616D01*
X760864Y1368781D01*
X760695Y1369033D01*
X760193Y1370246D01*
X758646Y1371793D01*
X756624Y1372630D01*
X754436Y1372630D01*
X752415Y1371793D01*
X750867Y1370246D01*
X750030Y1368224D01*
X750030Y1367404D01*
X749983Y1367141D01*
X749824Y1366883D01*
X749576Y1366708D01*
X749280Y1366642D01*
X748982Y1366698D01*
X748729Y1366866D01*
X743825Y1371770D01*
X710193Y1371770D01*
X709907Y1371826D01*
X709654Y1371993D01*
X699877Y1381770D01*
X675853Y1381770D01*
X669230Y1375147D01*
X669230Y1356463D01*
X669174Y1356177D01*
X669007Y1355924D01*
X664800Y1351717D01*
X664800Y1318316D01*
X664744Y1318030D01*
X664577Y1317777D01*
X664371Y1317571D01*
X664151Y1317418D01*
X663856Y1317348D01*
X663557Y1317399D01*
X663302Y1317562D01*
X663130Y1317812D01*
X663070Y1318110D01*
X663070Y1321526D01*
X662326Y1322270D01*
X649274Y1322270D01*
X648530Y1321526D01*
X648530Y1314474D01*
X649215Y1313789D01*
X649373Y1313558D01*
X649438Y1313262D01*
X649383Y1312964D01*
X649215Y1312711D01*
X648529Y1312025D01*
X648479Y1311757D01*
X648315Y1311502D01*
X648065Y1311330D01*
X647768Y1311270D01*
X646032Y1311270D01*
X645757Y1311321D01*
X645502Y1311485D01*
X645330Y1311735D01*
X645270Y1312032D01*
X645270Y1313926D01*
X644526Y1314670D01*
X638544Y1314670D01*
X638269Y1314721D01*
X638014Y1314885D01*
X637842Y1315135D01*
X637782Y1315432D01*
X637782Y1318030D01*
X637829Y1318293D01*
X637915Y1318433D01*
X635567Y1320782D01*
X633390Y1320782D01*
X633104Y1320838D01*
X632852Y1321005D01*
X617243Y1336614D01*
X617080Y1336855D01*
X617020Y1337152D01*
X617020Y1340868D01*
X617071Y1341143D01*
X617235Y1341398D01*
X617485Y1341570D01*
X617782Y1341630D01*
X618198Y1341630D01*
X618484Y1341574D01*
X618736Y1341407D01*
X638995Y1321148D01*
X639158Y1320907D01*
X639218Y1320610D01*
X639218Y1318970D01*
X639171Y1318707D01*
X639085Y1318567D01*
X641433Y1316218D01*
X644567Y1316218D01*
X646782Y1318433D01*
X646782Y1321567D01*
X644567Y1323782D01*
X642390Y1323782D01*
X642104Y1323838D01*
X641852Y1324005D01*
X625028Y1340829D01*
X624875Y1341049D01*
X624805Y1341344D01*
X624856Y1341643D01*
X625019Y1341898D01*
X625269Y1342070D01*
X625566Y1342130D01*
X627456Y1342130D01*
X627731Y1342079D01*
X627986Y1341915D01*
X628158Y1341665D01*
X628201Y1341450D01*
X630433Y1339218D01*
X633567Y1339218D01*
X634355Y1340007D01*
X634597Y1340170D01*
X634894Y1340230D01*
X650537Y1340230D01*
X650823Y1340174D01*
X651076Y1340007D01*
X653245Y1337838D01*
X653408Y1337596D01*
X653468Y1337299D01*
X653468Y1336537D01*
X655537Y1334468D01*
X658463Y1334468D01*
X660532Y1336537D01*
X660532Y1339463D01*
X658463Y1341532D01*
X657701Y1341532D01*
X657415Y1341588D01*
X657162Y1341755D01*
X653147Y1345770D01*
X634894Y1345770D01*
X634608Y1345826D01*
X634355Y1345993D01*
X633567Y1346782D01*
X632451Y1346782D01*
X632165Y1346838D01*
X631912Y1347005D01*
X631247Y1347670D01*
X630302Y1347670D01*
X630027Y1347721D01*
X629772Y1347885D01*
X629600Y1348135D01*
X629540Y1348432D01*
X629540Y1349138D01*
X620960Y1349138D01*
X620960Y1348432D01*
X620909Y1348157D01*
X620745Y1347902D01*
X620495Y1347730D01*
X620198Y1347670D01*
X617944Y1347670D01*
X617808Y1347577D01*
X617512Y1347512D01*
X617214Y1347567D01*
X617059Y1347670D01*
X613532Y1347670D01*
X613257Y1347721D01*
X613002Y1347885D01*
X612830Y1348135D01*
X612770Y1348432D01*
X612770Y1351956D01*
X612677Y1352092D01*
X612612Y1352388D01*
X612667Y1352686D01*
X612770Y1352841D01*
X612770Y1356368D01*
X612821Y1356643D01*
X612985Y1356898D01*
X613235Y1357070D01*
X613532Y1357130D01*
X617056Y1357130D01*
X617192Y1357223D01*
X617488Y1357288D01*
X617786Y1357233D01*
X617941Y1357130D01*
X620198Y1357130D01*
X620473Y1357079D01*
X620728Y1356915D01*
X620900Y1356665D01*
X620960Y1356368D01*
X620960Y1355662D01*
X629540Y1355662D01*
X629540Y1356368D01*
X629591Y1356643D01*
X629755Y1356898D01*
X630005Y1357070D01*
X630302Y1357130D01*
X652456Y1357130D01*
X652731Y1357079D01*
X652986Y1356915D01*
X653158Y1356665D01*
X653201Y1356450D01*
X655433Y1354218D01*
X658567Y1354218D01*
X660782Y1356433D01*
X660782Y1359567D01*
X658567Y1361782D01*
X657451Y1361782D01*
X657165Y1361838D01*
X656912Y1362005D01*
X656247Y1362670D01*
X622842Y1362670D01*
X622556Y1362726D01*
X622303Y1362893D01*
X622026Y1363170D01*
X619005Y1363170D01*
X618741Y1363217D01*
X618483Y1363376D01*
X618308Y1363624D01*
X618243Y1363920D01*
X618298Y1364218D01*
X618466Y1364471D01*
X618532Y1364537D01*
X618532Y1366360D01*
X618588Y1366646D01*
X618755Y1366898D01*
X621020Y1369163D01*
X621020Y1380848D01*
X621076Y1381134D01*
X621243Y1381386D01*
X638614Y1398757D01*
X638855Y1398920D01*
X639152Y1398980D01*
X640356Y1398980D01*
X640642Y1398924D01*
X640895Y1398757D01*
X642433Y1397218D01*
X645567Y1397218D01*
X647782Y1399433D01*
X647782Y1402567D01*
X645567Y1404782D01*
X642433Y1404782D01*
X640895Y1403243D01*
X640653Y1403080D01*
X640356Y1403020D01*
X637163Y1403020D01*
X616980Y1382837D01*
X616980Y1381052D01*
X616929Y1380777D01*
X616765Y1380522D01*
X616515Y1380350D01*
X616218Y1380290D01*
X615512Y1380290D01*
X615512Y1371710D01*
X616014Y1371710D01*
X616277Y1371663D01*
X616535Y1371504D01*
X616710Y1371256D01*
X616776Y1370960D01*
X616720Y1370662D01*
X616552Y1370409D01*
X615898Y1369755D01*
X615657Y1369592D01*
X615360Y1369532D01*
X613537Y1369532D01*
X612571Y1368566D01*
X612351Y1368413D01*
X612056Y1368343D01*
X611757Y1368394D01*
X611502Y1368557D01*
X611330Y1368807D01*
X611270Y1369105D01*
X611270Y1371048D01*
X611317Y1371312D01*
X611476Y1371570D01*
X611724Y1371745D01*
X612020Y1371810D01*
X612318Y1371755D01*
X612385Y1371710D01*
X613988Y1371710D01*
X613988Y1380290D01*
X612448Y1380290D01*
X611401Y1379243D01*
X611160Y1379080D01*
X610862Y1379020D01*
X607474Y1379020D01*
X606730Y1378276D01*
X606730Y1373724D01*
X607007Y1373447D01*
X607170Y1373206D01*
X607230Y1372908D01*
X607230Y1368402D01*
X607174Y1368116D01*
X607007Y1367864D01*
X604980Y1365837D01*
X604980Y1361813D01*
X606507Y1360286D01*
X606670Y1360045D01*
X606730Y1359748D01*
X606730Y1357782D01*
X606679Y1357507D01*
X606515Y1357252D01*
X606265Y1357080D01*
X605968Y1357020D01*
X605291Y1357020D01*
X605005Y1357076D01*
X604752Y1357243D01*
X603463Y1358532D01*
X600537Y1358532D01*
X598468Y1356463D01*
X598468Y1353432D01*
X598417Y1353157D01*
X598253Y1352902D01*
X598003Y1352730D01*
X597706Y1352670D01*
X591603Y1352670D01*
X591334Y1352719D01*
X591077Y1352880D01*
X590904Y1353129D01*
X590841Y1353426D01*
X590899Y1353724D01*
X591077Y1354153D01*
X591077Y1358637D01*
X589361Y1362779D01*
X586191Y1365949D01*
X582049Y1367665D01*
X577565Y1367665D01*
X574421Y1366363D01*
X574142Y1366305D01*
X573844Y1366360D01*
X573591Y1366528D01*
X569596Y1370523D01*
X569443Y1370743D01*
X569373Y1371038D01*
X569424Y1371337D01*
X569587Y1371592D01*
X569837Y1371764D01*
X570135Y1371824D01*
X571430Y1371824D01*
X571716Y1371768D01*
X571969Y1371601D01*
X573015Y1370554D01*
X574556Y1370554D01*
X574556Y1379134D01*
X573230Y1379134D01*
X572967Y1379181D01*
X572709Y1379340D01*
X572533Y1379588D01*
X572468Y1379884D01*
X572524Y1380182D01*
X572691Y1380435D01*
X576430Y1384173D01*
X576430Y1384708D01*
X576481Y1384983D01*
X576645Y1385238D01*
X576895Y1385410D01*
X577192Y1385470D01*
X577648Y1385470D01*
X577648Y1389772D01*
X579172Y1389772D01*
X579172Y1385470D01*
X579876Y1385470D01*
X582149Y1387743D01*
X582156Y1387754D01*
X582171Y1387765D01*
X582173Y1387767D01*
X582174Y1387767D01*
X582404Y1387930D01*
X582700Y1387995D01*
X582998Y1387939D01*
X583251Y1387772D01*
X591497Y1379526D01*
X591660Y1379284D01*
X591720Y1378987D01*
X591720Y1378424D01*
X592464Y1377680D01*
X595852Y1377680D01*
X596138Y1377624D01*
X596391Y1377457D01*
X597438Y1376410D01*
X598978Y1376410D01*
X598978Y1381462D01*
X603530Y1381462D01*
X603530Y1382666D01*
X603581Y1382941D01*
X603745Y1383197D01*
X603995Y1383368D01*
X604292Y1383428D01*
X606818Y1383428D01*
X606818Y1395508D01*
X603528Y1395508D01*
X602221Y1394201D01*
X601990Y1394043D01*
X601694Y1393978D01*
X601396Y1394034D01*
X601143Y1394201D01*
X601106Y1394238D01*
X599240Y1394238D01*
X598965Y1394290D01*
X598710Y1394453D01*
X598538Y1394703D01*
X598478Y1395000D01*
X598478Y1395208D01*
X593426Y1395208D01*
X593426Y1396732D01*
X598478Y1396732D01*
X598478Y1398272D01*
X597431Y1399319D01*
X597268Y1399561D01*
X597208Y1399858D01*
X597208Y1401468D01*
X597259Y1401743D01*
X597423Y1401998D01*
X597673Y1402170D01*
X597970Y1402230D01*
X604537Y1402230D01*
X604823Y1402174D01*
X605076Y1402007D01*
X610273Y1396809D01*
X610426Y1396590D01*
X610496Y1396295D01*
X610445Y1395996D01*
X610282Y1395740D01*
X610032Y1395569D01*
X609735Y1395508D01*
X608342Y1395508D01*
X608342Y1390230D01*
X613120Y1390230D01*
X613120Y1390692D01*
X613167Y1390955D01*
X613326Y1391213D01*
X613574Y1391389D01*
X613870Y1391454D01*
X614168Y1391398D01*
X614421Y1391231D01*
X615433Y1390218D01*
X618567Y1390218D01*
X620782Y1392433D01*
X620782Y1395567D01*
X618567Y1397782D01*
X617451Y1397782D01*
X617165Y1397838D01*
X616912Y1398005D01*
X607147Y1407770D01*
X581253Y1407770D01*
X577731Y1404248D01*
X577511Y1404095D01*
X577216Y1404025D01*
X576917Y1404076D01*
X576662Y1404240D01*
X576490Y1404490D01*
X576430Y1404787D01*
X576430Y1406427D01*
X575755Y1407102D01*
X575592Y1407343D01*
X575532Y1407640D01*
X575532Y1409463D01*
X573463Y1411532D01*
X570537Y1411532D01*
X568468Y1409463D01*
X568468Y1406537D01*
X570537Y1404468D01*
X571628Y1404468D01*
X571903Y1404417D01*
X572158Y1404253D01*
X572330Y1404003D01*
X572390Y1403706D01*
X572390Y1402516D01*
X572334Y1402230D01*
X572167Y1401977D01*
X572140Y1401950D01*
X572140Y1399792D01*
X572089Y1399517D01*
X571925Y1399262D01*
X571675Y1399090D01*
X571378Y1399030D01*
X571142Y1399030D01*
X570856Y1399086D01*
X570604Y1399253D01*
X568755Y1401102D01*
X568592Y1401343D01*
X568532Y1401640D01*
X568532Y1403463D01*
X566463Y1405532D01*
X563537Y1405532D01*
X561468Y1403463D01*
X561468Y1402335D01*
X561421Y1402072D01*
X561262Y1401814D01*
X561014Y1401638D01*
X560718Y1401573D01*
X560420Y1401629D01*
X560167Y1401796D01*
X556273Y1405690D01*
X555482Y1405690D01*
X555196Y1405746D01*
X554944Y1405913D01*
X554837Y1406020D01*
X550263Y1406020D01*
X547386Y1403143D01*
X547145Y1402980D01*
X546848Y1402920D01*
X546074Y1402920D01*
X545297Y1402143D01*
X545056Y1401980D01*
X544758Y1401920D01*
X534687Y1401920D01*
X534401Y1401976D01*
X534148Y1402143D01*
X533207Y1403084D01*
X529065Y1404800D01*
X524581Y1404800D01*
X520439Y1403084D01*
X517269Y1399914D01*
X515553Y1395772D01*
X515553Y1391288D01*
X516470Y1389074D01*
X516528Y1388806D01*
X516477Y1388507D01*
X516314Y1388252D01*
X516064Y1388080D01*
X515766Y1388020D01*
X509291Y1388020D01*
X509005Y1388076D01*
X508752Y1388243D01*
X507463Y1389532D01*
X504537Y1389532D01*
X502468Y1387463D01*
X502468Y1384537D01*
X504537Y1382468D01*
X507463Y1382468D01*
X508752Y1383757D01*
X508993Y1383920D01*
X509291Y1383980D01*
X512918Y1383980D01*
X513193Y1383929D01*
X513448Y1383765D01*
X513620Y1383515D01*
X513680Y1383218D01*
X513680Y1380574D01*
X514083Y1380171D01*
X514236Y1379951D01*
X514306Y1379656D01*
X514255Y1379357D01*
X514092Y1379102D01*
X513842Y1378930D01*
X513544Y1378870D01*
X512441Y1378870D01*
X512155Y1378926D01*
X511902Y1379093D01*
X510463Y1380532D01*
X507537Y1380532D01*
X506714Y1379709D01*
X506484Y1379551D01*
X506188Y1379486D01*
X505890Y1379542D01*
X505637Y1379709D01*
X505139Y1380207D01*
X501349Y1380207D01*
X501349Y1373905D01*
X494547Y1373905D01*
X494547Y1370615D01*
X495854Y1369307D01*
X496012Y1369077D01*
X496078Y1368781D01*
X496022Y1368483D01*
X495854Y1368230D01*
X495817Y1368193D01*
X495817Y1361141D01*
X496561Y1360397D01*
X497055Y1360397D01*
X497330Y1360345D01*
X497585Y1360182D01*
X497757Y1359932D01*
X497817Y1359635D01*
X497817Y1358510D01*
X497766Y1358235D01*
X497603Y1357979D01*
X497353Y1357808D01*
X497055Y1357748D01*
X494314Y1357748D01*
X493570Y1357004D01*
X493570Y1349952D01*
X493607Y1349915D01*
X493765Y1349684D01*
X493830Y1349388D01*
X493775Y1349090D01*
X493607Y1348837D01*
X492300Y1347530D01*
X492300Y1344240D01*
X504380Y1344240D01*
X504380Y1347530D01*
X503073Y1348837D01*
X502915Y1349067D01*
X502850Y1349364D01*
X502905Y1349662D01*
X503073Y1349914D01*
X503315Y1350157D01*
X503557Y1350320D01*
X503854Y1350380D01*
X517205Y1350380D01*
X517469Y1350333D01*
X517727Y1350174D01*
X517902Y1349926D01*
X517967Y1349630D01*
X517912Y1349332D01*
X517744Y1349079D01*
X506128Y1337463D01*
X505887Y1337300D01*
X505589Y1337240D01*
X504034Y1337240D01*
X503771Y1337287D01*
X503513Y1337446D01*
X503337Y1337694D01*
X503272Y1337990D01*
X503328Y1338288D01*
X503495Y1338541D01*
X504380Y1339426D01*
X504380Y1342716D01*
X492300Y1342716D01*
X492300Y1339426D01*
X493788Y1337938D01*
X494824Y1337938D01*
X495087Y1337891D01*
X495345Y1337731D01*
X495520Y1337484D01*
X495585Y1337188D01*
X495530Y1336890D01*
X495362Y1336637D01*
X495222Y1336496D01*
X495222Y1313824D01*
X495170Y1313549D01*
X495007Y1313294D01*
X494757Y1313122D01*
X494460Y1313062D01*
X484824Y1313062D01*
X484549Y1313113D01*
X484294Y1313277D01*
X484122Y1313527D01*
X484062Y1313824D01*
X484062Y1346300D01*
X484067Y1346385D01*
X485733Y1361178D01*
X485771Y1361344D01*
X490688Y1375395D01*
X490762Y1375548D01*
X493140Y1379333D01*
X493248Y1379428D01*
X493321Y1379620D01*
X498682Y1388153D01*
X498788Y1388286D01*
X509314Y1398812D01*
X509448Y1398918D01*
X522052Y1406838D01*
X522205Y1406912D01*
X536256Y1411829D01*
X536422Y1411867D01*
X551215Y1413533D01*
X551300Y1413538D01*
X676543Y1413538D01*
X676950Y1413420D01*
X677169Y1413210D01*
X677289Y1412932D01*
X677290Y1412629D01*
X677174Y1412349D01*
X677125Y1412277D01*
X676509Y1411296D01*
X676403Y1411112D01*
X676317Y1410931D01*
X676249Y1410758D01*
X675867Y1409664D01*
X675804Y1409460D01*
X675761Y1409266D01*
X675733Y1409081D01*
X675605Y1407939D01*
X675586Y1407611D01*
X675586Y1406769D01*
X675528Y1406478D01*
X675040Y1405299D01*
X675040Y1404392D01*
X691820Y1404392D01*
X691820Y1405299D01*
X691332Y1406478D01*
X691274Y1406769D01*
X691274Y1407611D01*
X691255Y1407939D01*
X691127Y1409080D01*
X691095Y1409289D01*
X691050Y1409484D01*
X690994Y1409662D01*
X690611Y1410756D01*
X690533Y1410954D01*
X690446Y1411133D01*
X690352Y1411295D01*
X689736Y1412275D01*
X689688Y1412346D01*
X689555Y1412752D01*
X689606Y1413051D01*
X689769Y1413306D01*
X690019Y1413478D01*
X690317Y1413538D01*
X762943Y1413538D01*
X763350Y1413420D01*
X763569Y1413210D01*
X763689Y1412932D01*
X763690Y1412629D01*
X763574Y1412349D01*
X763525Y1412277D01*
X762909Y1411296D01*
X762803Y1411112D01*
X762717Y1410931D01*
X762649Y1410758D01*
X762267Y1409664D01*
X762204Y1409460D01*
X762161Y1409266D01*
X762133Y1409081D01*
X762005Y1407939D01*
X761986Y1407611D01*
X761986Y1406769D01*
X761928Y1406478D01*
X761440Y1405299D01*
X761440Y1404392D01*
X778220Y1404392D01*
X778220Y1405299D01*
X777732Y1406478D01*
X777674Y1406769D01*
X777674Y1407611D01*
X777655Y1407939D01*
X777527Y1409080D01*
X777495Y1409289D01*
X777450Y1409484D01*
X777394Y1409662D01*
X777011Y1410756D01*
X776933Y1410954D01*
X776846Y1411133D01*
X776752Y1411295D01*
X776136Y1412275D01*
X776088Y1412346D01*
X775955Y1412752D01*
X776006Y1413051D01*
X776169Y1413306D01*
X776419Y1413478D01*
X776717Y1413538D01*
X809703Y1413538D01*
X809967Y1413491D01*
X810225Y1413332D01*
X810400Y1413084D01*
X810465Y1412788D01*
X810410Y1412490D01*
X810242Y1412237D01*
X808468Y1410463D01*
X808468Y1407537D01*
X809966Y1406039D01*
X810124Y1405808D01*
X810189Y1405512D01*
X810134Y1405214D01*
X809966Y1404961D01*
X808468Y1403463D01*
X808468Y1400537D01*
X809966Y1399039D01*
X810124Y1398808D01*
X810189Y1398512D01*
X810134Y1398214D01*
X809966Y1397961D01*
X808468Y1396463D01*
X808468Y1393537D01*
X809966Y1392039D01*
X810124Y1391808D01*
X810189Y1391512D01*
X810134Y1391214D01*
X809966Y1390961D01*
X808468Y1389463D01*
X808468Y1386537D01*
X809966Y1385039D01*
X810124Y1384808D01*
X810189Y1384512D01*
X810134Y1384214D01*
X809966Y1383961D01*
X808468Y1382463D01*
X808468Y1379537D01*
X809466Y1378539D01*
X809624Y1378308D01*
X809689Y1378012D01*
X809634Y1377714D01*
X809466Y1377461D01*
X808468Y1376463D01*
X808468Y1373537D01*
X810466Y1371539D01*
X810624Y1371308D01*
X810689Y1371012D01*
X810634Y1370714D01*
X810466Y1370461D01*
X808468Y1368463D01*
X808468Y1365537D01*
X809966Y1364039D01*
X810124Y1363808D01*
X810189Y1363512D01*
X810134Y1363214D01*
X809966Y1362961D01*
X808468Y1361463D01*
X808468Y1358537D01*
X810466Y1356539D01*
X810624Y1356308D01*
X810689Y1356012D01*
X810634Y1355714D01*
X810466Y1355461D01*
X808468Y1353463D01*
X808468Y1350537D01*
X809966Y1349039D01*
X810124Y1348808D01*
X810189Y1348512D01*
X810134Y1348214D01*
X809966Y1347961D01*
X808468Y1346463D01*
X808468Y1343537D01*
X809966Y1342039D01*
X810124Y1341808D01*
X810189Y1341512D01*
X810134Y1341214D01*
X809966Y1340961D01*
X808468Y1339463D01*
X808468Y1336537D01*
X810537Y1334468D01*
X813463Y1334468D01*
X814961Y1335966D01*
X815192Y1336124D01*
X815488Y1336189D01*
X815786Y1336134D01*
X816039Y1335966D01*
X817537Y1334468D01*
X820463Y1334468D01*
X822461Y1336466D01*
X822692Y1336624D01*
X822988Y1336689D01*
X823286Y1336634D01*
X823539Y1336466D01*
X825537Y1334468D01*
X828463Y1334468D01*
X830461Y1336466D01*
X830692Y1336624D01*
X830988Y1336689D01*
X831286Y1336634D01*
X831539Y1336466D01*
X833537Y1334468D01*
X836463Y1334468D01*
X838461Y1336466D01*
X838692Y1336624D01*
X838988Y1336689D01*
X839286Y1336634D01*
X839539Y1336466D01*
X841537Y1334468D01*
X844463Y1334468D01*
X846461Y1336466D01*
X846692Y1336624D01*
X846988Y1336689D01*
X847286Y1336634D01*
X847539Y1336466D01*
X849537Y1334468D01*
X852463Y1334468D01*
X854461Y1336466D01*
X854692Y1336624D01*
X854988Y1336689D01*
X855286Y1336634D01*
X855539Y1336466D01*
X857537Y1334468D01*
X860463Y1334468D01*
X862284Y1336289D01*
X862515Y1336447D01*
X862811Y1336513D01*
X863109Y1336457D01*
X863362Y1336289D01*
X865433Y1334218D01*
X868567Y1334218D01*
X870638Y1336289D01*
X870868Y1336447D01*
X871165Y1336513D01*
X871463Y1336457D01*
X871716Y1336289D01*
X873537Y1334468D01*
X876463Y1334468D01*
X878461Y1336466D01*
X878692Y1336624D01*
X878988Y1336689D01*
X879286Y1336634D01*
X879539Y1336466D01*
X881537Y1334468D01*
X884463Y1334468D01*
X885961Y1335966D01*
X886192Y1336124D01*
X886488Y1336189D01*
X886786Y1336134D01*
X887039Y1335966D01*
X888537Y1334468D01*
X891463Y1334468D01*
X892961Y1335966D01*
X893192Y1336124D01*
X893488Y1336189D01*
X893786Y1336134D01*
X894039Y1335966D01*
X895537Y1334468D01*
X898463Y1334468D01*
X900461Y1336466D01*
X900692Y1336624D01*
X900988Y1336689D01*
X901286Y1336634D01*
X901539Y1336466D01*
X903537Y1334468D01*
X906463Y1334468D01*
X908461Y1336466D01*
X908692Y1336624D01*
X908988Y1336689D01*
X909286Y1336634D01*
X909539Y1336466D01*
X911537Y1334468D01*
X914463Y1334468D01*
X916461Y1336466D01*
X916692Y1336624D01*
X916988Y1336689D01*
X917286Y1336634D01*
X917539Y1336466D01*
X919537Y1334468D01*
X922463Y1334468D01*
X924461Y1336466D01*
X924692Y1336624D01*
X924988Y1336689D01*
X925286Y1336634D01*
X925539Y1336466D01*
X927537Y1334468D01*
X930463Y1334468D01*
X931961Y1335966D01*
X932192Y1336124D01*
X932488Y1336189D01*
X932786Y1336134D01*
X933039Y1335966D01*
X934537Y1334468D01*
X937776Y1334468D01*
X938051Y1334417D01*
X938306Y1334253D01*
X938478Y1334003D01*
X938538Y1333706D01*
X938538Y1136300D01*
X938533Y1136215D01*
X936867Y1121422D01*
X936829Y1121256D01*
X931912Y1107205D01*
X931838Y1107052D01*
X923918Y1094448D01*
X923812Y1094314D01*
X913286Y1083788D01*
X913153Y1083682D01*
X900548Y1075762D01*
X900395Y1075688D01*
X886344Y1070771D01*
X886178Y1070733D01*
X871385Y1069067D01*
G37*
%LPC*%
G36*
X770592Y1402868D02*
X770592Y1391856D01*
X771280Y1391933D01*
X771489Y1391965D01*
X771684Y1392010D01*
X771862Y1392066D01*
X772956Y1392449D01*
X773154Y1392527D01*
X773333Y1392614D01*
X773495Y1392708D01*
X774475Y1393324D01*
X774651Y1393444D01*
X774807Y1393570D01*
X774942Y1393696D01*
X775762Y1394516D01*
X775906Y1394672D01*
X776030Y1394829D01*
X776135Y1394984D01*
X776751Y1395964D01*
X776857Y1396148D01*
X776943Y1396329D01*
X777011Y1396502D01*
X777393Y1397596D01*
X777456Y1397800D01*
X777499Y1397994D01*
X777527Y1398179D01*
X777655Y1399321D01*
X777674Y1399649D01*
X777674Y1400491D01*
X777732Y1400782D01*
X778220Y1401961D01*
X778220Y1402868D01*
X770592Y1402868D01*
G37*
G36*
X768379Y1391933D02*
X769068Y1391856D01*
X769068Y1402868D01*
X761440Y1402868D01*
X761440Y1401961D01*
X761928Y1400782D01*
X761986Y1400491D01*
X761986Y1399649D01*
X762005Y1399321D01*
X762133Y1398180D01*
X762165Y1397971D01*
X762210Y1397776D01*
X762266Y1397598D01*
X762649Y1396504D01*
X762727Y1396306D01*
X762814Y1396127D01*
X762908Y1395965D01*
X763524Y1394985D01*
X763644Y1394809D01*
X763770Y1394653D01*
X763896Y1394518D01*
X764716Y1393698D01*
X764872Y1393554D01*
X765029Y1393430D01*
X765184Y1393325D01*
X766164Y1392709D01*
X766348Y1392603D01*
X766529Y1392517D01*
X766702Y1392449D01*
X767796Y1392067D01*
X768000Y1392004D01*
X768194Y1391961D01*
X768379Y1391933D01*
G37*
G36*
X684192Y1402868D02*
X684192Y1391856D01*
X684880Y1391933D01*
X685089Y1391965D01*
X685284Y1392010D01*
X685462Y1392066D01*
X686556Y1392449D01*
X686754Y1392527D01*
X686933Y1392614D01*
X687095Y1392708D01*
X688075Y1393324D01*
X688251Y1393444D01*
X688407Y1393570D01*
X688542Y1393696D01*
X689362Y1394516D01*
X689506Y1394672D01*
X689630Y1394829D01*
X689735Y1394984D01*
X690351Y1395964D01*
X690457Y1396148D01*
X690543Y1396329D01*
X690611Y1396502D01*
X690993Y1397596D01*
X691056Y1397800D01*
X691099Y1397994D01*
X691127Y1398179D01*
X691255Y1399321D01*
X691274Y1399649D01*
X691274Y1400491D01*
X691332Y1400782D01*
X691820Y1401961D01*
X691820Y1402868D01*
X684192Y1402868D01*
G37*
G36*
X681979Y1391933D02*
X682668Y1391856D01*
X682668Y1402868D01*
X675040Y1402868D01*
X675040Y1401961D01*
X675528Y1400782D01*
X675586Y1400491D01*
X675586Y1399649D01*
X675605Y1399321D01*
X675733Y1398180D01*
X675765Y1397971D01*
X675810Y1397776D01*
X675866Y1397598D01*
X676249Y1396504D01*
X676327Y1396306D01*
X676414Y1396127D01*
X676508Y1395965D01*
X677124Y1394985D01*
X677244Y1394809D01*
X677370Y1394653D01*
X677496Y1394518D01*
X678316Y1393698D01*
X678472Y1393554D01*
X678629Y1393430D01*
X678784Y1393325D01*
X679764Y1392709D01*
X679948Y1392603D01*
X680129Y1392517D01*
X680302Y1392449D01*
X681396Y1392067D01*
X681600Y1392004D01*
X681794Y1391961D01*
X681979Y1391933D01*
G37*
G36*
X608342Y1383428D02*
X611632Y1383428D01*
X613120Y1384916D01*
X613120Y1388706D01*
X608342Y1388706D01*
X608342Y1383428D01*
G37*
G36*
X625610Y1378962D02*
X628788Y1378962D01*
X628788Y1382890D01*
X627098Y1382890D01*
X625610Y1381402D01*
X625610Y1378962D01*
G37*
G36*
X655433Y1370218D02*
X658567Y1370218D01*
X660782Y1372433D01*
X660782Y1375567D01*
X658567Y1377782D01*
X657451Y1377782D01*
X657165Y1377838D01*
X656912Y1378005D01*
X653947Y1380970D01*
X637542Y1380970D01*
X637256Y1381026D01*
X637003Y1381193D01*
X636576Y1381620D01*
X633588Y1381620D01*
X633302Y1381676D01*
X633049Y1381843D01*
X632002Y1382890D01*
X630312Y1382890D01*
X630312Y1373510D01*
X632002Y1373510D01*
X633049Y1374557D01*
X633291Y1374720D01*
X633588Y1374780D01*
X636576Y1374780D01*
X637003Y1375207D01*
X637244Y1375370D01*
X637542Y1375430D01*
X651337Y1375430D01*
X651623Y1375374D01*
X651876Y1375207D01*
X652995Y1374088D01*
X653158Y1373846D01*
X653218Y1373549D01*
X653218Y1372433D01*
X655433Y1370218D01*
G37*
G36*
X494547Y1375429D02*
X499825Y1375429D01*
X499825Y1380207D01*
X496035Y1380207D01*
X494547Y1378719D01*
X494547Y1375429D01*
G37*
G36*
X600502Y1376410D02*
X602042Y1376410D01*
X603530Y1377898D01*
X603530Y1379938D01*
X600502Y1379938D01*
X600502Y1376410D01*
G37*
G36*
X576080Y1375606D02*
X579108Y1375606D01*
X579108Y1377646D01*
X577620Y1379134D01*
X576080Y1379134D01*
X576080Y1375606D01*
G37*
G36*
X627098Y1373510D02*
X628788Y1373510D01*
X628788Y1377438D01*
X625610Y1377438D01*
X625610Y1374998D01*
X627098Y1373510D01*
G37*
G36*
X770592Y1362892D02*
X778220Y1362892D01*
X778220Y1363799D01*
X777732Y1364978D01*
X777674Y1365269D01*
X777674Y1367611D01*
X777655Y1367939D01*
X777527Y1369080D01*
X777495Y1369289D01*
X777450Y1369484D01*
X777394Y1369662D01*
X777011Y1370756D01*
X776933Y1370954D01*
X776846Y1371133D01*
X776752Y1371295D01*
X776136Y1372275D01*
X776016Y1372451D01*
X775891Y1372606D01*
X775764Y1372742D01*
X774944Y1373562D01*
X774788Y1373706D01*
X774631Y1373830D01*
X774476Y1373935D01*
X773496Y1374551D01*
X773312Y1374657D01*
X773131Y1374743D01*
X772958Y1374811D01*
X771864Y1375193D01*
X771660Y1375256D01*
X771466Y1375299D01*
X771281Y1375327D01*
X770592Y1375404D01*
X770592Y1362892D01*
G37*
G36*
X576080Y1370554D02*
X577620Y1370554D01*
X579108Y1372042D01*
X579108Y1374082D01*
X576080Y1374082D01*
X576080Y1370554D01*
G37*
G36*
X770592Y1361368D02*
X770592Y1348856D01*
X771280Y1348933D01*
X771489Y1348965D01*
X771684Y1349010D01*
X771862Y1349066D01*
X772956Y1349449D01*
X773154Y1349527D01*
X773333Y1349614D01*
X773495Y1349708D01*
X774475Y1350324D01*
X774651Y1350444D01*
X774807Y1350570D01*
X774942Y1350696D01*
X775762Y1351516D01*
X775906Y1351672D01*
X776030Y1351829D01*
X776135Y1351984D01*
X776751Y1352964D01*
X776857Y1353148D01*
X776943Y1353329D01*
X777011Y1353502D01*
X777393Y1354596D01*
X777456Y1354800D01*
X777499Y1354994D01*
X777527Y1355179D01*
X777655Y1356321D01*
X777674Y1356649D01*
X777674Y1358991D01*
X777732Y1359282D01*
X778220Y1360461D01*
X778220Y1361368D01*
X770592Y1361368D01*
G37*
G36*
X620960Y1350662D02*
X629540Y1350662D01*
X629540Y1354138D01*
X620960Y1354138D01*
X620960Y1350662D01*
G37*
G36*
X738662Y1320860D02*
X740702Y1320860D01*
X742190Y1322348D01*
X742190Y1323888D01*
X738662Y1323888D01*
X738662Y1320860D01*
G37*
G36*
X735098Y1320860D02*
X737138Y1320860D01*
X737138Y1323888D01*
X733610Y1323888D01*
X733610Y1322348D01*
X735098Y1320860D01*
G37*
G36*
X792660Y1303582D02*
X795838Y1303582D01*
X795838Y1307510D01*
X794148Y1307510D01*
X792660Y1306022D01*
X792660Y1303582D01*
G37*
G36*
X794148Y1298130D02*
X795838Y1298130D01*
X795838Y1302058D01*
X792660Y1302058D01*
X792660Y1299618D01*
X794148Y1298130D01*
G37*
G36*
X749702Y1292422D02*
X753630Y1292422D01*
X753630Y1294112D01*
X752142Y1295600D01*
X749702Y1295600D01*
X749702Y1292422D01*
G37*
G36*
X922296Y1257630D02*
X926780Y1257630D01*
X930922Y1259346D01*
X934092Y1262516D01*
X935808Y1266658D01*
X935808Y1271142D01*
X934092Y1275284D01*
X930922Y1278454D01*
X926780Y1280170D01*
X922296Y1280170D01*
X918403Y1278557D01*
X918123Y1278499D01*
X917825Y1278555D01*
X917572Y1278722D01*
X916275Y1280020D01*
X913291Y1280020D01*
X913005Y1280076D01*
X912752Y1280243D01*
X911463Y1281532D01*
X908537Y1281532D01*
X906468Y1279463D01*
X906468Y1276537D01*
X908537Y1274468D01*
X911463Y1274468D01*
X912752Y1275757D01*
X912993Y1275920D01*
X913291Y1275980D01*
X914132Y1275980D01*
X914401Y1275931D01*
X914657Y1275770D01*
X914831Y1275521D01*
X914894Y1275224D01*
X914836Y1274926D01*
X913268Y1271142D01*
X913268Y1266658D01*
X914984Y1262516D01*
X918154Y1259346D01*
X922296Y1257630D01*
G37*
G36*
X804552Y1270190D02*
X809592Y1270190D01*
X811080Y1271678D01*
X811080Y1276218D01*
X804552Y1276218D01*
X804552Y1270190D01*
G37*
G36*
X782042Y1264342D02*
X785220Y1264342D01*
X785220Y1266782D01*
X783732Y1268270D01*
X782042Y1268270D01*
X782042Y1264342D01*
G37*
G36*
X816433Y1230218D02*
X819567Y1230218D01*
X821782Y1232433D01*
X821782Y1235567D01*
X820243Y1237105D01*
X820080Y1237347D01*
X820020Y1237644D01*
X820020Y1251837D01*
X810005Y1261852D01*
X809842Y1262093D01*
X809782Y1262390D01*
X809782Y1264567D01*
X807567Y1266782D01*
X804433Y1266782D01*
X802218Y1264567D01*
X802218Y1261433D01*
X804433Y1259218D01*
X806610Y1259218D01*
X806896Y1259162D01*
X807148Y1258995D01*
X815757Y1250386D01*
X815920Y1250145D01*
X815980Y1249848D01*
X815980Y1237644D01*
X815924Y1237358D01*
X815757Y1237105D01*
X814218Y1235567D01*
X814218Y1232433D01*
X816433Y1230218D01*
G37*
G36*
X790890Y1252882D02*
X800270Y1252882D01*
X800270Y1254572D01*
X798782Y1256060D01*
X797012Y1256060D01*
X796748Y1256107D01*
X796490Y1256266D01*
X796315Y1256514D01*
X796250Y1256810D01*
X796305Y1257108D01*
X796473Y1257361D01*
X796670Y1257558D01*
X796670Y1259248D01*
X787290Y1259248D01*
X787290Y1257558D01*
X788778Y1256070D01*
X790548Y1256070D01*
X790812Y1256023D01*
X791070Y1255864D01*
X791245Y1255616D01*
X791310Y1255320D01*
X791255Y1255022D01*
X791087Y1254769D01*
X790890Y1254572D01*
X790890Y1252882D01*
G37*
G36*
X855163Y1229980D02*
X885837Y1229980D01*
X891852Y1235995D01*
X892093Y1236158D01*
X892390Y1236218D01*
X894567Y1236218D01*
X896782Y1238433D01*
X896782Y1241567D01*
X894567Y1243782D01*
X891433Y1243782D01*
X889218Y1241567D01*
X889218Y1239390D01*
X889162Y1239104D01*
X888995Y1238852D01*
X884386Y1234243D01*
X884145Y1234080D01*
X883848Y1234020D01*
X857152Y1234020D01*
X856866Y1234076D01*
X856614Y1234243D01*
X854807Y1236050D01*
X854646Y1236288D01*
X854527Y1236565D01*
X854280Y1236663D01*
X854025Y1236832D01*
X853837Y1237020D01*
X853536Y1237020D01*
X853253Y1237075D01*
X849280Y1238663D01*
X849025Y1238832D01*
X848837Y1239020D01*
X848536Y1239020D01*
X848253Y1239075D01*
X847973Y1239186D01*
X847729Y1239082D01*
X847429Y1239020D01*
X840291Y1239020D01*
X840005Y1239076D01*
X839752Y1239243D01*
X838463Y1240532D01*
X835537Y1240532D01*
X833468Y1238463D01*
X833468Y1235537D01*
X835537Y1233468D01*
X838463Y1233468D01*
X839752Y1234757D01*
X839993Y1234920D01*
X840291Y1234980D01*
X847464Y1234980D01*
X847747Y1234926D01*
X851720Y1233337D01*
X851975Y1233168D01*
X855163Y1229980D01*
G37*
G36*
X792378Y1231450D02*
X794818Y1231450D01*
X794818Y1234628D01*
X790890Y1234628D01*
X790890Y1232938D01*
X792378Y1231450D01*
G37*
G36*
X778450Y1209162D02*
X782378Y1209162D01*
X782378Y1212340D01*
X779938Y1212340D01*
X778450Y1210852D01*
X778450Y1209162D01*
G37*
G36*
X783902Y1209162D02*
X787830Y1209162D01*
X787830Y1210852D01*
X786342Y1212340D01*
X783902Y1212340D01*
X783902Y1209162D01*
G37*
G36*
X898922Y1200162D02*
X910700Y1200162D01*
X910700Y1211940D01*
X908968Y1211940D01*
X904359Y1210031D01*
X900831Y1206503D01*
X898922Y1201894D01*
X898922Y1200162D01*
G37*
G36*
X912224Y1200162D02*
X924002Y1200162D01*
X924002Y1201894D01*
X922093Y1206503D01*
X918565Y1210031D01*
X913956Y1211940D01*
X912224Y1211940D01*
X912224Y1200162D01*
G37*
G36*
X687468Y1207020D02*
X691258Y1207020D01*
X691258Y1211798D01*
X685980Y1211798D01*
X685980Y1208508D01*
X687468Y1207020D01*
G37*
G36*
X876860Y1171362D02*
X894940Y1171362D01*
X894940Y1174926D01*
X894996Y1175212D01*
X895163Y1175465D01*
X896020Y1176322D01*
X896020Y1184578D01*
X895078Y1185520D01*
X892190Y1185520D01*
X891904Y1185576D01*
X891651Y1185743D01*
X890604Y1186790D01*
X889162Y1186790D01*
X889162Y1179688D01*
X887638Y1179688D01*
X887638Y1186790D01*
X886182Y1186790D01*
X885907Y1186841D01*
X885652Y1187005D01*
X885480Y1187255D01*
X885420Y1187552D01*
X885420Y1201437D01*
X877837Y1209020D01*
X868644Y1209020D01*
X868358Y1209076D01*
X868105Y1209243D01*
X866567Y1210782D01*
X863433Y1210782D01*
X861218Y1208567D01*
X861218Y1205433D01*
X863433Y1203218D01*
X866567Y1203218D01*
X868105Y1204757D01*
X868347Y1204920D01*
X868644Y1204980D01*
X875848Y1204980D01*
X876134Y1204924D01*
X876386Y1204757D01*
X881157Y1199986D01*
X881320Y1199745D01*
X881380Y1199448D01*
X881380Y1192316D01*
X881333Y1192053D01*
X881174Y1191795D01*
X880926Y1191620D01*
X880630Y1191554D01*
X880332Y1191610D01*
X880079Y1191778D01*
X876837Y1195020D01*
X875644Y1195020D01*
X875358Y1195076D01*
X875105Y1195243D01*
X873567Y1196782D01*
X870433Y1196782D01*
X868218Y1194567D01*
X868218Y1191433D01*
X870433Y1189218D01*
X873567Y1189218D01*
X874707Y1190359D01*
X874938Y1190517D01*
X875234Y1190582D01*
X875532Y1190526D01*
X875785Y1190359D01*
X876157Y1189986D01*
X876320Y1189745D01*
X876380Y1189448D01*
X876380Y1185494D01*
X876324Y1185208D01*
X876157Y1184955D01*
X875780Y1184578D01*
X875780Y1176322D01*
X876637Y1175465D01*
X876800Y1175223D01*
X876860Y1174926D01*
X876860Y1171362D01*
G37*
G36*
X687630Y1198812D02*
X692408Y1198812D01*
X692408Y1204090D01*
X689118Y1204090D01*
X687630Y1202602D01*
X687630Y1198812D01*
G37*
G36*
X741262Y1197670D02*
X742952Y1197670D01*
X744440Y1199158D01*
X744440Y1201598D01*
X741262Y1201598D01*
X741262Y1197670D01*
G37*
G36*
X725662Y1194490D02*
X728952Y1194490D01*
X730440Y1195978D01*
X730440Y1199768D01*
X725662Y1199768D01*
X725662Y1194490D01*
G37*
G36*
X912224Y1186860D02*
X913956Y1186860D01*
X918565Y1188769D01*
X922093Y1192297D01*
X924002Y1196906D01*
X924002Y1198638D01*
X912224Y1198638D01*
X912224Y1186860D01*
G37*
G36*
X908968Y1186860D02*
X910700Y1186860D01*
X910700Y1198638D01*
X898922Y1198638D01*
X898922Y1196906D01*
X900831Y1192297D01*
X904359Y1188769D01*
X908968Y1186860D01*
G37*
G36*
X689118Y1192010D02*
X692408Y1192010D01*
X692408Y1197288D01*
X687630Y1197288D01*
X687630Y1193498D01*
X689118Y1192010D01*
G37*
G36*
X763906Y1155486D02*
X773949Y1155486D01*
X774094Y1155493D01*
X774219Y1155512D01*
X774341Y1155543D01*
X774459Y1155586D01*
X774573Y1155640D01*
X774681Y1155706D01*
X774782Y1155782D01*
X774875Y1155867D01*
X774958Y1155961D01*
X775045Y1156080D01*
X776673Y1158574D01*
X776722Y1158641D01*
X778756Y1161119D01*
X778861Y1161224D01*
X781265Y1163197D01*
X781389Y1163280D01*
X784132Y1164745D01*
X784269Y1164802D01*
X787085Y1165656D01*
X787347Y1165688D01*
X790472Y1165522D01*
X790648Y1165522D01*
X793773Y1165688D01*
X794035Y1165656D01*
X796851Y1164802D01*
X796989Y1164745D01*
X799731Y1163280D01*
X799855Y1163197D01*
X802259Y1161224D01*
X802364Y1161119D01*
X804397Y1158642D01*
X804446Y1158575D01*
X806075Y1156079D01*
X806160Y1155962D01*
X806245Y1155868D01*
X806337Y1155783D01*
X806438Y1155707D01*
X806546Y1155641D01*
X806659Y1155586D01*
X806778Y1155544D01*
X806900Y1155512D01*
X807025Y1155494D01*
X807171Y1155486D01*
X817211Y1155486D01*
X817356Y1155493D01*
X817481Y1155512D01*
X817603Y1155543D01*
X817721Y1155586D01*
X817835Y1155640D01*
X817943Y1155706D01*
X818044Y1155782D01*
X818137Y1155867D01*
X818221Y1155961D01*
X818295Y1156063D01*
X818359Y1156172D01*
X818411Y1156286D01*
X818453Y1156406D01*
X818482Y1156528D01*
X818499Y1156656D01*
X818504Y1156776D01*
X818504Y1166018D01*
X818555Y1166293D01*
X818718Y1166548D01*
X818969Y1166720D01*
X819266Y1166780D01*
X819738Y1166780D01*
X820013Y1166729D01*
X820268Y1166565D01*
X820440Y1166315D01*
X820500Y1166018D01*
X820500Y1165274D01*
X821244Y1164530D01*
X829296Y1164530D01*
X830040Y1165274D01*
X830040Y1169007D01*
X830056Y1169163D01*
X830176Y1169442D01*
X830395Y1169651D01*
X841661Y1176778D01*
X842044Y1176895D01*
X842343Y1176845D01*
X842598Y1176681D01*
X842770Y1176431D01*
X842830Y1176134D01*
X842830Y1175774D01*
X843574Y1175030D01*
X852626Y1175030D01*
X853370Y1175774D01*
X853370Y1185826D01*
X852626Y1186570D01*
X843574Y1186570D01*
X842830Y1185826D01*
X842830Y1182717D01*
X842814Y1182562D01*
X842694Y1182283D01*
X842475Y1182073D01*
X832479Y1175750D01*
X832096Y1175633D01*
X831797Y1175684D01*
X831542Y1175847D01*
X831370Y1176097D01*
X831310Y1176394D01*
X831310Y1178038D01*
X818849Y1178038D01*
X818849Y1178041D01*
X818599Y1177943D01*
X818295Y1177952D01*
X818020Y1178078D01*
X817927Y1178145D01*
X817818Y1178209D01*
X817704Y1178261D01*
X817584Y1178303D01*
X817462Y1178332D01*
X817334Y1178349D01*
X817214Y1178354D01*
X812188Y1178354D01*
X811925Y1178401D01*
X811667Y1178560D01*
X811492Y1178807D01*
X811426Y1179104D01*
X811482Y1179402D01*
X811532Y1179477D01*
X811532Y1182463D01*
X809463Y1184532D01*
X807640Y1184532D01*
X807354Y1184588D01*
X807102Y1184755D01*
X804837Y1187020D01*
X789152Y1187020D01*
X788866Y1187076D01*
X788614Y1187243D01*
X783755Y1192102D01*
X783592Y1192343D01*
X783532Y1192640D01*
X783532Y1194463D01*
X781463Y1196532D01*
X778537Y1196532D01*
X776468Y1194463D01*
X776468Y1191537D01*
X778537Y1189468D01*
X780360Y1189468D01*
X780646Y1189412D01*
X780898Y1189245D01*
X787163Y1182980D01*
X802848Y1182980D01*
X803134Y1182924D01*
X803386Y1182757D01*
X804245Y1181898D01*
X804408Y1181657D01*
X804468Y1181360D01*
X804468Y1179486D01*
X804503Y1179435D01*
X804573Y1179140D01*
X804522Y1178841D01*
X804359Y1178586D01*
X804109Y1178414D01*
X803812Y1178354D01*
X763909Y1178354D01*
X763764Y1178347D01*
X763639Y1178328D01*
X763517Y1178297D01*
X763399Y1178254D01*
X763285Y1178200D01*
X763177Y1178134D01*
X763076Y1178058D01*
X762983Y1177973D01*
X762899Y1177879D01*
X762825Y1177777D01*
X762761Y1177668D01*
X762709Y1177554D01*
X762667Y1177434D01*
X762638Y1177312D01*
X762621Y1177184D01*
X762616Y1177064D01*
X762616Y1175062D01*
X762565Y1174787D01*
X762402Y1174532D01*
X762151Y1174360D01*
X761854Y1174300D01*
X760294Y1174300D01*
X760019Y1174351D01*
X759764Y1174515D01*
X759592Y1174765D01*
X759532Y1175062D01*
X759532Y1175463D01*
X757463Y1177532D01*
X754537Y1177532D01*
X752468Y1175463D01*
X752468Y1172537D01*
X754537Y1170468D01*
X756360Y1170468D01*
X756646Y1170412D01*
X756876Y1170260D01*
X761854Y1170260D01*
X762129Y1170209D01*
X762384Y1170045D01*
X762556Y1169795D01*
X762616Y1169498D01*
X762616Y1156779D01*
X762623Y1156634D01*
X762642Y1156509D01*
X762673Y1156387D01*
X762716Y1156269D01*
X762770Y1156155D01*
X762836Y1156047D01*
X762912Y1155946D01*
X762997Y1155853D01*
X763091Y1155769D01*
X763193Y1155695D01*
X763302Y1155631D01*
X763416Y1155579D01*
X763536Y1155537D01*
X763658Y1155508D01*
X763786Y1155491D01*
X763906Y1155486D01*
G37*
G36*
X826032Y1179562D02*
X831310Y1179562D01*
X831310Y1182852D01*
X829822Y1184340D01*
X826032Y1184340D01*
X826032Y1179562D01*
G37*
G36*
X819230Y1179562D02*
X824508Y1179562D01*
X824508Y1184340D01*
X820718Y1184340D01*
X819230Y1182852D01*
X819230Y1179562D01*
G37*
G36*
X904858Y1116530D02*
X909342Y1116530D01*
X913484Y1118246D01*
X916654Y1121416D01*
X918370Y1125558D01*
X918370Y1130042D01*
X916654Y1134184D01*
X913484Y1137354D01*
X909342Y1139070D01*
X904858Y1139070D01*
X900716Y1137354D01*
X897546Y1134184D01*
X896244Y1131040D01*
X896087Y1130802D01*
X895837Y1130630D01*
X895540Y1130570D01*
X893313Y1130570D01*
X893027Y1130626D01*
X892774Y1130793D01*
X890143Y1133424D01*
X889980Y1133666D01*
X889920Y1133963D01*
X889920Y1148687D01*
X889976Y1148973D01*
X890143Y1149226D01*
X891170Y1150253D01*
X891170Y1153648D01*
X891221Y1153923D01*
X891385Y1154178D01*
X891635Y1154350D01*
X891932Y1154410D01*
X892638Y1154410D01*
X892638Y1161512D01*
X897290Y1161512D01*
X897290Y1165404D01*
X895582Y1167112D01*
X895427Y1167141D01*
X895172Y1167305D01*
X895000Y1167555D01*
X894940Y1167852D01*
X894940Y1169838D01*
X876860Y1169838D01*
X876860Y1167852D01*
X876809Y1167577D01*
X876645Y1167322D01*
X876395Y1167150D01*
X876220Y1167115D01*
X874510Y1165404D01*
X874510Y1161512D01*
X879162Y1161512D01*
X879162Y1154410D01*
X879868Y1154410D01*
X880143Y1154359D01*
X880398Y1154195D01*
X880570Y1153945D01*
X880630Y1153648D01*
X880630Y1152753D01*
X884157Y1149226D01*
X884320Y1148984D01*
X884380Y1148687D01*
X884380Y1137552D01*
X884329Y1137277D01*
X884165Y1137022D01*
X883915Y1136850D01*
X883618Y1136790D01*
X882412Y1136790D01*
X882412Y1128210D01*
X883952Y1128210D01*
X884999Y1129257D01*
X885241Y1129420D01*
X885538Y1129480D01*
X885937Y1129480D01*
X886223Y1129424D01*
X886476Y1129257D01*
X890703Y1125030D01*
X895540Y1125030D01*
X895820Y1124977D01*
X896074Y1124811D01*
X896244Y1124560D01*
X897546Y1121416D01*
X900716Y1118246D01*
X904858Y1116530D01*
G37*
G36*
X859433Y1139218D02*
X862567Y1139218D01*
X864782Y1141433D01*
X864782Y1144567D01*
X863993Y1145355D01*
X863830Y1145597D01*
X863770Y1145894D01*
X863770Y1157547D01*
X863093Y1158224D01*
X862930Y1158466D01*
X862870Y1158763D01*
X862870Y1164826D01*
X862126Y1165570D01*
X853074Y1165570D01*
X852330Y1164826D01*
X852330Y1154774D01*
X853074Y1154030D01*
X857468Y1154030D01*
X857743Y1153979D01*
X857998Y1153815D01*
X858170Y1153565D01*
X858230Y1153268D01*
X858230Y1145894D01*
X858174Y1145608D01*
X858007Y1145355D01*
X857218Y1144567D01*
X857218Y1141433D01*
X859433Y1139218D01*
G37*
G36*
X894162Y1154410D02*
X895604Y1154410D01*
X897290Y1156096D01*
X897290Y1159988D01*
X894162Y1159988D01*
X894162Y1154410D01*
G37*
G36*
X876196Y1154410D02*
X877638Y1154410D01*
X877638Y1159988D01*
X874510Y1159988D01*
X874510Y1156096D01*
X876196Y1154410D01*
G37*
G36*
X722014Y1128790D02*
X731066Y1128790D01*
X731810Y1129534D01*
X731810Y1142086D01*
X731066Y1142830D01*
X722014Y1142830D01*
X721270Y1142086D01*
X721270Y1138592D01*
X721219Y1138317D01*
X721055Y1138062D01*
X720805Y1137890D01*
X720508Y1137830D01*
X713342Y1137830D01*
X713056Y1137886D01*
X712804Y1138053D01*
X711243Y1139614D01*
X711080Y1139855D01*
X711020Y1140152D01*
X711020Y1147709D01*
X711076Y1147995D01*
X711243Y1148248D01*
X712532Y1149537D01*
X712532Y1152463D01*
X710463Y1154532D01*
X707537Y1154532D01*
X705468Y1152463D01*
X705468Y1149537D01*
X706757Y1148248D01*
X706920Y1148007D01*
X706980Y1147709D01*
X706980Y1138163D01*
X711353Y1133790D01*
X720508Y1133790D01*
X720783Y1133739D01*
X721038Y1133575D01*
X721210Y1133325D01*
X721270Y1133028D01*
X721270Y1129534D01*
X722014Y1128790D01*
G37*
G36*
X649230Y1137302D02*
X655008Y1137302D01*
X655008Y1144830D01*
X650718Y1144830D01*
X649230Y1143342D01*
X649230Y1137302D01*
G37*
G36*
X656532Y1137302D02*
X662310Y1137302D01*
X662310Y1143342D01*
X660822Y1144830D01*
X656532Y1144830D01*
X656532Y1137302D01*
G37*
G36*
X877860Y1133262D02*
X880888Y1133262D01*
X880888Y1136790D01*
X879348Y1136790D01*
X877860Y1135302D01*
X877860Y1133262D01*
G37*
G36*
X879348Y1128210D02*
X880888Y1128210D01*
X880888Y1131738D01*
X877860Y1131738D01*
X877860Y1129698D01*
X879348Y1128210D01*
G37*
G36*
X878212Y1102562D02*
X881240Y1102562D01*
X881240Y1104602D01*
X879752Y1106090D01*
X878212Y1106090D01*
X878212Y1102562D01*
G37*
G36*
X878212Y1097510D02*
X879752Y1097510D01*
X881240Y1098998D01*
X881240Y1101038D01*
X878212Y1101038D01*
X878212Y1097510D01*
G37*
G36*
X851478Y1086502D02*
X859098Y1086502D01*
X859098Y1096281D01*
X852966Y1096281D01*
X851478Y1094793D01*
X851478Y1086502D01*
G37*
G36*
X852966Y1075199D02*
X859098Y1075199D01*
X859098Y1084978D01*
X851478Y1084978D01*
X851478Y1076687D01*
X852966Y1075199D01*
G37*
%LPD*%
G36*
X574073Y1069122D02*
X573776Y1069062D01*
X551300Y1069062D01*
X551215Y1069067D01*
X536422Y1070733D01*
X536256Y1070771D01*
X522205Y1075688D01*
X522052Y1075762D01*
X509448Y1083682D01*
X509314Y1083788D01*
X498788Y1094314D01*
X498682Y1094448D01*
X490762Y1107052D01*
X490688Y1107205D01*
X485771Y1121256D01*
X485733Y1121422D01*
X484067Y1136215D01*
X484062Y1136300D01*
X484062Y1168776D01*
X484113Y1169051D01*
X484277Y1169306D01*
X484527Y1169478D01*
X484824Y1169538D01*
X552444Y1169538D01*
X554062Y1171156D01*
X554062Y1311444D01*
X552444Y1313062D01*
X531084Y1313062D01*
X530809Y1313113D01*
X530553Y1313277D01*
X530382Y1313527D01*
X530322Y1313824D01*
X530322Y1329068D01*
X530377Y1329354D01*
X530545Y1329606D01*
X533100Y1332162D01*
X533100Y1349618D01*
X533151Y1349893D01*
X533315Y1350148D01*
X533565Y1350320D01*
X533862Y1350380D01*
X536227Y1350380D01*
X537850Y1352003D01*
X537850Y1363617D01*
X537906Y1363903D01*
X538073Y1364156D01*
X538912Y1364995D01*
X539154Y1365158D01*
X539451Y1365218D01*
X540567Y1365218D01*
X542782Y1367433D01*
X542782Y1370567D01*
X540567Y1372782D01*
X537433Y1372782D01*
X535218Y1370567D01*
X535218Y1369451D01*
X535162Y1369165D01*
X534995Y1368912D01*
X532310Y1366227D01*
X532310Y1365532D01*
X532259Y1365257D01*
X532095Y1365002D01*
X531845Y1364830D01*
X531842Y1364830D01*
X531842Y1360388D01*
X530318Y1360388D01*
X530318Y1364770D01*
X529294Y1364770D01*
X529019Y1364821D01*
X528764Y1364985D01*
X528592Y1365235D01*
X528532Y1365532D01*
X528532Y1368063D01*
X526463Y1370132D01*
X523537Y1370132D01*
X522739Y1369334D01*
X522508Y1369176D01*
X522212Y1369111D01*
X521914Y1369166D01*
X521661Y1369334D01*
X520463Y1370532D01*
X517537Y1370532D01*
X515716Y1368711D01*
X515485Y1368553D01*
X515189Y1368488D01*
X514891Y1368543D01*
X514638Y1368711D01*
X512567Y1370782D01*
X509433Y1370782D01*
X507218Y1368567D01*
X507218Y1365433D01*
X508007Y1364645D01*
X508170Y1364403D01*
X508230Y1364106D01*
X508230Y1356682D01*
X508179Y1356407D01*
X508015Y1356152D01*
X507765Y1355980D01*
X507468Y1355920D01*
X504119Y1355920D01*
X503845Y1355971D01*
X503589Y1356135D01*
X503418Y1356385D01*
X503357Y1356682D01*
X503357Y1359635D01*
X503409Y1359909D01*
X503572Y1360165D01*
X503822Y1360336D01*
X504119Y1360397D01*
X504613Y1360397D01*
X505357Y1361141D01*
X505357Y1368193D01*
X505320Y1368230D01*
X505162Y1368460D01*
X505097Y1368756D01*
X505153Y1369055D01*
X505320Y1369307D01*
X506627Y1370615D01*
X506627Y1372706D01*
X506679Y1372981D01*
X506842Y1373236D01*
X507092Y1373408D01*
X507389Y1373468D01*
X510463Y1373468D01*
X511602Y1374607D01*
X511843Y1374770D01*
X512141Y1374830D01*
X513608Y1374830D01*
X513894Y1374774D01*
X514147Y1374607D01*
X514424Y1374330D01*
X518976Y1374330D01*
X519720Y1375074D01*
X519720Y1378626D01*
X519285Y1379061D01*
X519127Y1379292D01*
X519062Y1379588D01*
X519117Y1379886D01*
X519285Y1380139D01*
X519720Y1380574D01*
X519720Y1383133D01*
X519769Y1383402D01*
X519930Y1383659D01*
X520179Y1383832D01*
X520476Y1383895D01*
X520774Y1383837D01*
X524581Y1382260D01*
X528234Y1382260D01*
X528497Y1382213D01*
X528755Y1382054D01*
X528926Y1381813D01*
X528953Y1381962D01*
X529118Y1382217D01*
X529370Y1382386D01*
X533207Y1383976D01*
X534329Y1385098D01*
X534549Y1385251D01*
X534844Y1385320D01*
X535143Y1385270D01*
X535398Y1385106D01*
X535570Y1384856D01*
X535630Y1384559D01*
X535630Y1383458D01*
X536245Y1381974D01*
X536303Y1381706D01*
X536252Y1381407D01*
X536088Y1381152D01*
X535838Y1380980D01*
X535541Y1380920D01*
X534234Y1380920D01*
X533799Y1380485D01*
X533568Y1380327D01*
X533272Y1380262D01*
X532974Y1380317D01*
X532721Y1380485D01*
X532286Y1380920D01*
X529661Y1380920D01*
X529404Y1380965D01*
X529144Y1381122D01*
X528969Y1381365D01*
X528940Y1381212D01*
X528773Y1380959D01*
X527957Y1380143D01*
X527715Y1379980D01*
X527418Y1379920D01*
X526063Y1379920D01*
X525898Y1379755D01*
X525657Y1379592D01*
X525360Y1379532D01*
X523537Y1379532D01*
X521468Y1377463D01*
X521468Y1374537D01*
X523537Y1372468D01*
X526463Y1372468D01*
X528652Y1374657D01*
X528893Y1374820D01*
X529191Y1374880D01*
X532286Y1374880D01*
X532721Y1375315D01*
X532951Y1375473D01*
X533248Y1375538D01*
X533546Y1375483D01*
X533799Y1375315D01*
X534234Y1374880D01*
X537786Y1374880D01*
X538530Y1375624D01*
X538530Y1375838D01*
X538634Y1376223D01*
X538836Y1376449D01*
X539111Y1376579D01*
X539475Y1376668D01*
X539644Y1376690D01*
X539942Y1376634D01*
X540195Y1376466D01*
X540516Y1376146D01*
X544658Y1374430D01*
X548748Y1374430D01*
X549034Y1374374D01*
X549286Y1374207D01*
X551107Y1372386D01*
X551270Y1372145D01*
X551330Y1371848D01*
X551330Y1370224D01*
X552074Y1369480D01*
X555626Y1369480D01*
X556061Y1369915D01*
X556292Y1370073D01*
X556588Y1370138D01*
X556886Y1370083D01*
X557139Y1369915D01*
X557574Y1369480D01*
X561126Y1369480D01*
X561153Y1369507D01*
X561394Y1369670D01*
X561692Y1369730D01*
X562239Y1369730D01*
X562525Y1369674D01*
X562777Y1369507D01*
X564451Y1367833D01*
X564604Y1367613D01*
X564674Y1367318D01*
X564623Y1367019D01*
X564460Y1366764D01*
X564210Y1366592D01*
X563913Y1366532D01*
X563701Y1366532D01*
X563415Y1366588D01*
X563162Y1366755D01*
X563147Y1366770D01*
X551082Y1366770D01*
X549909Y1365598D01*
X549668Y1365435D01*
X549370Y1365374D01*
X544686Y1365374D01*
X544659Y1365348D01*
X544418Y1365185D01*
X544120Y1365124D01*
X543557Y1365124D01*
X542813Y1364380D01*
X542813Y1360992D01*
X542758Y1360706D01*
X542590Y1360453D01*
X541543Y1359406D01*
X541543Y1357866D01*
X546595Y1357866D01*
X546595Y1353314D01*
X548635Y1353314D01*
X550088Y1354767D01*
X550308Y1354920D01*
X550603Y1354990D01*
X550902Y1354939D01*
X551157Y1354776D01*
X551329Y1354526D01*
X551389Y1354228D01*
X551389Y1351597D01*
X551426Y1351560D01*
X551584Y1351330D01*
X551649Y1351034D01*
X551594Y1350736D01*
X551426Y1350483D01*
X550119Y1349176D01*
X550119Y1345885D01*
X556921Y1345885D01*
X556921Y1339583D01*
X560711Y1339583D01*
X562223Y1341096D01*
X562443Y1341249D01*
X562738Y1341319D01*
X563037Y1341268D01*
X563292Y1341104D01*
X563464Y1340854D01*
X563524Y1340557D01*
X563524Y1336912D01*
X563471Y1336632D01*
X563305Y1336378D01*
X563054Y1336208D01*
X559910Y1334906D01*
X556740Y1331736D01*
X555024Y1327594D01*
X555024Y1323110D01*
X556740Y1318968D01*
X559910Y1315798D01*
X564053Y1314082D01*
X568536Y1314082D01*
X572678Y1315798D01*
X575849Y1318968D01*
X577564Y1323110D01*
X577564Y1327594D01*
X575849Y1331736D01*
X572678Y1334906D01*
X569535Y1336208D01*
X569296Y1336365D01*
X569125Y1336615D01*
X569064Y1336912D01*
X569064Y1348500D01*
X561797Y1355767D01*
X561639Y1355997D01*
X561574Y1356293D01*
X561630Y1356591D01*
X561797Y1356844D01*
X564198Y1359245D01*
X564327Y1359332D01*
X566532Y1361537D01*
X566532Y1363913D01*
X566579Y1364176D01*
X566738Y1364434D01*
X566986Y1364609D01*
X567282Y1364675D01*
X567580Y1364619D01*
X567833Y1364451D01*
X569674Y1362611D01*
X569834Y1362375D01*
X569897Y1362078D01*
X569839Y1361780D01*
X568537Y1358637D01*
X568537Y1354153D01*
X570253Y1350011D01*
X573423Y1346841D01*
X577565Y1345125D01*
X582049Y1345125D01*
X586191Y1346841D01*
X586257Y1346907D01*
X586499Y1347070D01*
X586796Y1347130D01*
X587537Y1347130D01*
X587823Y1347074D01*
X588076Y1346907D01*
X590007Y1344976D01*
X590170Y1344734D01*
X590230Y1344437D01*
X590230Y1342544D01*
X590179Y1342269D01*
X590015Y1342014D01*
X589765Y1341842D01*
X589468Y1341782D01*
X588433Y1341782D01*
X586218Y1339567D01*
X586218Y1336433D01*
X588433Y1334218D01*
X591567Y1334218D01*
X593782Y1336433D01*
X593782Y1337549D01*
X593838Y1337835D01*
X594005Y1338088D01*
X595770Y1339853D01*
X595770Y1344373D01*
X595817Y1344636D01*
X595976Y1344894D01*
X596224Y1345070D01*
X596520Y1345135D01*
X596818Y1345079D01*
X597071Y1344912D01*
X598007Y1343976D01*
X598170Y1343734D01*
X598230Y1343437D01*
X598230Y1335853D01*
X602853Y1331230D01*
X606106Y1331230D01*
X606392Y1331174D01*
X606645Y1331007D01*
X607433Y1330218D01*
X610567Y1330218D01*
X612782Y1332433D01*
X612782Y1333522D01*
X612829Y1333785D01*
X612988Y1334043D01*
X613236Y1334218D01*
X613532Y1334284D01*
X613830Y1334228D01*
X614083Y1334060D01*
X629995Y1318148D01*
X630158Y1317907D01*
X630218Y1317610D01*
X630218Y1315433D01*
X631303Y1314348D01*
X631461Y1314118D01*
X631526Y1313822D01*
X631471Y1313523D01*
X631303Y1313271D01*
X631126Y1313093D01*
X630884Y1312930D01*
X630587Y1312870D01*
X630024Y1312870D01*
X629280Y1312126D01*
X629280Y1308738D01*
X629224Y1308452D01*
X629057Y1308199D01*
X628010Y1307152D01*
X628010Y1305612D01*
X633062Y1305612D01*
X633062Y1304088D01*
X628010Y1304088D01*
X628010Y1302548D01*
X628237Y1302321D01*
X628390Y1302101D01*
X628460Y1301806D01*
X628409Y1301507D01*
X628246Y1301252D01*
X627996Y1301080D01*
X627698Y1301020D01*
X620152Y1301020D01*
X619866Y1301076D01*
X619614Y1301243D01*
X618940Y1301917D01*
X618787Y1302137D01*
X618717Y1302432D01*
X618768Y1302731D01*
X618931Y1302986D01*
X619181Y1303158D01*
X619478Y1303218D01*
X621567Y1303218D01*
X623782Y1305433D01*
X623782Y1308567D01*
X621567Y1310782D01*
X621390Y1310782D01*
X621104Y1310838D01*
X620852Y1311005D01*
X608005Y1323852D01*
X607842Y1324093D01*
X607782Y1324390D01*
X607782Y1326567D01*
X605567Y1328782D01*
X602433Y1328782D01*
X600218Y1326567D01*
X600218Y1323433D01*
X602433Y1321218D01*
X604610Y1321218D01*
X604896Y1321162D01*
X605148Y1320995D01*
X616359Y1309785D01*
X616517Y1309554D01*
X616582Y1309258D01*
X616526Y1308960D01*
X616359Y1308707D01*
X616218Y1308567D01*
X616218Y1305782D01*
X616167Y1305507D01*
X616003Y1305252D01*
X615753Y1305080D01*
X615456Y1305020D01*
X603150Y1305020D01*
X596691Y1298561D01*
X596471Y1298408D01*
X596176Y1298338D01*
X595877Y1298389D01*
X595622Y1298552D01*
X595450Y1298802D01*
X595390Y1299100D01*
X595390Y1299516D01*
X594646Y1300260D01*
X586594Y1300260D01*
X585850Y1299516D01*
X585850Y1295434D01*
X585943Y1295298D01*
X586008Y1295002D01*
X585953Y1294704D01*
X585850Y1294549D01*
X585850Y1290434D01*
X585943Y1290298D01*
X586008Y1290002D01*
X585953Y1289704D01*
X585850Y1289549D01*
X585850Y1285434D01*
X585943Y1285298D01*
X586008Y1285002D01*
X585953Y1284704D01*
X585850Y1284549D01*
X585850Y1280434D01*
X585943Y1280298D01*
X586008Y1280002D01*
X585953Y1279704D01*
X585850Y1279549D01*
X585850Y1275434D01*
X585943Y1275298D01*
X586008Y1275002D01*
X585953Y1274704D01*
X585850Y1274549D01*
X585850Y1270434D01*
X585943Y1270298D01*
X586008Y1270002D01*
X585953Y1269704D01*
X585850Y1269549D01*
X585850Y1266628D01*
X585794Y1266342D01*
X585627Y1266089D01*
X584580Y1265042D01*
X584580Y1263252D01*
X596660Y1263252D01*
X596660Y1265042D01*
X595613Y1266089D01*
X595450Y1266331D01*
X595390Y1266628D01*
X595390Y1269546D01*
X595297Y1269682D01*
X595232Y1269978D01*
X595287Y1270276D01*
X595390Y1270431D01*
X595390Y1274708D01*
X595441Y1274983D01*
X595605Y1275238D01*
X595855Y1275410D01*
X596152Y1275470D01*
X616068Y1275470D01*
X616343Y1275419D01*
X616598Y1275255D01*
X616770Y1275005D01*
X616830Y1274708D01*
X616830Y1271574D01*
X617574Y1270830D01*
X624626Y1270830D01*
X624663Y1270867D01*
X624894Y1271025D01*
X625190Y1271090D01*
X625488Y1271035D01*
X625741Y1270867D01*
X627048Y1269560D01*
X630338Y1269560D01*
X630338Y1276362D01*
X636640Y1276362D01*
X636640Y1280152D01*
X636131Y1280661D01*
X635973Y1280892D01*
X635908Y1281188D01*
X635963Y1281486D01*
X636131Y1281739D01*
X636340Y1281948D01*
X636340Y1285738D01*
X630038Y1285738D01*
X630038Y1292540D01*
X626748Y1292540D01*
X625441Y1291233D01*
X625210Y1291075D01*
X624914Y1291010D01*
X624616Y1291065D01*
X624363Y1291233D01*
X624326Y1291270D01*
X617274Y1291270D01*
X616530Y1290526D01*
X616530Y1285402D01*
X616474Y1285116D01*
X616307Y1284864D01*
X616083Y1284640D01*
X615863Y1284487D01*
X615568Y1284417D01*
X615269Y1284468D01*
X615014Y1284631D01*
X614842Y1284881D01*
X614782Y1285178D01*
X614782Y1288835D01*
X614770Y1288894D01*
X614770Y1295147D01*
X612005Y1297912D01*
X611842Y1298154D01*
X611782Y1298451D01*
X611782Y1299567D01*
X611669Y1299679D01*
X611516Y1299899D01*
X611447Y1300194D01*
X611497Y1300493D01*
X611661Y1300748D01*
X611911Y1300920D01*
X612208Y1300980D01*
X613848Y1300980D01*
X614134Y1300924D01*
X614386Y1300757D01*
X618163Y1296980D01*
X629848Y1296980D01*
X630134Y1296924D01*
X630386Y1296757D01*
X633302Y1293841D01*
X633455Y1293621D01*
X633525Y1293326D01*
X633474Y1293027D01*
X633311Y1292772D01*
X633061Y1292600D01*
X632764Y1292540D01*
X631562Y1292540D01*
X631562Y1287262D01*
X636340Y1287262D01*
X636340Y1288964D01*
X636387Y1289227D01*
X636546Y1289485D01*
X636794Y1289660D01*
X637090Y1289726D01*
X637388Y1289670D01*
X637641Y1289502D01*
X640757Y1286386D01*
X640920Y1286145D01*
X640980Y1285848D01*
X640980Y1163152D01*
X640924Y1162866D01*
X640757Y1162614D01*
X631241Y1153098D01*
X631021Y1152945D01*
X630726Y1152875D01*
X630427Y1152926D01*
X630172Y1153089D01*
X630000Y1153339D01*
X629960Y1153538D01*
X625162Y1153538D01*
X625162Y1148260D01*
X628452Y1148260D01*
X629679Y1149487D01*
X629899Y1149640D01*
X630194Y1149710D01*
X630493Y1149659D01*
X630748Y1149496D01*
X630920Y1149246D01*
X630980Y1148948D01*
X630980Y1143163D01*
X649493Y1124650D01*
X687256Y1124650D01*
X687519Y1124603D01*
X687777Y1124444D01*
X687952Y1124196D01*
X688018Y1123900D01*
X687962Y1123602D01*
X687794Y1123349D01*
X678438Y1113993D01*
X678197Y1113830D01*
X677900Y1113770D01*
X670541Y1113770D01*
X670255Y1113826D01*
X670002Y1113993D01*
X669463Y1114532D01*
X666537Y1114532D01*
X664468Y1112463D01*
X664468Y1109537D01*
X666537Y1107468D01*
X669463Y1107468D01*
X670002Y1108007D01*
X670243Y1108170D01*
X670541Y1108230D01*
X680510Y1108230D01*
X688609Y1116329D01*
X688829Y1116482D01*
X689124Y1116552D01*
X689423Y1116501D01*
X689678Y1116338D01*
X689850Y1116088D01*
X689889Y1115895D01*
X690654Y1115130D01*
X691810Y1115130D01*
X692085Y1115079D01*
X692340Y1114915D01*
X692512Y1114665D01*
X692572Y1114368D01*
X692572Y1103162D01*
X692521Y1102887D01*
X692357Y1102632D01*
X692107Y1102460D01*
X691810Y1102400D01*
X687062Y1102400D01*
X686318Y1101656D01*
X686318Y1089936D01*
X686730Y1089524D01*
X686893Y1089283D01*
X686953Y1088985D01*
X686953Y1087824D01*
X686902Y1087549D01*
X686738Y1087294D01*
X686488Y1087122D01*
X686191Y1087062D01*
X686156Y1087062D01*
X684538Y1085444D01*
X684538Y1069824D01*
X684487Y1069549D01*
X684323Y1069294D01*
X684073Y1069122D01*
X683776Y1069062D01*
X628824Y1069062D01*
X628549Y1069113D01*
X628294Y1069277D01*
X628122Y1069527D01*
X628062Y1069824D01*
X628062Y1085444D01*
X626450Y1087056D01*
X626287Y1087297D01*
X626227Y1087595D01*
X626227Y1088185D01*
X626283Y1088471D01*
X626450Y1088724D01*
X626862Y1089136D01*
X626862Y1100856D01*
X626118Y1101600D01*
X622640Y1101600D01*
X622365Y1101651D01*
X622110Y1101815D01*
X621938Y1102065D01*
X621878Y1102362D01*
X621878Y1107759D01*
X615020Y1107759D01*
X615020Y1116522D01*
X611174Y1116522D01*
X610898Y1116246D01*
X610668Y1116088D01*
X610372Y1116023D01*
X610074Y1116079D01*
X609821Y1116246D01*
X609291Y1116776D01*
X594269Y1116776D01*
X593525Y1116032D01*
X593525Y1115427D01*
X593478Y1115163D01*
X593319Y1114905D01*
X593071Y1114730D01*
X592775Y1114665D01*
X592477Y1114720D01*
X592224Y1114888D01*
X591860Y1115252D01*
X589882Y1115252D01*
X589607Y1115303D01*
X589352Y1115467D01*
X589180Y1115717D01*
X589120Y1116014D01*
X589120Y1116758D01*
X589176Y1117044D01*
X589343Y1117297D01*
X590120Y1118074D01*
X590120Y1121462D01*
X590176Y1121748D01*
X590343Y1122001D01*
X591390Y1123048D01*
X591390Y1124588D01*
X586338Y1124588D01*
X586338Y1129140D01*
X584298Y1129140D01*
X583301Y1128143D01*
X583060Y1127980D01*
X582762Y1127920D01*
X572003Y1127920D01*
X564300Y1120217D01*
X564300Y1110874D01*
X564244Y1110588D01*
X564077Y1110335D01*
X558665Y1104923D01*
X558424Y1104760D01*
X558127Y1104700D01*
X550474Y1104700D01*
X550188Y1104756D01*
X550166Y1104770D01*
X533902Y1104770D01*
X533627Y1104821D01*
X533372Y1104985D01*
X533200Y1105235D01*
X533140Y1105532D01*
X533140Y1106738D01*
X528588Y1106738D01*
X528588Y1111790D01*
X527048Y1111790D01*
X526871Y1111613D01*
X526651Y1111460D01*
X526356Y1111390D01*
X526057Y1111441D01*
X525802Y1111604D01*
X525630Y1111855D01*
X525570Y1112152D01*
X525570Y1119727D01*
X525617Y1119990D01*
X525776Y1120248D01*
X526024Y1120423D01*
X526320Y1120488D01*
X526618Y1120433D01*
X526698Y1120380D01*
X527148Y1120380D01*
X527434Y1120324D01*
X527686Y1120157D01*
X531163Y1116680D01*
X538429Y1116680D01*
X538709Y1116627D01*
X538964Y1116461D01*
X539133Y1116210D01*
X540746Y1112316D01*
X543916Y1109146D01*
X548058Y1107430D01*
X552542Y1107430D01*
X556684Y1109146D01*
X559854Y1112316D01*
X561570Y1116458D01*
X561570Y1120942D01*
X559854Y1125084D01*
X556684Y1128254D01*
X552542Y1129970D01*
X548058Y1129970D01*
X543916Y1128254D01*
X540746Y1125084D01*
X539133Y1121190D01*
X538976Y1120952D01*
X538726Y1120780D01*
X538429Y1120720D01*
X533152Y1120720D01*
X532866Y1120776D01*
X532614Y1120943D01*
X530543Y1123014D01*
X530380Y1123255D01*
X530320Y1123552D01*
X530320Y1123944D01*
X530301Y1123963D01*
X530143Y1124194D01*
X530078Y1124490D01*
X530133Y1124788D01*
X530301Y1125041D01*
X531590Y1126330D01*
X531590Y1127138D01*
X527038Y1127138D01*
X527038Y1128662D01*
X531590Y1128662D01*
X531590Y1129470D01*
X531481Y1129579D01*
X531328Y1129799D01*
X531258Y1130094D01*
X531309Y1130393D01*
X531472Y1130648D01*
X531722Y1130820D01*
X532020Y1130880D01*
X534137Y1130880D01*
X539134Y1135878D01*
X539370Y1136038D01*
X539667Y1136101D01*
X539965Y1136043D01*
X543858Y1134430D01*
X548342Y1134430D01*
X552484Y1136146D01*
X555654Y1139316D01*
X557370Y1143458D01*
X557370Y1147942D01*
X555654Y1152084D01*
X552484Y1155254D01*
X548342Y1156970D01*
X543858Y1156970D01*
X539716Y1155254D01*
X536546Y1152084D01*
X534830Y1147942D01*
X534830Y1143458D01*
X536443Y1139565D01*
X536501Y1139285D01*
X536445Y1138987D01*
X536278Y1138734D01*
X532686Y1135143D01*
X532445Y1134980D01*
X532148Y1134920D01*
X529659Y1134920D01*
X529373Y1134976D01*
X529121Y1135143D01*
X528844Y1135420D01*
X526756Y1135420D01*
X526121Y1134785D01*
X525901Y1134632D01*
X525606Y1134562D01*
X525307Y1134613D01*
X525052Y1134776D01*
X524880Y1135026D01*
X524820Y1135323D01*
X524820Y1147087D01*
X523893Y1148014D01*
X523730Y1148255D01*
X523670Y1148552D01*
X523670Y1150176D01*
X522926Y1150920D01*
X519538Y1150920D01*
X519252Y1150976D01*
X518999Y1151143D01*
X517952Y1152190D01*
X516412Y1152190D01*
X516412Y1143610D01*
X517952Y1143610D01*
X518999Y1144657D01*
X519241Y1144820D01*
X519538Y1144880D01*
X520018Y1144880D01*
X520293Y1144829D01*
X520548Y1144665D01*
X520720Y1144415D01*
X520780Y1144118D01*
X520780Y1135323D01*
X520733Y1135060D01*
X520574Y1134802D01*
X520326Y1134627D01*
X520030Y1134562D01*
X519732Y1134617D01*
X519479Y1134785D01*
X518844Y1135420D01*
X516756Y1135420D01*
X515280Y1133944D01*
X515280Y1131856D01*
X515299Y1131837D01*
X515457Y1131606D01*
X515522Y1131310D01*
X515467Y1131012D01*
X515299Y1130759D01*
X514010Y1129470D01*
X514010Y1128662D01*
X518562Y1128662D01*
X518562Y1127138D01*
X514010Y1127138D01*
X514010Y1126330D01*
X515299Y1125041D01*
X515457Y1124810D01*
X515522Y1124514D01*
X515467Y1124216D01*
X515299Y1123963D01*
X515280Y1123944D01*
X515280Y1121856D01*
X516756Y1120380D01*
X518894Y1120380D01*
X518949Y1120418D01*
X519244Y1120488D01*
X519543Y1120437D01*
X519798Y1120274D01*
X519970Y1120024D01*
X520030Y1119727D01*
X520030Y1104053D01*
X524853Y1099230D01*
X547478Y1099230D01*
X547763Y1099174D01*
X547785Y1099160D01*
X569077Y1099160D01*
X569912Y1099995D01*
X570154Y1100158D01*
X570451Y1100218D01*
X571567Y1100218D01*
X573782Y1102433D01*
X573782Y1105567D01*
X571567Y1107782D01*
X570602Y1107782D01*
X570327Y1107833D01*
X570072Y1107997D01*
X569900Y1108247D01*
X569840Y1108544D01*
X569840Y1117607D01*
X569896Y1117893D01*
X570063Y1118146D01*
X574074Y1122157D01*
X574316Y1122320D01*
X574613Y1122380D01*
X577518Y1122380D01*
X577793Y1122329D01*
X578048Y1122165D01*
X578220Y1121915D01*
X578280Y1121618D01*
X578280Y1117874D01*
X579024Y1117130D01*
X583576Y1117130D01*
X583761Y1117315D01*
X583992Y1117473D01*
X584288Y1117538D01*
X584586Y1117483D01*
X584839Y1117315D01*
X584857Y1117297D01*
X585020Y1117056D01*
X585080Y1116758D01*
X585080Y1116014D01*
X585029Y1115739D01*
X584865Y1115484D01*
X584615Y1115312D01*
X584318Y1115252D01*
X583696Y1115252D01*
X582952Y1114508D01*
X582952Y1102362D01*
X582901Y1102087D01*
X582737Y1101832D01*
X582487Y1101660D01*
X582190Y1101600D01*
X577442Y1101600D01*
X576698Y1100856D01*
X576698Y1089136D01*
X577110Y1088724D01*
X577273Y1088483D01*
X577333Y1088185D01*
X577333Y1087824D01*
X577282Y1087549D01*
X577118Y1087294D01*
X576868Y1087122D01*
X576571Y1087062D01*
X576156Y1087062D01*
X574538Y1085444D01*
X574538Y1069824D01*
X574487Y1069549D01*
X574323Y1069294D01*
X574073Y1069122D01*
G37*
%LPC*%
G36*
X543031Y1353314D02*
X545071Y1353314D01*
X545071Y1356342D01*
X541543Y1356342D01*
X541543Y1354802D01*
X543031Y1353314D01*
G37*
G36*
X551607Y1339583D02*
X555397Y1339583D01*
X555397Y1344361D01*
X550119Y1344361D01*
X550119Y1341071D01*
X551607Y1339583D01*
G37*
G36*
X556580Y1306152D02*
X563358Y1306152D01*
X563358Y1309430D01*
X558068Y1309430D01*
X556580Y1307942D01*
X556580Y1306152D01*
G37*
G36*
X564882Y1306152D02*
X571660Y1306152D01*
X571660Y1307942D01*
X570172Y1309430D01*
X564882Y1309430D01*
X564882Y1306152D01*
G37*
G36*
X564882Y1301350D02*
X570172Y1301350D01*
X571660Y1302838D01*
X571660Y1304628D01*
X564882Y1304628D01*
X564882Y1301350D01*
G37*
G36*
X558068Y1301350D02*
X563358Y1301350D01*
X563358Y1304628D01*
X556580Y1304628D01*
X556580Y1302838D01*
X558068Y1301350D01*
G37*
G36*
X631862Y1269560D02*
X635152Y1269560D01*
X636640Y1271048D01*
X636640Y1274838D01*
X631862Y1274838D01*
X631862Y1269560D01*
G37*
G36*
X584580Y1218252D02*
X596660Y1218252D01*
X596660Y1220042D01*
X596573Y1220129D01*
X596415Y1220359D01*
X596350Y1220656D01*
X596406Y1220954D01*
X596573Y1221207D01*
X609020Y1233653D01*
X609020Y1245798D01*
X609076Y1246084D01*
X609243Y1246336D01*
X610364Y1247457D01*
X610605Y1247620D01*
X610902Y1247680D01*
X613076Y1247680D01*
X613503Y1248107D01*
X613744Y1248270D01*
X614042Y1248330D01*
X615187Y1248330D01*
X620102Y1253245D01*
X620343Y1253408D01*
X620640Y1253468D01*
X622463Y1253468D01*
X624532Y1255537D01*
X624532Y1258463D01*
X622463Y1260532D01*
X619537Y1260532D01*
X617468Y1258463D01*
X617468Y1256640D01*
X617412Y1256354D01*
X617245Y1256102D01*
X616391Y1255248D01*
X616171Y1255095D01*
X615876Y1255025D01*
X615577Y1255076D01*
X615471Y1255144D01*
X615471Y1254688D01*
X605710Y1254688D01*
X605710Y1252998D01*
X606757Y1251951D01*
X606920Y1251710D01*
X606980Y1251412D01*
X606980Y1250102D01*
X606924Y1249816D01*
X606757Y1249564D01*
X604980Y1247787D01*
X604980Y1235642D01*
X604924Y1235356D01*
X604757Y1235104D01*
X599386Y1229733D01*
X599145Y1229570D01*
X598848Y1229510D01*
X596152Y1229510D01*
X595877Y1229561D01*
X595622Y1229725D01*
X595450Y1229975D01*
X595390Y1230272D01*
X595390Y1234546D01*
X595297Y1234682D01*
X595232Y1234978D01*
X595287Y1235276D01*
X595390Y1235431D01*
X595390Y1239546D01*
X595297Y1239682D01*
X595232Y1239978D01*
X595287Y1240276D01*
X595390Y1240431D01*
X595390Y1244546D01*
X595297Y1244682D01*
X595232Y1244978D01*
X595287Y1245276D01*
X595390Y1245431D01*
X595390Y1249546D01*
X595297Y1249682D01*
X595232Y1249978D01*
X595287Y1250276D01*
X595390Y1250431D01*
X595390Y1254546D01*
X595297Y1254682D01*
X595232Y1254978D01*
X595287Y1255276D01*
X595390Y1255431D01*
X595390Y1258352D01*
X595446Y1258638D01*
X595613Y1258891D01*
X596660Y1259938D01*
X596660Y1261728D01*
X584580Y1261728D01*
X584580Y1259938D01*
X585627Y1258891D01*
X585790Y1258650D01*
X585850Y1258352D01*
X585850Y1255434D01*
X585943Y1255298D01*
X586008Y1255002D01*
X585953Y1254704D01*
X585850Y1254549D01*
X585850Y1250434D01*
X585943Y1250298D01*
X586008Y1250002D01*
X585953Y1249704D01*
X585850Y1249549D01*
X585850Y1245434D01*
X585943Y1245298D01*
X586008Y1245002D01*
X585953Y1244704D01*
X585850Y1244549D01*
X585850Y1240434D01*
X585943Y1240298D01*
X586008Y1240002D01*
X585953Y1239704D01*
X585850Y1239549D01*
X585850Y1235434D01*
X585943Y1235298D01*
X586008Y1235002D01*
X585953Y1234704D01*
X585850Y1234549D01*
X585850Y1230434D01*
X585943Y1230298D01*
X586008Y1230002D01*
X585953Y1229704D01*
X585850Y1229549D01*
X585850Y1225434D01*
X585943Y1225298D01*
X586008Y1225002D01*
X585953Y1224704D01*
X585850Y1224549D01*
X585850Y1221628D01*
X585794Y1221342D01*
X585627Y1221089D01*
X584580Y1220042D01*
X584580Y1218252D01*
G37*
G36*
X605710Y1256212D02*
X609638Y1256212D01*
X609638Y1259390D01*
X607198Y1259390D01*
X605710Y1257902D01*
X605710Y1256212D01*
G37*
G36*
X611162Y1256212D02*
X615090Y1256212D01*
X615090Y1257902D01*
X613602Y1259390D01*
X611162Y1259390D01*
X611162Y1256212D01*
G37*
G36*
X632062Y1241262D02*
X636840Y1241262D01*
X636840Y1245052D01*
X635352Y1246540D01*
X632062Y1246540D01*
X632062Y1241262D01*
G37*
G36*
X620348Y1148260D02*
X623638Y1148260D01*
X623638Y1160340D01*
X620348Y1160340D01*
X619041Y1159033D01*
X618810Y1158875D01*
X618514Y1158810D01*
X618216Y1158865D01*
X617963Y1159033D01*
X617926Y1159070D01*
X610874Y1159070D01*
X609924Y1158120D01*
X609694Y1157962D01*
X609398Y1157897D01*
X609099Y1157953D01*
X608847Y1158120D01*
X592863Y1174104D01*
X592700Y1174345D01*
X592640Y1174642D01*
X592640Y1178958D01*
X592691Y1179233D01*
X592855Y1179488D01*
X593105Y1179660D01*
X593402Y1179720D01*
X594646Y1179720D01*
X595390Y1180464D01*
X595390Y1180880D01*
X595437Y1181144D01*
X595596Y1181402D01*
X595844Y1181577D01*
X596140Y1181642D01*
X596438Y1181587D01*
X596691Y1181419D01*
X605130Y1172980D01*
X608709Y1172980D01*
X608995Y1172924D01*
X609248Y1172757D01*
X610537Y1171468D01*
X612360Y1171468D01*
X612646Y1171412D01*
X612898Y1171245D01*
X617007Y1167136D01*
X617170Y1166895D01*
X617230Y1166598D01*
X617230Y1164074D01*
X617974Y1163330D01*
X625026Y1163330D01*
X625063Y1163367D01*
X625294Y1163525D01*
X625590Y1163590D01*
X625888Y1163535D01*
X626141Y1163367D01*
X627448Y1162060D01*
X630738Y1162060D01*
X630738Y1174140D01*
X627448Y1174140D01*
X626141Y1172833D01*
X625910Y1172675D01*
X625614Y1172610D01*
X625316Y1172665D01*
X625063Y1172833D01*
X625026Y1172870D01*
X617953Y1172870D01*
X617789Y1172757D01*
X617493Y1172692D01*
X617194Y1172748D01*
X616942Y1172915D01*
X615755Y1174102D01*
X615592Y1174343D01*
X615532Y1174640D01*
X615532Y1176463D01*
X613463Y1178532D01*
X610537Y1178532D01*
X609248Y1177243D01*
X609007Y1177080D01*
X608709Y1177020D01*
X607119Y1177020D01*
X606833Y1177076D01*
X606580Y1177243D01*
X604044Y1179779D01*
X603891Y1179999D01*
X603821Y1180294D01*
X603872Y1180593D01*
X604036Y1180848D01*
X604286Y1181020D01*
X604583Y1181080D01*
X616468Y1181080D01*
X616743Y1181029D01*
X616998Y1180865D01*
X617170Y1180615D01*
X617230Y1180318D01*
X617230Y1179074D01*
X617974Y1178330D01*
X625026Y1178330D01*
X625063Y1178367D01*
X625294Y1178525D01*
X625590Y1178590D01*
X625888Y1178535D01*
X626141Y1178367D01*
X627448Y1177060D01*
X630738Y1177060D01*
X630738Y1189140D01*
X627448Y1189140D01*
X626141Y1187833D01*
X625910Y1187675D01*
X625614Y1187610D01*
X625316Y1187665D01*
X625063Y1187833D01*
X625026Y1187870D01*
X617974Y1187870D01*
X617230Y1187126D01*
X617230Y1185882D01*
X617179Y1185607D01*
X617015Y1185352D01*
X616765Y1185180D01*
X616468Y1185120D01*
X604019Y1185120D01*
X603733Y1185176D01*
X603480Y1185343D01*
X595613Y1193210D01*
X595450Y1193452D01*
X595390Y1193749D01*
X595390Y1194708D01*
X595441Y1194983D01*
X595605Y1195238D01*
X595855Y1195410D01*
X596152Y1195470D01*
X605358Y1195470D01*
X605644Y1195414D01*
X605896Y1195247D01*
X606245Y1194898D01*
X606408Y1194657D01*
X606468Y1194360D01*
X606468Y1192537D01*
X608537Y1190468D01*
X611463Y1190468D01*
X613532Y1192537D01*
X613532Y1194708D01*
X613583Y1194983D01*
X613747Y1195238D01*
X613997Y1195410D01*
X614294Y1195470D01*
X616168Y1195470D01*
X616443Y1195419D01*
X616698Y1195255D01*
X616870Y1195005D01*
X616930Y1194708D01*
X616930Y1193274D01*
X617674Y1192530D01*
X624726Y1192530D01*
X624763Y1192567D01*
X624994Y1192725D01*
X625290Y1192790D01*
X625588Y1192735D01*
X625841Y1192567D01*
X627148Y1191260D01*
X630438Y1191260D01*
X630438Y1203340D01*
X627148Y1203340D01*
X625841Y1202033D01*
X625610Y1201875D01*
X625314Y1201810D01*
X625016Y1201865D01*
X624763Y1202033D01*
X624726Y1202070D01*
X617674Y1202070D01*
X616930Y1201326D01*
X616930Y1200272D01*
X616879Y1199997D01*
X616715Y1199742D01*
X616465Y1199570D01*
X616168Y1199510D01*
X596152Y1199510D01*
X595877Y1199561D01*
X595622Y1199725D01*
X595450Y1199975D01*
X595390Y1200272D01*
X595390Y1200708D01*
X595441Y1200983D01*
X595605Y1201238D01*
X595855Y1201410D01*
X596152Y1201470D01*
X613127Y1201470D01*
X618542Y1206885D01*
X618772Y1207043D01*
X619068Y1207108D01*
X619366Y1207052D01*
X619619Y1206885D01*
X619774Y1206730D01*
X626826Y1206730D01*
X626863Y1206767D01*
X627094Y1206925D01*
X627390Y1206990D01*
X627688Y1206935D01*
X627941Y1206767D01*
X629248Y1205460D01*
X632538Y1205460D01*
X632538Y1217540D01*
X629248Y1217540D01*
X627941Y1216233D01*
X627710Y1216075D01*
X627414Y1216010D01*
X627116Y1216065D01*
X626863Y1216233D01*
X626826Y1216270D01*
X619774Y1216270D01*
X619030Y1215526D01*
X619030Y1213402D01*
X618974Y1213116D01*
X618807Y1212864D01*
X611676Y1205733D01*
X611435Y1205570D01*
X611138Y1205510D01*
X606306Y1205510D01*
X606043Y1205557D01*
X605785Y1205716D01*
X605610Y1205964D01*
X605544Y1206260D01*
X605600Y1206558D01*
X605768Y1206811D01*
X619264Y1220307D01*
X619505Y1220470D01*
X619802Y1220530D01*
X624926Y1220530D01*
X624963Y1220567D01*
X625194Y1220725D01*
X625490Y1220790D01*
X625788Y1220735D01*
X626041Y1220567D01*
X627348Y1219260D01*
X630638Y1219260D01*
X630638Y1231340D01*
X627348Y1231340D01*
X626041Y1230033D01*
X625810Y1229875D01*
X625514Y1229810D01*
X625216Y1229865D01*
X624963Y1230033D01*
X624926Y1230070D01*
X617874Y1230070D01*
X617130Y1229326D01*
X617130Y1224202D01*
X617074Y1223916D01*
X616907Y1223664D01*
X602976Y1209733D01*
X602735Y1209570D01*
X602438Y1209510D01*
X600206Y1209510D01*
X599943Y1209557D01*
X599685Y1209716D01*
X599510Y1209964D01*
X599444Y1210260D01*
X599500Y1210558D01*
X599668Y1210811D01*
X610020Y1221163D01*
X610020Y1226048D01*
X610076Y1226334D01*
X610243Y1226586D01*
X619164Y1235507D01*
X619405Y1235670D01*
X619702Y1235730D01*
X624826Y1235730D01*
X624863Y1235767D01*
X625094Y1235925D01*
X625390Y1235990D01*
X625688Y1235935D01*
X625941Y1235767D01*
X627248Y1234460D01*
X630538Y1234460D01*
X630538Y1246540D01*
X627248Y1246540D01*
X625941Y1245233D01*
X625710Y1245075D01*
X625414Y1245010D01*
X625116Y1245065D01*
X624863Y1245233D01*
X624826Y1245270D01*
X617774Y1245270D01*
X617030Y1244526D01*
X617030Y1239402D01*
X616974Y1239116D01*
X616807Y1238864D01*
X605980Y1228037D01*
X605980Y1223152D01*
X605924Y1222866D01*
X605757Y1222614D01*
X597961Y1214818D01*
X597741Y1214665D01*
X597446Y1214595D01*
X597147Y1214646D01*
X596892Y1214809D01*
X596720Y1215059D01*
X596660Y1215356D01*
X596660Y1216728D01*
X584580Y1216728D01*
X584580Y1214938D01*
X585627Y1213891D01*
X585790Y1213650D01*
X585850Y1213352D01*
X585850Y1210434D01*
X585943Y1210298D01*
X586008Y1210002D01*
X585953Y1209704D01*
X585850Y1209549D01*
X585850Y1205434D01*
X585943Y1205298D01*
X586008Y1205002D01*
X585953Y1204704D01*
X585850Y1204549D01*
X585850Y1200434D01*
X585943Y1200298D01*
X586008Y1200002D01*
X585953Y1199704D01*
X585850Y1199549D01*
X585850Y1195434D01*
X585943Y1195298D01*
X586008Y1195002D01*
X585953Y1194704D01*
X585850Y1194549D01*
X585850Y1190434D01*
X585943Y1190298D01*
X586008Y1190002D01*
X585953Y1189704D01*
X585850Y1189549D01*
X585850Y1185434D01*
X585943Y1185298D01*
X586008Y1185002D01*
X585953Y1184704D01*
X585850Y1184549D01*
X585850Y1180464D01*
X586594Y1179720D01*
X587838Y1179720D01*
X588113Y1179669D01*
X588368Y1179505D01*
X588540Y1179255D01*
X588600Y1178958D01*
X588600Y1172653D01*
X608973Y1152280D01*
X609368Y1152280D01*
X609643Y1152229D01*
X609898Y1152065D01*
X610070Y1151815D01*
X610130Y1151518D01*
X610130Y1150274D01*
X610874Y1149530D01*
X617926Y1149530D01*
X617963Y1149567D01*
X618194Y1149725D01*
X618490Y1149790D01*
X618788Y1149735D01*
X619041Y1149567D01*
X620348Y1148260D01*
G37*
G36*
X632062Y1234460D02*
X635352Y1234460D01*
X636840Y1235948D01*
X636840Y1239738D01*
X632062Y1239738D01*
X632062Y1234460D01*
G37*
G36*
X632162Y1226062D02*
X636940Y1226062D01*
X636940Y1229852D01*
X635452Y1231340D01*
X632162Y1231340D01*
X632162Y1226062D01*
G37*
G36*
X632162Y1219260D02*
X635452Y1219260D01*
X636940Y1220748D01*
X636940Y1224538D01*
X632162Y1224538D01*
X632162Y1219260D01*
G37*
G36*
X634062Y1212262D02*
X638840Y1212262D01*
X638840Y1216052D01*
X637352Y1217540D01*
X634062Y1217540D01*
X634062Y1212262D01*
G37*
G36*
X634062Y1205460D02*
X637352Y1205460D01*
X638840Y1206948D01*
X638840Y1210738D01*
X634062Y1210738D01*
X634062Y1205460D01*
G37*
G36*
X631962Y1198062D02*
X636740Y1198062D01*
X636740Y1201852D01*
X635252Y1203340D01*
X631962Y1203340D01*
X631962Y1198062D01*
G37*
G36*
X631962Y1191260D02*
X635252Y1191260D01*
X636740Y1192748D01*
X636740Y1196538D01*
X631962Y1196538D01*
X631962Y1191260D01*
G37*
G36*
X632262Y1183862D02*
X637040Y1183862D01*
X637040Y1187652D01*
X635552Y1189140D01*
X632262Y1189140D01*
X632262Y1183862D01*
G37*
G36*
X632262Y1177060D02*
X635552Y1177060D01*
X637040Y1178548D01*
X637040Y1182338D01*
X632262Y1182338D01*
X632262Y1177060D01*
G37*
G36*
X564882Y1175352D02*
X571660Y1175352D01*
X571660Y1177142D01*
X570172Y1178630D01*
X564882Y1178630D01*
X564882Y1175352D01*
G37*
G36*
X556580Y1175352D02*
X563358Y1175352D01*
X563358Y1178630D01*
X558068Y1178630D01*
X556580Y1177142D01*
X556580Y1175352D01*
G37*
G36*
X632262Y1168862D02*
X637040Y1168862D01*
X637040Y1172652D01*
X635552Y1174140D01*
X632262Y1174140D01*
X632262Y1168862D01*
G37*
G36*
X558068Y1170550D02*
X563358Y1170550D01*
X563358Y1173828D01*
X556580Y1173828D01*
X556580Y1172038D01*
X558068Y1170550D01*
G37*
G36*
X564882Y1170550D02*
X570172Y1170550D01*
X571660Y1172038D01*
X571660Y1173828D01*
X564882Y1173828D01*
X564882Y1170550D01*
G37*
G36*
X632262Y1162060D02*
X635552Y1162060D01*
X637040Y1163548D01*
X637040Y1167338D01*
X632262Y1167338D01*
X632262Y1162060D01*
G37*
G36*
X625162Y1155062D02*
X629940Y1155062D01*
X629940Y1158852D01*
X628452Y1160340D01*
X625162Y1160340D01*
X625162Y1155062D01*
G37*
G36*
X576360Y1148462D02*
X588138Y1148462D01*
X588138Y1160240D01*
X586406Y1160240D01*
X581797Y1158331D01*
X578269Y1154803D01*
X576360Y1150194D01*
X576360Y1148462D01*
G37*
G36*
X589662Y1148462D02*
X601440Y1148462D01*
X601440Y1150194D01*
X599531Y1154803D01*
X596003Y1158331D01*
X591394Y1160240D01*
X589662Y1160240D01*
X589662Y1148462D01*
G37*
G36*
X511860Y1148662D02*
X514888Y1148662D01*
X514888Y1152190D01*
X513348Y1152190D01*
X511860Y1150702D01*
X511860Y1148662D01*
G37*
G36*
X513348Y1143610D02*
X514888Y1143610D01*
X514888Y1147138D01*
X511860Y1147138D01*
X511860Y1145098D01*
X513348Y1143610D01*
G37*
G36*
X589662Y1135160D02*
X591394Y1135160D01*
X596003Y1137069D01*
X599531Y1140597D01*
X601440Y1145206D01*
X601440Y1146938D01*
X589662Y1146938D01*
X589662Y1135160D01*
G37*
G36*
X586406Y1135160D02*
X588138Y1135160D01*
X588138Y1146938D01*
X576360Y1146938D01*
X576360Y1145206D01*
X578269Y1140597D01*
X581797Y1137069D01*
X586406Y1135160D01*
G37*
G36*
X587862Y1126112D02*
X591390Y1126112D01*
X591390Y1127652D01*
X589902Y1129140D01*
X587862Y1129140D01*
X587862Y1126112D01*
G37*
G36*
X616544Y1109283D02*
X621878Y1109283D01*
X621878Y1115034D01*
X620390Y1116522D01*
X616544Y1116522D01*
X616544Y1109283D01*
G37*
G36*
X530112Y1108262D02*
X533140Y1108262D01*
X533140Y1110302D01*
X531652Y1111790D01*
X530112Y1111790D01*
X530112Y1108262D01*
G37*
%LPD*%
G36*
X667308Y1229238D02*
X667012Y1229172D01*
X666714Y1229228D01*
X666461Y1229396D01*
X655243Y1240614D01*
X655080Y1240855D01*
X655020Y1241152D01*
X655020Y1269848D01*
X655076Y1270134D01*
X655243Y1270386D01*
X659020Y1274163D01*
X659020Y1283456D01*
X659071Y1283731D01*
X659235Y1283986D01*
X659485Y1284158D01*
X659782Y1284218D01*
X660567Y1284218D01*
X662782Y1286433D01*
X662782Y1289567D01*
X660567Y1291782D01*
X657433Y1291782D01*
X655218Y1289567D01*
X655218Y1287390D01*
X655162Y1287104D01*
X654995Y1286852D01*
X654980Y1286837D01*
X654980Y1276152D01*
X654924Y1275866D01*
X654757Y1275614D01*
X650980Y1271837D01*
X650980Y1259208D01*
X650933Y1258945D01*
X650774Y1258687D01*
X650526Y1258511D01*
X650230Y1258446D01*
X649932Y1258502D01*
X649679Y1258669D01*
X649567Y1258782D01*
X646433Y1258782D01*
X646321Y1258669D01*
X646101Y1258516D01*
X645806Y1258447D01*
X645507Y1258497D01*
X645252Y1258661D01*
X645080Y1258911D01*
X645020Y1259208D01*
X645020Y1287837D01*
X639298Y1293559D01*
X639145Y1293779D01*
X639075Y1294074D01*
X639126Y1294373D01*
X639289Y1294628D01*
X639539Y1294800D01*
X639738Y1294840D01*
X639738Y1299638D01*
X634145Y1299638D01*
X634006Y1299540D01*
X633710Y1299474D01*
X633412Y1299530D01*
X633159Y1299698D01*
X633098Y1299759D01*
X632945Y1299979D01*
X632875Y1300274D01*
X632926Y1300573D01*
X633089Y1300828D01*
X633339Y1301000D01*
X633636Y1301060D01*
X633698Y1301060D01*
X633973Y1301009D01*
X634079Y1300941D01*
X634079Y1301162D01*
X646540Y1301162D01*
X646540Y1304462D01*
X646410Y1304649D01*
X646340Y1304944D01*
X646391Y1305243D01*
X646554Y1305498D01*
X646805Y1305670D01*
X647102Y1305730D01*
X647768Y1305730D01*
X648043Y1305679D01*
X648298Y1305515D01*
X648470Y1305265D01*
X648529Y1304975D01*
X649215Y1304289D01*
X649373Y1304058D01*
X649438Y1303762D01*
X649383Y1303464D01*
X649215Y1303211D01*
X648530Y1302526D01*
X648530Y1295474D01*
X649274Y1294730D01*
X662326Y1294730D01*
X663070Y1295474D01*
X663070Y1302526D01*
X662385Y1303211D01*
X662227Y1303442D01*
X662162Y1303738D01*
X662217Y1304036D01*
X662385Y1304289D01*
X663070Y1304974D01*
X663070Y1308698D01*
X663121Y1308973D01*
X663285Y1309228D01*
X663535Y1309400D01*
X663832Y1309460D01*
X664095Y1309460D01*
X670340Y1315705D01*
X670340Y1349107D01*
X670396Y1349393D01*
X670563Y1349646D01*
X674918Y1354000D01*
X675182Y1354172D01*
X675481Y1354223D01*
X675776Y1354153D01*
X676021Y1353974D01*
X676176Y1353713D01*
X676249Y1353504D01*
X676327Y1353306D01*
X676414Y1353127D01*
X676508Y1352965D01*
X677124Y1351985D01*
X677244Y1351809D01*
X677370Y1351653D01*
X677496Y1351518D01*
X678316Y1350698D01*
X678472Y1350554D01*
X678629Y1350430D01*
X678784Y1350325D01*
X679764Y1349709D01*
X679948Y1349603D01*
X680129Y1349517D01*
X680302Y1349449D01*
X681396Y1349067D01*
X681600Y1349004D01*
X681794Y1348961D01*
X681979Y1348933D01*
X682668Y1348856D01*
X682668Y1362892D01*
X684192Y1362892D01*
X684192Y1348856D01*
X684880Y1348933D01*
X685089Y1348965D01*
X685284Y1349010D01*
X685462Y1349066D01*
X686556Y1349449D01*
X686754Y1349527D01*
X686933Y1349614D01*
X687095Y1349708D01*
X687923Y1350228D01*
X688304Y1350345D01*
X688603Y1350294D01*
X688858Y1350130D01*
X689030Y1349880D01*
X689090Y1349583D01*
X689090Y1349578D01*
X690578Y1348090D01*
X693868Y1348090D01*
X693868Y1357142D01*
X695392Y1357142D01*
X695392Y1348090D01*
X698682Y1348090D01*
X699729Y1349137D01*
X699971Y1349300D01*
X700268Y1349360D01*
X706348Y1349360D01*
X706623Y1349309D01*
X706878Y1349145D01*
X707050Y1348895D01*
X707110Y1348598D01*
X707110Y1341732D01*
X707054Y1341446D01*
X706887Y1341194D01*
X704786Y1339093D01*
X704545Y1338930D01*
X704248Y1338870D01*
X702624Y1338870D01*
X701880Y1338126D01*
X701880Y1334738D01*
X701824Y1334452D01*
X701657Y1334199D01*
X700610Y1333152D01*
X700610Y1331612D01*
X709190Y1331612D01*
X709190Y1333152D01*
X708143Y1334199D01*
X707980Y1334441D01*
X707920Y1334738D01*
X707920Y1336198D01*
X707976Y1336484D01*
X708143Y1336736D01*
X711150Y1339743D01*
X711150Y1348598D01*
X711201Y1348873D01*
X711365Y1349128D01*
X711615Y1349300D01*
X711912Y1349360D01*
X715414Y1349360D01*
X715677Y1349313D01*
X715935Y1349154D01*
X716110Y1348906D01*
X716176Y1348610D01*
X716120Y1348312D01*
X715952Y1348059D01*
X715110Y1347217D01*
X715110Y1331282D01*
X715054Y1330996D01*
X714887Y1330744D01*
X704386Y1320243D01*
X704145Y1320080D01*
X703848Y1320020D01*
X688832Y1320020D01*
X688557Y1320071D01*
X688302Y1320235D01*
X688130Y1320485D01*
X688070Y1320782D01*
X688070Y1321526D01*
X687326Y1322270D01*
X674274Y1322270D01*
X673530Y1321526D01*
X673530Y1314207D01*
X673540Y1314160D01*
X673485Y1313862D01*
X673317Y1313609D01*
X672260Y1312552D01*
X672260Y1309262D01*
X689340Y1309262D01*
X689340Y1312552D01*
X688283Y1313609D01*
X688125Y1313840D01*
X688060Y1314136D01*
X688070Y1314191D01*
X688070Y1315218D01*
X688121Y1315493D01*
X688285Y1315748D01*
X688535Y1315920D01*
X688832Y1315980D01*
X705837Y1315980D01*
X719150Y1329293D01*
X719150Y1345228D01*
X719206Y1345514D01*
X719373Y1345766D01*
X720809Y1347202D01*
X721029Y1347355D01*
X721324Y1347425D01*
X721623Y1347374D01*
X721878Y1347211D01*
X722050Y1346961D01*
X722110Y1346664D01*
X722110Y1328282D01*
X722054Y1327996D01*
X721887Y1327744D01*
X695386Y1301243D01*
X695145Y1301080D01*
X694848Y1301020D01*
X688832Y1301020D01*
X688557Y1301071D01*
X688302Y1301235D01*
X688130Y1301485D01*
X688070Y1301782D01*
X688070Y1302794D01*
X688060Y1302840D01*
X688115Y1303138D01*
X688283Y1303391D01*
X689340Y1304448D01*
X689340Y1307738D01*
X672260Y1307738D01*
X672260Y1304448D01*
X673317Y1303391D01*
X673475Y1303160D01*
X673540Y1302864D01*
X673530Y1302809D01*
X673530Y1295474D01*
X674274Y1294730D01*
X687326Y1294730D01*
X688070Y1295474D01*
X688070Y1296218D01*
X688121Y1296493D01*
X688285Y1296748D01*
X688535Y1296920D01*
X688832Y1296980D01*
X696837Y1296980D01*
X701667Y1301810D01*
X701887Y1301963D01*
X702182Y1302033D01*
X702481Y1301982D01*
X702736Y1301819D01*
X702908Y1301569D01*
X702968Y1301272D01*
X702968Y1301037D01*
X704677Y1299328D01*
X704840Y1299087D01*
X704900Y1298789D01*
X704900Y1291522D01*
X704849Y1291247D01*
X704685Y1290992D01*
X704435Y1290820D01*
X704145Y1290762D01*
X704107Y1290723D01*
X703876Y1290565D01*
X703580Y1290500D01*
X703282Y1290555D01*
X703029Y1290723D01*
X701722Y1292030D01*
X698432Y1292030D01*
X698432Y1279950D01*
X701722Y1279950D01*
X703029Y1281257D01*
X703260Y1281415D01*
X703556Y1281480D01*
X703854Y1281425D01*
X704107Y1281257D01*
X704145Y1281219D01*
X704413Y1281169D01*
X704668Y1281005D01*
X704840Y1280755D01*
X704900Y1280458D01*
X704900Y1274433D01*
X704844Y1274147D01*
X704677Y1273894D01*
X704188Y1273405D01*
X703946Y1273242D01*
X703649Y1273182D01*
X702533Y1273182D01*
X700182Y1270830D01*
X700112Y1270717D01*
X699864Y1270542D01*
X699568Y1270476D01*
X699270Y1270532D01*
X699017Y1270700D01*
X697837Y1271880D01*
X693192Y1271880D01*
X692906Y1271936D01*
X692654Y1272103D01*
X691063Y1273694D01*
X690900Y1273935D01*
X690840Y1274232D01*
X690840Y1275542D01*
X690896Y1275828D01*
X691063Y1276081D01*
X692110Y1277128D01*
X692110Y1278818D01*
X682730Y1278818D01*
X682730Y1277128D01*
X683777Y1276081D01*
X683940Y1275840D01*
X684000Y1275542D01*
X684000Y1272554D01*
X684744Y1271810D01*
X686918Y1271810D01*
X687204Y1271754D01*
X687456Y1271587D01*
X689632Y1269411D01*
X689785Y1269191D01*
X689855Y1268896D01*
X689804Y1268597D01*
X689641Y1268342D01*
X689391Y1268170D01*
X689094Y1268110D01*
X677674Y1268110D01*
X676930Y1267366D01*
X676930Y1265972D01*
X676879Y1265697D01*
X676715Y1265442D01*
X676465Y1265270D01*
X676168Y1265210D01*
X675162Y1265210D01*
X674876Y1265266D01*
X674623Y1265433D01*
X674196Y1265860D01*
X668844Y1265860D01*
X668100Y1265116D01*
X668100Y1262128D01*
X668044Y1261842D01*
X667877Y1261589D01*
X666830Y1260542D01*
X666830Y1258852D01*
X672282Y1258852D01*
X672282Y1253769D01*
X672100Y1253769D01*
X672158Y1253685D01*
X672218Y1253388D01*
X672218Y1251433D01*
X673513Y1250139D01*
X673671Y1249908D01*
X673736Y1249612D01*
X673680Y1249314D01*
X673513Y1249061D01*
X672618Y1248167D01*
X672618Y1244856D01*
X672653Y1244706D01*
X672603Y1244407D01*
X672439Y1244152D01*
X672189Y1243980D01*
X672042Y1243951D01*
X672042Y1239218D01*
X666590Y1239218D01*
X666590Y1237528D01*
X667637Y1236481D01*
X667800Y1236240D01*
X667860Y1235942D01*
X667860Y1232954D01*
X668624Y1232190D01*
X668777Y1232163D01*
X669035Y1232004D01*
X669210Y1231756D01*
X669276Y1231460D01*
X669220Y1231162D01*
X669052Y1230909D01*
X667539Y1229396D01*
X667308Y1229238D01*
G37*
%LPC*%
G36*
X705662Y1327060D02*
X707702Y1327060D01*
X709190Y1328548D01*
X709190Y1330088D01*
X705662Y1330088D01*
X705662Y1327060D01*
G37*
G36*
X702098Y1327060D02*
X704138Y1327060D01*
X704138Y1330088D01*
X700610Y1330088D01*
X700610Y1328548D01*
X702098Y1327060D01*
G37*
G36*
X641262Y1294860D02*
X645052Y1294860D01*
X646540Y1296348D01*
X646540Y1299638D01*
X641262Y1299638D01*
X641262Y1294860D01*
G37*
G36*
X692130Y1286752D02*
X696908Y1286752D01*
X696908Y1292030D01*
X693618Y1292030D01*
X692130Y1290542D01*
X692130Y1286752D01*
G37*
G36*
X659433Y1243218D02*
X662567Y1243218D01*
X664782Y1245433D01*
X664782Y1248567D01*
X662993Y1250355D01*
X662830Y1250597D01*
X662770Y1250894D01*
X662770Y1266537D01*
X662826Y1266823D01*
X662993Y1267076D01*
X678912Y1282995D01*
X679154Y1283158D01*
X679451Y1283218D01*
X680567Y1283218D01*
X682782Y1285433D01*
X682782Y1288567D01*
X680567Y1290782D01*
X677433Y1290782D01*
X675218Y1288567D01*
X675218Y1287451D01*
X675162Y1287165D01*
X674995Y1286912D01*
X657230Y1269147D01*
X657230Y1248894D01*
X657218Y1248833D01*
X657218Y1245433D01*
X659433Y1243218D01*
G37*
G36*
X693618Y1279950D02*
X696908Y1279950D01*
X696908Y1285228D01*
X692130Y1285228D01*
X692130Y1283852D01*
X692083Y1283588D01*
X691924Y1283330D01*
X691676Y1283155D01*
X691380Y1283090D01*
X691082Y1283145D01*
X690829Y1283313D01*
X690622Y1283520D01*
X688182Y1283520D01*
X688182Y1280342D01*
X692491Y1280342D01*
X692491Y1280264D01*
X692564Y1280315D01*
X692860Y1280380D01*
X693158Y1280325D01*
X693411Y1280157D01*
X693618Y1279950D01*
G37*
G36*
X682730Y1280342D02*
X686658Y1280342D01*
X686658Y1283520D01*
X684218Y1283520D01*
X682730Y1282032D01*
X682730Y1280342D01*
G37*
G36*
X668318Y1254150D02*
X670758Y1254150D01*
X670758Y1257328D01*
X666830Y1257328D01*
X666830Y1255638D01*
X668318Y1254150D01*
G37*
G36*
X666590Y1240742D02*
X670518Y1240742D01*
X670518Y1243920D01*
X668078Y1243920D01*
X666590Y1242432D01*
X666590Y1240742D01*
G37*
%LPD*%
G36*
X515317Y1313122D02*
X515020Y1313062D01*
X510524Y1313062D01*
X510249Y1313113D01*
X509993Y1313277D01*
X509822Y1313527D01*
X509762Y1313824D01*
X509762Y1335068D01*
X509817Y1335354D01*
X509985Y1335606D01*
X524206Y1349827D01*
X524436Y1349985D01*
X524732Y1350050D01*
X525030Y1349995D01*
X525283Y1349827D01*
X525581Y1349530D01*
X526318Y1349530D01*
X526318Y1353912D01*
X527842Y1353912D01*
X527842Y1349530D01*
X528298Y1349530D01*
X528573Y1349479D01*
X528828Y1349315D01*
X529000Y1349065D01*
X529060Y1348768D01*
X529060Y1338002D01*
X529009Y1337727D01*
X528845Y1337472D01*
X528595Y1337300D01*
X528298Y1337240D01*
X516526Y1337240D01*
X515782Y1336496D01*
X515782Y1313824D01*
X515730Y1313549D01*
X515567Y1313294D01*
X515317Y1313122D01*
G37*
G36*
X766376Y1238523D02*
X766080Y1238458D01*
X765782Y1238514D01*
X765529Y1238681D01*
X765040Y1239170D01*
X764152Y1239170D01*
X763877Y1239221D01*
X763622Y1239385D01*
X763450Y1239635D01*
X763390Y1239932D01*
X763390Y1241138D01*
X735838Y1241138D01*
X735838Y1242662D01*
X763390Y1242662D01*
X763390Y1248868D01*
X763441Y1249143D01*
X763605Y1249398D01*
X763855Y1249570D01*
X764152Y1249630D01*
X765040Y1249630D01*
X765529Y1250119D01*
X765749Y1250272D01*
X766044Y1250342D01*
X766343Y1250291D01*
X766598Y1250127D01*
X766770Y1249877D01*
X766830Y1249580D01*
X766830Y1248460D01*
X767851Y1247439D01*
X768009Y1247208D01*
X768074Y1246912D01*
X768018Y1246614D01*
X767851Y1246361D01*
X766830Y1245340D01*
X766830Y1243460D01*
X767851Y1242439D01*
X768009Y1242208D01*
X768074Y1241912D01*
X768018Y1241614D01*
X767851Y1241361D01*
X766830Y1240340D01*
X766830Y1239220D01*
X766783Y1238957D01*
X766624Y1238699D01*
X766376Y1238523D01*
G37*
G36*
X794073Y1069122D02*
X793776Y1069062D01*
X738824Y1069062D01*
X738549Y1069113D01*
X738294Y1069277D01*
X738122Y1069527D01*
X738062Y1069824D01*
X738062Y1085444D01*
X736406Y1087100D01*
X736334Y1087113D01*
X736079Y1087277D01*
X735907Y1087527D01*
X735847Y1087824D01*
X735847Y1088985D01*
X735903Y1089271D01*
X736070Y1089524D01*
X736482Y1089936D01*
X736482Y1101656D01*
X735738Y1102400D01*
X732260Y1102400D01*
X731985Y1102451D01*
X731730Y1102615D01*
X731558Y1102865D01*
X731498Y1103162D01*
X731498Y1108559D01*
X724640Y1108559D01*
X724640Y1117322D01*
X720794Y1117322D01*
X720518Y1117046D01*
X720288Y1116888D01*
X719992Y1116823D01*
X719694Y1116879D01*
X719441Y1117046D01*
X718911Y1117576D01*
X703889Y1117576D01*
X703145Y1116832D01*
X703145Y1116227D01*
X703098Y1115963D01*
X702939Y1115705D01*
X702691Y1115530D01*
X702395Y1115465D01*
X702097Y1115520D01*
X701844Y1115688D01*
X701480Y1116052D01*
X701207Y1116103D01*
X700952Y1116267D01*
X700780Y1116517D01*
X700720Y1116814D01*
X700720Y1119462D01*
X700776Y1119748D01*
X700943Y1120001D01*
X701990Y1121048D01*
X701990Y1122588D01*
X696938Y1122588D01*
X696938Y1124112D01*
X702032Y1124112D01*
X702041Y1124163D01*
X702205Y1124418D01*
X702455Y1124590D01*
X702752Y1124650D01*
X709084Y1124650D01*
X709370Y1124594D01*
X709623Y1124427D01*
X713070Y1120980D01*
X745848Y1120980D01*
X746134Y1120924D01*
X746386Y1120757D01*
X752163Y1114980D01*
X800900Y1114980D01*
X800911Y1114987D01*
X801206Y1115057D01*
X801505Y1115006D01*
X801760Y1114843D01*
X801932Y1114593D01*
X801992Y1114296D01*
X801992Y1110932D01*
X801941Y1110657D01*
X801777Y1110402D01*
X801527Y1110230D01*
X801230Y1110170D01*
X798610Y1110170D01*
X796833Y1108393D01*
X796592Y1108230D01*
X796295Y1108170D01*
X790792Y1108170D01*
X790506Y1108226D01*
X790253Y1108393D01*
X789976Y1108670D01*
X785424Y1108670D01*
X784680Y1107926D01*
X784680Y1107432D01*
X784629Y1107157D01*
X784465Y1106902D01*
X784215Y1106730D01*
X783918Y1106670D01*
X782686Y1106670D01*
X782422Y1106717D01*
X782164Y1106876D01*
X781989Y1107124D01*
X781924Y1107420D01*
X781979Y1107718D01*
X782147Y1107971D01*
X782550Y1108374D01*
X782550Y1111926D01*
X781806Y1112670D01*
X781243Y1112670D01*
X780957Y1112726D01*
X780704Y1112893D01*
X780677Y1112920D01*
X760003Y1112920D01*
X759838Y1112755D01*
X759596Y1112592D01*
X759299Y1112532D01*
X758537Y1112532D01*
X756468Y1110463D01*
X756468Y1107537D01*
X758537Y1105468D01*
X761463Y1105468D01*
X763152Y1107157D01*
X763393Y1107320D01*
X763691Y1107380D01*
X775748Y1107380D01*
X776023Y1107329D01*
X776278Y1107165D01*
X776450Y1106915D01*
X776510Y1106618D01*
X776510Y1102874D01*
X777254Y1102130D01*
X781806Y1102130D01*
X782083Y1102407D01*
X782324Y1102570D01*
X782622Y1102630D01*
X782648Y1102630D01*
X782923Y1102579D01*
X783178Y1102415D01*
X783350Y1102165D01*
X783410Y1101868D01*
X783410Y1101412D01*
X791990Y1101412D01*
X791990Y1103005D01*
X791960Y1103049D01*
X791890Y1103344D01*
X791941Y1103643D01*
X792104Y1103898D01*
X792355Y1104070D01*
X792652Y1104130D01*
X798284Y1104130D01*
X800061Y1105907D01*
X800302Y1106070D01*
X800599Y1106130D01*
X801230Y1106130D01*
X801505Y1106079D01*
X801760Y1105915D01*
X801932Y1105665D01*
X801992Y1105368D01*
X801992Y1102762D01*
X801941Y1102487D01*
X801777Y1102232D01*
X801527Y1102060D01*
X801230Y1102000D01*
X796482Y1102000D01*
X795738Y1101256D01*
X795738Y1089536D01*
X796150Y1089124D01*
X796313Y1088883D01*
X796373Y1088585D01*
X796373Y1087595D01*
X796317Y1087309D01*
X796150Y1087056D01*
X794538Y1085444D01*
X794538Y1069824D01*
X794487Y1069549D01*
X794323Y1069294D01*
X794073Y1069122D01*
G37*
%LPC*%
G36*
X726164Y1110083D02*
X731498Y1110083D01*
X731498Y1115834D01*
X730010Y1117322D01*
X726164Y1117322D01*
X726164Y1110083D01*
G37*
G36*
X788462Y1096860D02*
X790502Y1096860D01*
X791990Y1098348D01*
X791990Y1099888D01*
X788462Y1099888D01*
X788462Y1096860D01*
G37*
G36*
X784898Y1096860D02*
X786938Y1096860D01*
X786938Y1099888D01*
X783410Y1099888D01*
X783410Y1098348D01*
X784898Y1096860D01*
G37*
%LPD*%
G36*
X763890Y1177080D02*
X817230Y1177080D01*
X817230Y1156760D01*
X807152Y1156760D01*
X805452Y1159364D01*
X805452Y1159364D01*
X805452Y1159364D01*
X803222Y1162082D01*
X800508Y1164309D01*
X800508Y1164309D01*
X800508Y1164309D01*
X797412Y1165963D01*
X797412Y1165963D01*
X794062Y1166979D01*
X790560Y1166793D01*
X787058Y1166979D01*
X783708Y1165963D01*
X783708Y1165963D01*
X780612Y1164309D01*
X780612Y1164309D01*
X780612Y1164309D01*
X777898Y1162082D01*
X775668Y1159364D01*
X775668Y1159364D01*
X773968Y1156760D01*
X763890Y1156760D01*
X763890Y1177080D01*
G37*
G36*
X763890Y1177080D02*
X817230Y1177080D01*
X817230Y1156760D01*
X807152Y1156760D01*
X805452Y1159364D01*
X805452Y1159364D01*
X805452Y1159364D01*
X803222Y1162082D01*
X800508Y1164309D01*
X800508Y1164309D01*
X800508Y1164309D01*
X797412Y1165963D01*
X797412Y1165963D01*
X794062Y1166979D01*
X790560Y1166793D01*
X787058Y1166979D01*
X783708Y1165963D01*
X783708Y1165963D01*
X780612Y1164309D01*
X780612Y1164309D01*
X780612Y1164309D01*
X777898Y1162082D01*
X775668Y1159364D01*
X775668Y1159364D01*
X773968Y1156760D01*
X763890Y1156760D01*
X763890Y1177080D01*
G37*
G36*
X807152Y1142080D02*
X817230Y1142080D01*
X817230Y1121760D01*
X763890Y1121760D01*
X763890Y1142080D01*
X773968Y1142080D01*
X775668Y1139476D01*
X775668Y1139476D01*
X777898Y1136758D01*
X780612Y1134531D01*
X780612Y1134531D01*
X780612Y1134531D01*
X783708Y1132877D01*
X783708Y1132877D01*
X787058Y1131861D01*
X790560Y1132047D01*
X794062Y1131861D01*
X797412Y1132877D01*
X797412Y1132877D01*
X800508Y1134531D01*
X800508Y1134531D01*
X800508Y1134531D01*
X803222Y1136758D01*
X805452Y1139476D01*
X805452Y1139476D01*
X807152Y1142080D01*
G37*
G36*
X807152Y1142080D02*
X817230Y1142080D01*
X817230Y1121760D01*
X763890Y1121760D01*
X763890Y1142080D01*
X773968Y1142080D01*
X775668Y1139476D01*
X775668Y1139476D01*
X777898Y1136758D01*
X780612Y1134531D01*
X780612Y1134531D01*
X780612Y1134531D01*
X783708Y1132877D01*
X783708Y1132877D01*
X787058Y1131861D01*
X790560Y1132047D01*
X794062Y1131861D01*
X797412Y1132877D01*
X797412Y1132877D01*
X800508Y1134531D01*
X800508Y1134531D01*
X800508Y1134531D01*
X803222Y1136758D01*
X805452Y1139476D01*
X805452Y1139476D01*
X807152Y1142080D01*
G37*
G36*
X682251Y1372797D02*
X683430Y1372930D01*
X684609Y1372797D01*
X685730Y1372405D01*
X686735Y1371774D01*
X687574Y1370935D01*
X688205Y1369930D01*
X688597Y1368809D01*
X688730Y1367633D01*
X688730Y1356627D01*
X688597Y1355451D01*
X688205Y1354330D01*
X687574Y1353325D01*
X686735Y1352486D01*
X685730Y1351855D01*
X684609Y1351463D01*
X683430Y1351330D01*
X682251Y1351463D01*
X681130Y1351855D01*
X680125Y1352486D01*
X679286Y1353325D01*
X678655Y1354330D01*
X678263Y1355451D01*
X678130Y1356627D01*
X678130Y1367633D01*
X678263Y1368809D01*
X678655Y1369930D01*
X679286Y1370935D01*
X680125Y1371774D01*
X681130Y1372405D01*
X682251Y1372797D01*
G37*
G36*
X682251Y1372797D02*
X683430Y1372930D01*
X684609Y1372797D01*
X685730Y1372405D01*
X686735Y1371774D01*
X687574Y1370935D01*
X688205Y1369930D01*
X688597Y1368809D01*
X688730Y1367633D01*
X688730Y1356627D01*
X688597Y1355451D01*
X688205Y1354330D01*
X687574Y1353325D01*
X686735Y1352486D01*
X685730Y1351855D01*
X684609Y1351463D01*
X683430Y1351330D01*
X682251Y1351463D01*
X681130Y1351855D01*
X680125Y1352486D01*
X679286Y1353325D01*
X678655Y1354330D01*
X678263Y1355451D01*
X678130Y1356627D01*
X678130Y1367633D01*
X678263Y1368809D01*
X678655Y1369930D01*
X679286Y1370935D01*
X680125Y1371774D01*
X681130Y1372405D01*
X682251Y1372797D01*
G37*
G36*
X768651Y1372797D02*
X769830Y1372930D01*
X771009Y1372797D01*
X772130Y1372405D01*
X773135Y1371774D01*
X773974Y1370935D01*
X774605Y1369930D01*
X774997Y1368809D01*
X775130Y1367633D01*
X775130Y1356627D01*
X774997Y1355451D01*
X774605Y1354330D01*
X773974Y1353325D01*
X773135Y1352486D01*
X772130Y1351855D01*
X771009Y1351463D01*
X769830Y1351330D01*
X768651Y1351463D01*
X767530Y1351855D01*
X766525Y1352486D01*
X765686Y1353325D01*
X765055Y1354330D01*
X764663Y1355451D01*
X764530Y1356627D01*
X764530Y1367633D01*
X764663Y1368809D01*
X765055Y1369930D01*
X765686Y1370935D01*
X766525Y1371774D01*
X767530Y1372405D01*
X768651Y1372797D01*
G37*
G36*
X768651Y1372797D02*
X769830Y1372930D01*
X771009Y1372797D01*
X772130Y1372405D01*
X773135Y1371774D01*
X773974Y1370935D01*
X774605Y1369930D01*
X774997Y1368809D01*
X775130Y1367633D01*
X775130Y1356627D01*
X774997Y1355451D01*
X774605Y1354330D01*
X773974Y1353325D01*
X773135Y1352486D01*
X772130Y1351855D01*
X771009Y1351463D01*
X769830Y1351330D01*
X768651Y1351463D01*
X767530Y1351855D01*
X766525Y1352486D01*
X765686Y1353325D01*
X765055Y1354330D01*
X764663Y1355451D01*
X764530Y1356627D01*
X764530Y1367633D01*
X764663Y1368809D01*
X765055Y1369930D01*
X765686Y1370935D01*
X766525Y1371774D01*
X767530Y1372405D01*
X768651Y1372797D01*
G37*
G36*
X682251Y1412797D02*
X683430Y1412930D01*
X684609Y1412797D01*
X685730Y1412405D01*
X686735Y1411774D01*
X687574Y1410935D01*
X688205Y1409930D01*
X688597Y1408809D01*
X688730Y1407633D01*
X688730Y1399627D01*
X688597Y1398451D01*
X688205Y1397330D01*
X687574Y1396325D01*
X686735Y1395486D01*
X685730Y1394855D01*
X684609Y1394463D01*
X683430Y1394330D01*
X682251Y1394463D01*
X681130Y1394855D01*
X680125Y1395486D01*
X679286Y1396325D01*
X678655Y1397330D01*
X678263Y1398451D01*
X678130Y1399627D01*
X678130Y1407633D01*
X678263Y1408809D01*
X678655Y1409930D01*
X679286Y1410935D01*
X680125Y1411774D01*
X681130Y1412405D01*
X682251Y1412797D01*
G37*
G36*
X682251Y1412797D02*
X683430Y1412930D01*
X684609Y1412797D01*
X685730Y1412405D01*
X686735Y1411774D01*
X687574Y1410935D01*
X688205Y1409930D01*
X688597Y1408809D01*
X688730Y1407633D01*
X688730Y1399627D01*
X688597Y1398451D01*
X688205Y1397330D01*
X687574Y1396325D01*
X686735Y1395486D01*
X685730Y1394855D01*
X684609Y1394463D01*
X683430Y1394330D01*
X682251Y1394463D01*
X681130Y1394855D01*
X680125Y1395486D01*
X679286Y1396325D01*
X678655Y1397330D01*
X678263Y1398451D01*
X678130Y1399627D01*
X678130Y1407633D01*
X678263Y1408809D01*
X678655Y1409930D01*
X679286Y1410935D01*
X680125Y1411774D01*
X681130Y1412405D01*
X682251Y1412797D01*
G37*
G36*
X768651Y1412797D02*
X769830Y1412930D01*
X771009Y1412797D01*
X772130Y1412405D01*
X773135Y1411774D01*
X773974Y1410935D01*
X774605Y1409930D01*
X774997Y1408809D01*
X775130Y1407633D01*
X775130Y1399627D01*
X774997Y1398451D01*
X774605Y1397330D01*
X773974Y1396325D01*
X773135Y1395486D01*
X772130Y1394855D01*
X771009Y1394463D01*
X769830Y1394330D01*
X768651Y1394463D01*
X767530Y1394855D01*
X766525Y1395486D01*
X765686Y1396325D01*
X765055Y1397330D01*
X764663Y1398451D01*
X764530Y1399627D01*
X764530Y1407633D01*
X764663Y1408809D01*
X765055Y1409930D01*
X765686Y1410935D01*
X766525Y1411774D01*
X767530Y1412405D01*
X768651Y1412797D01*
G37*
G36*
X768651Y1412797D02*
X769830Y1412930D01*
X771009Y1412797D01*
X772130Y1412405D01*
X773135Y1411774D01*
X773974Y1410935D01*
X774605Y1409930D01*
X774997Y1408809D01*
X775130Y1407633D01*
X775130Y1399627D01*
X774997Y1398451D01*
X774605Y1397330D01*
X773974Y1396325D01*
X773135Y1395486D01*
X772130Y1394855D01*
X771009Y1394463D01*
X769830Y1394330D01*
X768651Y1394463D01*
X767530Y1394855D01*
X766525Y1395486D01*
X765686Y1396325D01*
X765055Y1397330D01*
X764663Y1398451D01*
X764530Y1399627D01*
X764530Y1407633D01*
X764663Y1408809D01*
X765055Y1409930D01*
X765686Y1410935D01*
X766525Y1411774D01*
X767530Y1412405D01*
X768651Y1412797D01*
G37*
G36*
X578603Y1085344D02*
X578603Y1092202D01*
X590287Y1092202D01*
X590287Y1085344D01*
X578603Y1085344D01*
G37*
G36*
X613273Y1085344D02*
X613273Y1092202D01*
X624957Y1092202D01*
X624957Y1085344D01*
X613273Y1085344D01*
G37*
G36*
X688223Y1086144D02*
X688223Y1093002D01*
X699907Y1093002D01*
X699907Y1086144D01*
X688223Y1086144D01*
G37*
G36*
X722893Y1086144D02*
X722893Y1093002D01*
X734577Y1093002D01*
X734577Y1086144D01*
X722893Y1086144D01*
G37*
G36*
X797643Y1085744D02*
X797643Y1092602D01*
X809327Y1092602D01*
X809327Y1085744D01*
X797643Y1085744D01*
G37*
G36*
X832313Y1085744D02*
X832313Y1092602D01*
X843997Y1092602D01*
X843997Y1085744D01*
X832313Y1085744D01*
G37*
D10*
X875384Y1387255D03*
X905384Y1387255D03*
D11*
X791980Y1265110D03*
X791980Y1260010D03*
D12*
X825270Y1168800D03*
X825270Y1178800D03*
D13*
X776410Y1255580D03*
X781510Y1255580D03*
X776180Y1263580D03*
X781280Y1263580D03*
D11*
X765140Y1283780D03*
X765140Y1288880D03*
X757030Y1282280D03*
X757030Y1287380D03*
D14*
X707670Y1285990D03*
X697670Y1285990D03*
D12*
X738910Y1283740D03*
X738910Y1293740D03*
D11*
X748940Y1286560D03*
X748940Y1291660D03*
X671520Y1258090D03*
X671520Y1263190D03*
X671280Y1239980D03*
X671280Y1234880D03*
D13*
X634650Y1378200D03*
X629550Y1378200D03*
X801700Y1302820D03*
X796600Y1302820D03*
D14*
X670910Y1188890D03*
X680910Y1188890D03*
X714900Y1200530D03*
X724900Y1200530D03*
X703170Y1198050D03*
X693170Y1198050D03*
D11*
X795580Y1240490D03*
X795580Y1235390D03*
D15*
X545833Y1357104D03*
X545833Y1362604D03*
D12*
X556159Y1345123D03*
X556159Y1355123D03*
X498340Y1353478D03*
X498340Y1343478D03*
D16*
X881650Y1132500D03*
X887150Y1132500D03*
D15*
X587100Y1125350D03*
X587100Y1119850D03*
D13*
X777500Y1237200D03*
X782600Y1237200D03*
D15*
X697700Y1123350D03*
X697700Y1117850D03*
X787700Y1100650D03*
X787700Y1106150D03*
D16*
X515650Y1147900D03*
X521150Y1147900D03*
D12*
X500587Y1364667D03*
X500587Y1374667D03*
D16*
X529350Y1107500D03*
X523850Y1107500D03*
X599740Y1380700D03*
X594240Y1380700D03*
D15*
X594188Y1395970D03*
X594188Y1401470D03*
D14*
X597580Y1389468D03*
X607580Y1389468D03*
D11*
X795580Y1247020D03*
X795580Y1252120D03*
D15*
X632300Y1310350D03*
X632300Y1304850D03*
D12*
X640500Y1310400D03*
X640500Y1300400D03*
D11*
X687420Y1274480D03*
X687420Y1279580D03*
D12*
X692020Y1222560D03*
X692020Y1212560D03*
D11*
X783140Y1203300D03*
X783140Y1208400D03*
D13*
X777500Y1229080D03*
X782600Y1229080D03*
D17*
X680800Y1299000D03*
X680800Y1308500D03*
X680800Y1318000D03*
X655800Y1318000D03*
X655800Y1308500D03*
X655800Y1299000D03*
D18*
X690940Y1170460D03*
X690940Y1135460D03*
X655770Y1136540D03*
X655770Y1171540D03*
X726540Y1135810D03*
X726540Y1170810D03*
D14*
X631100Y1275600D03*
X621100Y1275600D03*
X631500Y1183100D03*
X621500Y1183100D03*
X631500Y1168100D03*
X621500Y1168100D03*
X624400Y1154300D03*
X614400Y1154300D03*
X630800Y1286500D03*
X620800Y1286500D03*
D11*
X610400Y1255450D03*
X610400Y1250350D03*
D14*
X631300Y1240500D03*
X621300Y1240500D03*
X631400Y1225300D03*
X621400Y1225300D03*
X633300Y1211500D03*
X623300Y1211500D03*
X631200Y1197300D03*
X621200Y1197300D03*
D19*
X574410Y1401010D03*
X578410Y1401010D03*
X574410Y1397010D03*
X578410Y1397010D03*
X574410Y1393010D03*
X578410Y1393010D03*
X574410Y1389010D03*
X578410Y1389010D03*
D20*
X517800Y1132900D03*
X522800Y1132900D03*
X527800Y1132900D03*
X517800Y1127900D03*
X522800Y1127900D03*
X527800Y1127900D03*
X517800Y1122900D03*
X522800Y1122900D03*
X527800Y1122900D03*
D21*
X609750Y1359900D03*
X609750Y1354900D03*
X609750Y1349900D03*
X609750Y1344900D03*
D22*
X615000Y1344650D03*
X620000Y1344650D03*
D21*
X625250Y1344900D03*
X625250Y1349900D03*
X625250Y1354900D03*
X625250Y1359900D03*
D22*
X620000Y1360150D03*
X615000Y1360150D03*
D23*
X535080Y1361150D03*
X535080Y1357150D03*
X535080Y1353150D03*
X531080Y1361150D03*
X531080Y1357150D03*
X531080Y1353150D03*
X527080Y1361150D03*
X527080Y1357150D03*
X527080Y1353150D03*
X523080Y1361150D03*
X523080Y1357150D03*
X523080Y1353150D03*
X519080Y1361150D03*
X519080Y1357150D03*
X519080Y1353150D03*
D24*
X590620Y1297490D03*
X590620Y1292490D03*
X590620Y1287490D03*
X590620Y1282490D03*
X590620Y1277490D03*
X590620Y1272490D03*
X590620Y1267490D03*
X590620Y1262490D03*
X590620Y1257490D03*
X590620Y1252490D03*
X590620Y1247490D03*
X590620Y1242490D03*
X590620Y1237490D03*
X590620Y1232490D03*
X590620Y1227490D03*
X590620Y1222490D03*
X590620Y1217490D03*
X590620Y1212490D03*
X590620Y1207490D03*
X590620Y1202490D03*
X590620Y1197490D03*
X590620Y1192490D03*
X590620Y1187490D03*
X590620Y1182490D03*
D25*
X564120Y1305390D03*
X564120Y1174590D03*
D26*
X857060Y1290270D03*
X869760Y1290270D03*
X857060Y1277570D03*
X869760Y1277570D03*
X857060Y1264860D03*
X869760Y1264860D03*
D27*
X729130Y1356380D03*
X734130Y1356380D03*
X739130Y1356380D03*
X744130Y1356380D03*
X724130Y1356380D03*
X719130Y1356380D03*
X714130Y1356380D03*
X709130Y1356380D03*
D28*
X758630Y1356380D03*
X750630Y1356380D03*
X702630Y1356380D03*
X694630Y1356380D03*
D29*
X769830Y1403630D03*
X683430Y1403630D03*
X769830Y1362130D03*
X683430Y1362130D03*
D30*
X777330Y1246290D03*
X787330Y1246290D03*
D31*
X718250Y1283030D03*
X718250Y1293030D03*
X728420Y1293030D03*
X728420Y1283030D03*
D32*
X790560Y1126560D03*
X790560Y1172280D03*
D33*
X523052Y1324970D03*
X502492Y1324970D03*
D34*
X838600Y1159800D03*
X857600Y1159800D03*
X848100Y1180800D03*
D35*
X844390Y1124650D03*
X857390Y1124650D03*
X850890Y1145650D03*
D15*
X692930Y1117650D03*
X692930Y1123150D03*
D16*
X559350Y1372500D03*
X553850Y1372500D03*
X553350Y1399900D03*
X547850Y1399900D03*
D15*
X859100Y1103950D03*
X859100Y1109450D03*
X737900Y1324650D03*
X737900Y1330150D03*
X516700Y1382350D03*
X516700Y1376850D03*
D16*
X845074Y1108100D03*
X850574Y1108100D03*
D15*
X704900Y1336350D03*
X704900Y1330850D03*
D16*
X536010Y1377900D03*
X530510Y1377900D03*
D15*
X581300Y1119650D03*
X581300Y1125150D03*
X779530Y1104650D03*
X779530Y1110150D03*
D16*
X575318Y1374844D03*
X569818Y1374844D03*
D15*
X823700Y1150350D03*
X823700Y1144850D03*
D16*
X877450Y1101800D03*
X871950Y1101800D03*
D36*
X859860Y1085740D03*
X875100Y1085740D03*
D37*
X615782Y1108521D03*
X587778Y1108521D03*
D38*
X620258Y1094996D03*
X583302Y1094996D03*
D39*
X601780Y1110045D03*
D37*
X834822Y1108921D03*
X806818Y1108921D03*
D38*
X839298Y1095396D03*
X802342Y1095396D03*
D39*
X820820Y1110445D03*
D37*
X725402Y1109321D03*
X697398Y1109321D03*
D38*
X729878Y1095796D03*
X692922Y1095796D03*
D39*
X711400Y1110845D03*
D40*
X588900Y1147700D03*
X546100Y1145700D03*
X550300Y1118700D03*
X809100Y1200000D03*
X579807Y1356395D03*
X911462Y1199400D03*
X917538Y1240900D03*
X546900Y1385700D03*
X526823Y1393530D03*
X924538Y1268900D03*
X924538Y1309900D03*
X759900Y1190900D03*
X907100Y1127800D03*
X566294Y1325352D03*
D13*
X735400Y1202360D03*
X740500Y1202360D03*
D41*
X736600Y1241900D03*
D19*
X709100Y1241900D03*
X709100Y1246900D03*
X709100Y1251900D03*
X709100Y1256900D03*
X709100Y1261900D03*
X704100Y1264400D03*
X704100Y1254400D03*
X704100Y1249400D03*
X704100Y1244400D03*
X704100Y1239400D03*
X709100Y1236900D03*
X709100Y1231900D03*
X704100Y1234400D03*
X704100Y1229400D03*
X704100Y1224400D03*
X709100Y1221900D03*
X709100Y1216900D03*
X709100Y1209400D03*
X714100Y1209400D03*
X716600Y1214400D03*
X719100Y1209400D03*
X724100Y1209400D03*
X729100Y1209400D03*
X734100Y1209400D03*
X739100Y1209400D03*
X744100Y1209400D03*
X749100Y1209400D03*
X754100Y1209400D03*
X759100Y1209400D03*
X764100Y1209400D03*
X756600Y1214400D03*
X751600Y1214400D03*
X746600Y1214400D03*
X741600Y1214400D03*
X736600Y1214400D03*
X731600Y1214400D03*
X726600Y1214400D03*
X764100Y1221900D03*
X769100Y1219400D03*
X769100Y1214400D03*
X769100Y1224400D03*
X764100Y1226900D03*
X769100Y1229400D03*
X764100Y1231900D03*
X764100Y1236900D03*
X769100Y1234400D03*
X769100Y1239400D03*
X769100Y1244400D03*
X769100Y1249400D03*
X764100Y1251900D03*
X764100Y1256900D03*
X769100Y1259400D03*
X764100Y1261900D03*
X769100Y1269400D03*
X704100Y1269400D03*
X716600Y1269400D03*
X721600Y1269400D03*
X726600Y1269400D03*
X729100Y1274400D03*
X731600Y1269400D03*
X734100Y1274400D03*
X736600Y1269400D03*
X739100Y1274400D03*
X741600Y1269400D03*
X744100Y1274400D03*
X746600Y1269400D03*
X749100Y1274400D03*
X751600Y1269400D03*
X754100Y1274400D03*
X759100Y1274400D03*
X764100Y1274400D03*
X711600Y1269400D03*
X724100Y1274400D03*
D42*
X730600Y1247900D03*
X718600Y1247900D03*
X718600Y1259900D03*
X730600Y1259900D03*
X742600Y1259900D03*
X754600Y1259900D03*
X754600Y1247900D03*
X742600Y1247900D03*
X718600Y1235900D03*
X730600Y1235900D03*
X742600Y1235900D03*
X754600Y1235900D03*
X754600Y1223900D03*
X742600Y1223900D03*
X730600Y1223900D03*
X718600Y1223900D03*
D43*
X879413Y1164213D02*
X879413Y1157287D01*
X877387Y1157287D01*
X877387Y1164213D01*
X879413Y1164213D01*
X879413Y1157928D02*
X877387Y1157928D01*
X877387Y1158569D02*
X879413Y1158569D01*
X879413Y1159210D02*
X877387Y1159210D01*
X877387Y1159851D02*
X879413Y1159851D01*
X879413Y1160492D02*
X877387Y1160492D01*
X877387Y1161133D02*
X879413Y1161133D01*
X879413Y1161774D02*
X877387Y1161774D01*
X877387Y1162415D02*
X879413Y1162415D01*
X879413Y1163056D02*
X877387Y1163056D01*
X877387Y1163697D02*
X879413Y1163697D01*
X884413Y1164213D02*
X884413Y1157287D01*
X882387Y1157287D01*
X882387Y1164213D01*
X884413Y1164213D01*
X884413Y1157928D02*
X882387Y1157928D01*
X882387Y1158569D02*
X884413Y1158569D01*
X884413Y1159210D02*
X882387Y1159210D01*
X882387Y1159851D02*
X884413Y1159851D01*
X884413Y1160492D02*
X882387Y1160492D01*
X882387Y1161133D02*
X884413Y1161133D01*
X884413Y1161774D02*
X882387Y1161774D01*
X882387Y1162415D02*
X884413Y1162415D01*
X884413Y1163056D02*
X882387Y1163056D01*
X882387Y1163697D02*
X884413Y1163697D01*
X889413Y1164213D02*
X889413Y1157287D01*
X887387Y1157287D01*
X887387Y1164213D01*
X889413Y1164213D01*
X889413Y1157928D02*
X887387Y1157928D01*
X887387Y1158569D02*
X889413Y1158569D01*
X889413Y1159210D02*
X887387Y1159210D01*
X887387Y1159851D02*
X889413Y1159851D01*
X889413Y1160492D02*
X887387Y1160492D01*
X887387Y1161133D02*
X889413Y1161133D01*
X889413Y1161774D02*
X887387Y1161774D01*
X887387Y1162415D02*
X889413Y1162415D01*
X889413Y1163056D02*
X887387Y1163056D01*
X887387Y1163697D02*
X889413Y1163697D01*
X894413Y1164213D02*
X894413Y1157287D01*
X892387Y1157287D01*
X892387Y1164213D01*
X894413Y1164213D01*
X894413Y1157928D02*
X892387Y1157928D01*
X892387Y1158569D02*
X894413Y1158569D01*
X894413Y1159210D02*
X892387Y1159210D01*
X892387Y1159851D02*
X894413Y1159851D01*
X894413Y1160492D02*
X892387Y1160492D01*
X892387Y1161133D02*
X894413Y1161133D01*
X894413Y1161774D02*
X892387Y1161774D01*
X892387Y1162415D02*
X894413Y1162415D01*
X894413Y1163056D02*
X892387Y1163056D01*
X892387Y1163697D02*
X894413Y1163697D01*
X894413Y1176987D02*
X894413Y1183913D01*
X894413Y1176987D02*
X892387Y1176987D01*
X892387Y1183913D01*
X894413Y1183913D01*
X894413Y1177628D02*
X892387Y1177628D01*
X892387Y1178269D02*
X894413Y1178269D01*
X894413Y1178910D02*
X892387Y1178910D01*
X892387Y1179551D02*
X894413Y1179551D01*
X894413Y1180192D02*
X892387Y1180192D01*
X892387Y1180833D02*
X894413Y1180833D01*
X894413Y1181474D02*
X892387Y1181474D01*
X892387Y1182115D02*
X894413Y1182115D01*
X894413Y1182756D02*
X892387Y1182756D01*
X892387Y1183397D02*
X894413Y1183397D01*
X889413Y1183913D02*
X889413Y1176987D01*
X887387Y1176987D01*
X887387Y1183913D01*
X889413Y1183913D01*
X889413Y1177628D02*
X887387Y1177628D01*
X887387Y1178269D02*
X889413Y1178269D01*
X889413Y1178910D02*
X887387Y1178910D01*
X887387Y1179551D02*
X889413Y1179551D01*
X889413Y1180192D02*
X887387Y1180192D01*
X887387Y1180833D02*
X889413Y1180833D01*
X889413Y1181474D02*
X887387Y1181474D01*
X887387Y1182115D02*
X889413Y1182115D01*
X889413Y1182756D02*
X887387Y1182756D01*
X887387Y1183397D02*
X889413Y1183397D01*
X884413Y1183913D02*
X884413Y1176987D01*
X882387Y1176987D01*
X882387Y1183913D01*
X884413Y1183913D01*
X884413Y1177628D02*
X882387Y1177628D01*
X882387Y1178269D02*
X884413Y1178269D01*
X884413Y1178910D02*
X882387Y1178910D01*
X882387Y1179551D02*
X884413Y1179551D01*
X884413Y1180192D02*
X882387Y1180192D01*
X882387Y1180833D02*
X884413Y1180833D01*
X884413Y1181474D02*
X882387Y1181474D01*
X882387Y1182115D02*
X884413Y1182115D01*
X884413Y1182756D02*
X882387Y1182756D01*
X882387Y1183397D02*
X884413Y1183397D01*
X879413Y1183913D02*
X879413Y1176987D01*
X877387Y1176987D01*
X877387Y1183913D01*
X879413Y1183913D01*
X879413Y1177628D02*
X877387Y1177628D01*
X877387Y1178269D02*
X879413Y1178269D01*
X879413Y1178910D02*
X877387Y1178910D01*
X877387Y1179551D02*
X879413Y1179551D01*
X879413Y1180192D02*
X877387Y1180192D01*
X877387Y1180833D02*
X879413Y1180833D01*
X879413Y1181474D02*
X877387Y1181474D01*
X877387Y1182115D02*
X879413Y1182115D01*
X879413Y1182756D02*
X877387Y1182756D01*
X877387Y1183397D02*
X879413Y1183397D01*
D44*
X885900Y1170600D03*
D45*
X789290Y1276980D03*
X803790Y1276980D03*
X803790Y1288480D03*
X789290Y1288480D03*
D46*
X687200Y1261840D03*
X687200Y1236840D03*
D16*
X614750Y1376000D03*
X609250Y1376000D03*
D47*
X526823Y1393530D02*
X516700Y1383407D01*
X516700Y1382350D01*
X547000Y1399900D02*
X547850Y1399900D01*
X547000Y1399900D02*
X533193Y1399900D01*
X526823Y1393530D01*
X554330Y1403670D02*
X555437Y1403670D01*
X554330Y1403670D02*
X554000Y1404000D01*
X566097Y1393010D02*
X574410Y1393010D01*
X566097Y1393010D02*
X555437Y1403670D01*
X554000Y1404000D02*
X551100Y1404000D01*
X547000Y1399900D01*
X526823Y1393530D02*
X519293Y1386000D01*
X506000Y1386000D01*
D48*
X506000Y1386000D03*
X602000Y1355000D03*
D47*
X609650Y1355000D01*
X609750Y1354900D01*
D49*
X604000Y1325000D03*
D47*
X620000Y1309000D01*
X620000Y1307000D01*
D49*
X620000Y1307000D03*
X676000Y1253000D03*
D47*
X702100Y1244400D02*
X704100Y1244400D01*
X702100Y1244400D02*
X698500Y1248000D01*
X682000Y1248000D01*
X677000Y1253000D01*
X676000Y1253000D01*
D50*
X594240Y1380700D02*
X581930Y1393010D01*
X578410Y1393010D01*
D47*
X574410Y1389010D02*
X574410Y1385010D01*
X569818Y1380418D01*
X569818Y1374844D01*
D51*
X709100Y1231900D03*
D48*
X572000Y1408000D03*
D47*
X574410Y1405590D01*
X574410Y1401010D01*
D50*
X593728Y1401010D02*
X594188Y1401470D01*
X709100Y1209400D02*
X703170Y1203470D01*
X703170Y1198050D01*
X671000Y1216000D02*
X649000Y1238000D01*
X649000Y1254000D01*
X648000Y1255000D01*
D49*
X648000Y1255000D03*
X611000Y1287000D03*
D50*
X612000Y1288000D02*
X612000Y1294000D01*
X612000Y1288000D02*
X611000Y1287000D01*
X612000Y1294000D02*
X608000Y1298000D01*
D49*
X608000Y1298000D03*
X617000Y1394000D03*
D50*
X606000Y1405000D01*
X589738Y1405000D01*
X582400Y1405000D02*
X578410Y1401010D01*
X582400Y1405000D02*
X589738Y1405000D01*
X593728Y1401010D01*
X671000Y1216000D02*
X671000Y1209000D01*
D49*
X671000Y1209000D03*
X699000Y1188000D03*
D50*
X703170Y1192170D01*
X703170Y1198050D01*
X535080Y1353150D02*
X535080Y1357150D01*
X535080Y1361150D01*
D48*
X563000Y1363000D03*
D50*
X563000Y1361964D01*
X556159Y1355123D01*
D48*
X587528Y1394528D03*
D50*
X592588Y1389468D02*
X597580Y1389468D01*
X592588Y1389468D02*
X587528Y1394528D01*
X585046Y1397010D02*
X578410Y1397010D01*
X585046Y1397010D02*
X587528Y1394528D01*
X566294Y1347352D02*
X566294Y1325352D01*
X566294Y1347352D02*
X558523Y1355123D01*
X556159Y1355123D01*
X552229Y1364000D02*
X562000Y1364000D01*
X552229Y1364000D02*
X550833Y1362604D01*
X545833Y1362604D01*
X562000Y1364000D02*
X563000Y1363000D01*
X535080Y1361150D02*
X535080Y1365080D01*
X539000Y1369000D01*
D49*
X539000Y1369000D03*
D47*
X569990Y1397010D02*
X574410Y1397010D01*
X569990Y1397010D02*
X565000Y1402000D01*
D48*
X565000Y1402000D03*
X561000Y1386000D03*
X615000Y1366000D03*
D47*
X615000Y1360150D01*
D51*
X709100Y1241900D03*
D49*
X644000Y1401000D03*
D47*
X638000Y1401000D01*
X619000Y1382000D01*
X619000Y1370000D01*
X615000Y1366000D01*
X883400Y1200600D02*
X883400Y1180450D01*
X883400Y1200600D02*
X877000Y1207000D01*
X865000Y1207000D01*
D49*
X865000Y1207000D03*
D47*
X546900Y1385700D02*
X540100Y1378900D01*
X536010Y1377900D01*
X546900Y1379450D02*
X553850Y1372500D01*
X546900Y1379450D02*
X546900Y1385700D01*
X560700Y1385700D02*
X561000Y1386000D01*
X560700Y1385700D02*
X546900Y1385700D01*
D49*
X806000Y1263000D03*
D47*
X818000Y1251000D01*
X818000Y1234000D01*
D49*
X818000Y1234000D03*
D47*
X531080Y1332998D02*
X531080Y1353150D01*
X531080Y1332998D02*
X523052Y1324970D01*
X531080Y1353150D02*
X531080Y1357150D01*
D50*
X577349Y1356395D02*
X579807Y1356395D01*
X500587Y1355725D02*
X500587Y1364667D01*
X500587Y1355725D02*
X498340Y1353478D01*
X513000Y1353150D02*
X519080Y1353150D01*
X513000Y1353150D02*
X498668Y1353150D01*
X498340Y1353478D01*
X853765Y1293565D02*
X857060Y1290270D01*
X853765Y1293565D02*
X853765Y1309496D01*
X557084Y1397032D02*
X556218Y1397032D01*
X553350Y1399900D01*
X707670Y1285990D02*
X707670Y1272970D01*
X704100Y1269400D01*
D48*
X657000Y1338000D03*
X706500Y1302500D03*
D50*
X707670Y1301330D01*
X707670Y1297000D01*
X707670Y1285990D01*
X760330Y1275962D02*
X760330Y1275630D01*
X759100Y1274400D01*
X765140Y1280772D02*
X765140Y1283780D01*
X765140Y1280772D02*
X760330Y1275962D01*
X769000Y1303000D02*
X786000Y1320000D01*
X702260Y1222560D02*
X692020Y1222560D01*
X702260Y1222560D02*
X704100Y1224400D01*
X706600Y1221900D02*
X709100Y1221900D01*
X706600Y1221900D02*
X704100Y1224400D01*
X586302Y1349900D02*
X579807Y1356395D01*
X586302Y1349900D02*
X589000Y1349900D01*
X596000Y1349900D01*
X609750Y1349900D01*
X707670Y1297000D02*
X718670Y1308000D01*
X764000Y1308000D02*
X769000Y1303000D01*
X764000Y1308000D02*
X718670Y1308000D01*
X766886Y1206614D02*
X783140Y1203300D01*
X766886Y1206614D02*
X764100Y1209400D01*
X736330Y1205657D02*
X736330Y1203290D01*
X735400Y1202360D01*
X739100Y1208427D02*
X739100Y1209400D01*
X739100Y1208427D02*
X736330Y1205657D01*
D49*
X704100Y1269400D03*
X679000Y1287000D03*
D50*
X660000Y1268000D01*
X660000Y1248000D01*
X661000Y1247000D01*
D49*
X661000Y1247000D03*
X677000Y1223000D03*
D50*
X691580Y1223000D01*
X692020Y1222560D01*
D51*
X764100Y1209400D03*
X739100Y1209400D03*
X709100Y1221900D03*
D50*
X765140Y1283780D02*
X770780Y1283780D01*
X774000Y1287000D01*
X774000Y1290000D01*
D49*
X774000Y1290000D03*
X769000Y1303000D03*
D50*
X601000Y1344900D02*
X596000Y1349900D01*
X601000Y1344900D02*
X601000Y1337000D01*
X604000Y1334000D01*
X609000Y1334000D01*
D49*
X609000Y1334000D03*
X632000Y1343000D03*
D50*
X630100Y1344900D01*
X625250Y1344900D01*
X567000Y1387116D02*
X557084Y1397032D01*
X567000Y1387116D02*
X567000Y1383000D01*
X565000Y1381000D01*
X562000Y1381000D01*
X559350Y1378350D01*
X559350Y1372500D01*
X513000Y1353150D02*
X511000Y1355150D01*
X511000Y1367000D01*
D49*
X511000Y1367000D03*
X590000Y1338000D03*
D50*
X593000Y1341000D01*
X593000Y1345900D01*
X589000Y1349900D01*
X850000Y1313261D02*
X853765Y1309496D01*
X850000Y1313261D02*
X850000Y1318000D01*
X846000Y1322000D01*
X815000Y1322000D01*
X813000Y1320000D01*
X786000Y1320000D01*
X783140Y1203300D02*
X805800Y1203300D01*
X809100Y1200000D01*
X519080Y1353150D02*
X519080Y1357150D01*
X632000Y1343000D02*
X652000Y1343000D01*
X657000Y1338000D01*
X652800Y1378200D02*
X634650Y1378200D01*
X625250Y1359900D02*
X655100Y1359900D01*
X657000Y1358000D01*
D49*
X657000Y1358000D03*
D50*
X657000Y1374000D02*
X652800Y1378200D01*
D49*
X657000Y1374000D03*
D50*
X563702Y1372500D02*
X559350Y1372500D01*
X563702Y1372500D02*
X579807Y1356395D01*
D47*
X523080Y1353150D02*
X523080Y1351558D01*
X502492Y1330970D01*
X502492Y1324970D01*
X523080Y1353150D02*
X523080Y1357150D01*
D48*
X525000Y1376000D03*
X525000Y1366600D03*
D47*
X525000Y1363454D01*
X523980Y1362434D01*
X523980Y1362050D01*
X523080Y1361150D01*
X525000Y1376000D02*
X526900Y1377900D01*
X530510Y1377900D01*
X519080Y1366920D02*
X519080Y1361150D01*
X519080Y1366920D02*
X519000Y1367000D01*
D48*
X519000Y1367000D03*
X509000Y1377000D03*
D47*
X509150Y1376850D02*
X516700Y1376850D01*
X509150Y1376850D02*
X509000Y1377000D01*
D51*
X709100Y1236900D03*
D49*
X643000Y1320000D03*
D47*
X620000Y1343000D01*
X620000Y1344650D01*
X704100Y1239400D02*
X700000Y1235300D01*
X700000Y1231000D01*
X698000Y1229000D01*
X670000Y1229000D01*
X667000Y1226000D01*
X653000Y1240000D01*
X653000Y1271000D01*
X657000Y1275000D01*
X657000Y1286000D02*
X659000Y1288000D01*
X657000Y1286000D02*
X657000Y1275000D01*
D49*
X659000Y1288000D03*
X634000Y1317000D03*
D47*
X615000Y1336000D01*
X615000Y1344650D01*
X609250Y1367250D02*
X609250Y1376000D01*
X609250Y1367250D02*
X607000Y1365000D01*
X607000Y1362650D01*
X609750Y1359900D01*
X759100Y1209400D02*
X758900Y1209200D01*
X758900Y1191900D01*
X759900Y1190900D01*
X869760Y1290270D02*
X880290Y1290270D01*
X882595Y1287965D01*
D48*
X837000Y1237000D03*
D47*
X769100Y1215100D02*
X769100Y1214400D01*
D48*
X821556Y1217444D03*
D47*
X819052Y1219948D01*
X802079Y1219948D01*
X775030Y1221030D02*
X769100Y1215100D01*
X775030Y1221030D02*
X800997Y1221030D01*
X802079Y1219948D01*
D49*
X893000Y1240000D03*
X909000Y1296000D03*
D47*
X853000Y1235000D02*
X856000Y1232000D01*
X885000Y1232000D01*
X893000Y1240000D01*
X909000Y1296000D02*
X922900Y1309900D01*
X924538Y1309900D01*
X900965Y1287965D02*
X882595Y1287965D01*
X900965Y1287965D02*
X909000Y1296000D01*
X848000Y1237000D02*
X837000Y1237000D01*
X848000Y1237000D02*
X853000Y1235000D01*
X869760Y1277570D02*
X876000Y1283810D01*
X876000Y1284000D01*
D48*
X876000Y1284000D03*
X910000Y1278000D03*
D47*
X915438Y1278000D01*
X924538Y1268900D01*
X869760Y1277570D02*
X864000Y1271810D01*
D48*
X862000Y1257000D03*
D47*
X864000Y1267493D02*
X864000Y1271810D01*
X864000Y1267493D02*
X863825Y1267318D01*
X863825Y1258825D01*
D48*
X837000Y1226000D03*
D47*
X774610Y1224910D02*
X769100Y1219400D01*
X836718Y1226282D02*
X837000Y1226000D01*
X806774Y1222718D02*
X803226Y1222718D01*
X810338Y1226282D02*
X836718Y1226282D01*
X810338Y1226282D02*
X806774Y1222718D01*
X803226Y1222718D02*
X801034Y1224910D01*
X774610Y1224910D01*
X862000Y1257000D02*
X863825Y1258825D01*
X869760Y1264860D02*
X873950Y1264860D01*
X882595Y1256215D01*
X902223Y1256215D02*
X917538Y1240900D01*
X902223Y1256215D02*
X882595Y1256215D01*
D49*
X869760Y1264860D03*
D51*
X736600Y1214400D03*
D47*
X686240Y1234880D02*
X671280Y1234880D01*
X686240Y1234880D02*
X687680Y1236320D01*
X687180Y1236820D02*
X686680Y1236320D01*
X687180Y1236820D02*
X687200Y1236840D01*
X705900Y1256900D02*
X709100Y1256900D01*
X705900Y1256900D02*
X704200Y1258600D01*
X702600Y1258600D01*
X696000Y1252000D01*
X685200Y1252000D01*
X684400Y1252800D01*
D49*
X684400Y1252800D03*
X676400Y1246600D03*
D47*
X686680Y1236320D01*
X687180Y1236820D02*
X687680Y1236320D01*
X687200Y1261840D02*
X690000Y1261840D01*
X690460Y1261380D02*
X708580Y1261380D01*
X709100Y1261900D01*
X688650Y1263190D02*
X671520Y1263190D01*
X688650Y1263190D02*
X690000Y1261840D01*
X690460Y1261380D01*
X702460Y1264400D02*
X704100Y1264400D01*
X692040Y1269860D02*
X687420Y1274480D01*
X692040Y1269860D02*
X697000Y1269860D01*
X702460Y1264400D01*
D48*
X700000Y1210000D03*
X713000Y1190000D03*
D47*
X714900Y1191900D01*
X714900Y1200530D01*
X715600Y1213400D02*
X716600Y1214400D01*
X715600Y1213400D02*
X703400Y1213400D01*
X700000Y1210000D01*
X767920Y1274400D02*
X782520Y1289000D01*
X767920Y1274400D02*
X764100Y1274400D01*
X782520Y1299480D02*
X782000Y1300000D01*
X782520Y1299480D02*
X782520Y1289000D01*
D49*
X782000Y1300000D03*
X810000Y1307000D03*
D47*
X813000Y1304000D01*
X813000Y1297690D01*
X803790Y1288480D01*
X801700Y1302820D02*
X805880Y1307000D01*
X810000Y1307000D01*
X775700Y1276000D02*
X769100Y1269400D01*
X775700Y1276000D02*
X788310Y1276000D01*
X789290Y1276980D01*
X789290Y1267800D01*
X791980Y1265110D01*
X764100Y1266100D02*
X764100Y1261900D01*
X764100Y1266100D02*
X765000Y1267000D01*
X767229Y1267000D01*
X767849Y1266380D01*
X773380Y1266380D02*
X776180Y1263580D01*
X773380Y1266380D02*
X767849Y1266380D01*
X729130Y1283740D02*
X728420Y1283030D01*
X729130Y1283740D02*
X738910Y1283740D01*
X728420Y1283030D02*
X721020Y1275630D01*
X721020Y1274903D01*
X716600Y1270483D01*
X716600Y1269400D01*
X769100Y1259400D02*
X772590Y1259400D01*
X776410Y1255580D01*
D51*
X769100Y1259400D03*
D48*
X747000Y1279000D03*
D47*
X747000Y1284620D01*
X748940Y1286560D01*
X742260Y1283740D02*
X738910Y1283740D01*
X742260Y1283740D02*
X747000Y1279000D01*
X769100Y1239400D02*
X773000Y1235500D01*
X773000Y1232000D01*
X775920Y1229080D01*
X777500Y1229080D01*
X835643Y1108100D02*
X845074Y1108100D01*
X835643Y1108100D02*
X834822Y1108921D01*
X531080Y1361150D02*
X527080Y1361150D01*
X527080Y1357150D01*
X527080Y1353150D01*
X738910Y1293740D02*
X746860Y1293740D01*
X748940Y1291660D01*
X857060Y1277570D02*
X857060Y1264860D01*
X787700Y1100650D02*
X770650Y1100650D01*
X764000Y1094000D01*
D49*
X764000Y1094000D03*
D47*
X859860Y1085740D02*
X859860Y1074140D01*
X863000Y1071000D01*
X883000Y1071000D01*
X888000Y1076000D01*
X888000Y1091250D01*
X877450Y1101800D01*
X845074Y1104926D02*
X845074Y1108100D01*
X845074Y1104926D02*
X859860Y1090140D01*
X859860Y1085740D01*
D48*
X644000Y1108000D03*
X667000Y1135000D03*
D47*
X640500Y1300400D02*
X636750Y1300400D01*
X632300Y1304850D01*
X888400Y1180450D02*
X888400Y1173100D01*
X885900Y1170600D01*
X853200Y1261000D02*
X857060Y1264860D01*
X853200Y1261000D02*
X849000Y1261000D01*
D51*
X721600Y1269400D03*
D47*
X736600Y1254400D01*
X736600Y1241900D01*
X757600Y1256900D02*
X764100Y1256900D01*
X757600Y1256900D02*
X754600Y1259900D01*
X777330Y1246290D02*
X777500Y1246120D01*
X777500Y1237200D01*
X764100Y1251900D02*
X765200Y1253000D01*
X771000Y1253000D01*
X777330Y1246670D01*
X777330Y1246290D01*
X787330Y1246290D02*
X788060Y1247020D01*
X795580Y1247020D01*
X795580Y1240490D01*
X797260Y1238810D01*
X798567Y1238810D01*
X802000Y1235377D01*
X802000Y1230000D01*
X805000Y1227000D01*
D48*
X805000Y1227000D03*
X796000Y1215000D03*
D47*
X795580Y1247020D02*
X803020Y1247020D01*
X805000Y1249000D01*
D49*
X805000Y1249000D03*
X867000Y1338000D03*
D47*
X867000Y1359000D01*
X875000Y1368000D01*
X875384Y1387255D01*
X728420Y1293030D02*
X718250Y1293030D01*
X749150Y1274400D02*
X757030Y1282280D01*
X749150Y1274400D02*
X749100Y1274400D01*
X718250Y1276050D02*
X718250Y1283030D01*
X718250Y1276050D02*
X711600Y1269400D01*
X710237Y1126670D02*
X713907Y1123000D01*
X650330Y1126670D02*
X633000Y1144000D01*
X650330Y1126670D02*
X710237Y1126670D01*
X633000Y1144000D02*
X633000Y1152000D01*
X643000Y1162000D01*
X643000Y1287000D01*
X631000Y1299000D01*
X594957Y1293970D02*
X592100Y1293970D01*
X590620Y1292490D01*
X619000Y1299000D02*
X631000Y1299000D01*
X619000Y1299000D02*
X615000Y1303000D01*
X603987Y1303000D01*
X594957Y1293970D01*
X844390Y1124650D02*
X850574Y1118466D01*
X850574Y1108100D01*
X747000Y1123000D02*
X713907Y1123000D01*
X747000Y1123000D02*
X753000Y1117000D01*
X800000Y1117000D01*
X802000Y1119000D01*
X838740Y1119000D01*
X844390Y1124650D01*
X592100Y1288970D02*
X590620Y1287490D01*
X592100Y1288970D02*
X594957Y1288970D01*
X597987Y1292000D02*
X606000Y1292000D01*
X597987Y1292000D02*
X594957Y1288970D01*
D48*
X606000Y1292000D03*
X780000Y1193000D03*
D47*
X804000Y1185000D02*
X808000Y1181000D01*
X804000Y1185000D02*
X788000Y1185000D01*
X780000Y1193000D01*
D48*
X808000Y1181000D03*
X834000Y1135000D03*
D47*
X857390Y1124650D02*
X859100Y1122940D01*
X859100Y1109450D01*
X857390Y1124650D02*
X847040Y1135000D01*
X834000Y1135000D01*
X615790Y1281490D02*
X591620Y1281490D01*
X590620Y1282490D01*
X615790Y1281490D02*
X620800Y1286500D01*
X619210Y1277490D02*
X590620Y1277490D01*
X619210Y1277490D02*
X621100Y1275600D01*
X600000Y1227490D02*
X590620Y1227490D01*
X757720Y1172280D02*
X790560Y1172280D01*
X757720Y1172280D02*
X756000Y1174000D01*
D48*
X756000Y1174000D03*
X621000Y1257000D03*
D47*
X848100Y1183241D02*
X848100Y1180800D01*
X848100Y1183241D02*
X825270Y1168800D01*
X794040Y1168800D01*
X790560Y1172280D01*
X595000Y1222490D02*
X590620Y1222490D01*
X595000Y1222490D02*
X600000Y1227490D01*
X607000Y1234490D01*
X607000Y1246950D01*
X610400Y1250350D01*
X614350Y1250350D01*
X621000Y1257000D01*
X598490Y1212490D02*
X590620Y1212490D01*
X598490Y1212490D02*
X608000Y1222000D01*
X608000Y1227200D01*
X621300Y1240500D01*
X603590Y1207490D02*
X590620Y1207490D01*
X603590Y1207490D02*
X621400Y1225300D01*
X612290Y1203490D02*
X591620Y1203490D01*
X590620Y1202490D01*
X620300Y1211500D02*
X623300Y1211500D01*
X620300Y1211500D02*
X612290Y1203490D01*
D48*
X610000Y1194000D03*
X709000Y1151000D03*
D47*
X709000Y1139000D02*
X712190Y1135810D01*
X709000Y1139000D02*
X709000Y1151000D01*
X712190Y1135810D02*
X726540Y1135810D01*
X606510Y1197490D02*
X590620Y1197490D01*
X606510Y1197490D02*
X610000Y1194000D01*
X606510Y1197490D02*
X621010Y1197490D01*
X621200Y1197300D01*
X594957Y1191010D02*
X592100Y1191010D01*
X590620Y1192490D01*
X602867Y1183100D02*
X621500Y1183100D01*
X602867Y1183100D02*
X594957Y1191010D01*
X618900Y1168100D02*
X621500Y1168100D01*
X618900Y1168100D02*
X612000Y1175000D01*
D48*
X612000Y1175000D03*
X680000Y1133718D03*
D47*
X689198Y1133718D02*
X690940Y1135460D01*
X689198Y1133718D02*
X680000Y1133718D01*
X594957Y1186010D02*
X592100Y1186010D01*
X590620Y1187490D01*
X605967Y1175000D02*
X612000Y1175000D01*
X605967Y1175000D02*
X594957Y1186010D01*
X590620Y1173490D02*
X609810Y1154300D01*
X590620Y1173490D02*
X590620Y1182490D01*
X609810Y1154300D02*
X614400Y1154300D01*
D51*
X522800Y1127900D03*
D49*
X872000Y1193000D03*
D47*
X878400Y1190600D02*
X878400Y1180450D01*
X878400Y1190600D02*
X876000Y1193000D01*
X872000Y1193000D01*
D50*
X891850Y1127800D02*
X907100Y1127800D01*
X891850Y1127800D02*
X887150Y1132500D01*
X887150Y1150150D01*
X888400Y1151400D01*
X888400Y1160750D01*
X883400Y1160750D02*
X883400Y1153900D01*
X887150Y1150150D01*
D47*
X670910Y1188890D02*
X655770Y1173750D01*
X655770Y1171540D01*
X670910Y1188890D02*
X689340Y1170460D01*
X690940Y1170460D01*
X726540Y1170810D02*
X738190Y1170810D01*
X752000Y1157000D01*
X752000Y1132000D01*
X757440Y1126560D01*
X790560Y1126560D01*
X691570Y1178230D02*
X680910Y1188890D01*
X691570Y1178230D02*
X695777Y1178230D01*
X703197Y1170810D02*
X726540Y1170810D01*
X703197Y1170810D02*
X695777Y1178230D01*
X830890Y1145650D02*
X850890Y1145650D01*
X830890Y1145650D02*
X811800Y1126560D01*
X790560Y1126560D01*
X861250Y1101800D02*
X871950Y1101800D01*
X861250Y1101800D02*
X859100Y1103950D01*
X871950Y1101800D02*
X871950Y1088890D01*
X875100Y1085740D01*
X823700Y1150350D02*
X833150Y1159800D01*
X838600Y1159800D01*
D50*
X522800Y1122900D02*
X522800Y1108550D01*
X523850Y1107500D01*
X573150Y1125150D02*
X581300Y1125150D01*
X573150Y1125150D02*
X567070Y1119070D01*
X567070Y1109411D01*
X559590Y1101930D02*
X549011Y1101930D01*
X548941Y1102000D01*
X526000Y1102000D01*
X522800Y1105200D01*
X522800Y1108550D01*
X761150Y1110150D02*
X779530Y1110150D01*
X761150Y1110150D02*
X760000Y1109000D01*
D48*
X760000Y1109000D03*
X668000Y1111000D03*
D50*
X690033Y1121670D02*
X691450Y1121670D01*
X692930Y1123150D01*
X679363Y1111000D02*
X668000Y1111000D01*
X679363Y1111000D02*
X690033Y1121670D01*
D49*
X861000Y1143000D03*
D50*
X861000Y1156400D01*
X857600Y1159800D01*
X567070Y1109411D02*
X559590Y1101930D01*
X567930Y1101930D01*
X570000Y1104000D01*
D49*
X570000Y1104000D03*
D47*
X522800Y1146250D02*
X521150Y1147900D01*
X522800Y1146250D02*
X522800Y1132900D01*
X527800Y1132900D02*
X533300Y1132900D01*
X546100Y1145700D01*
X527800Y1122900D02*
X532000Y1118700D01*
X550300Y1118700D01*
X692930Y1117650D02*
X693130Y1117850D01*
X697700Y1117850D01*
X697700Y1109623D01*
X697398Y1109321D01*
X786200Y1104650D02*
X787700Y1106150D01*
X786200Y1104650D02*
X779530Y1104650D01*
X797447Y1106150D02*
X799447Y1108150D01*
X797447Y1106150D02*
X787700Y1106150D01*
X806047Y1108150D02*
X806818Y1108921D01*
X806047Y1108150D02*
X799447Y1108150D01*
X587100Y1109199D02*
X587100Y1119850D01*
X587100Y1109199D02*
X587778Y1108521D01*
X581300Y1119650D02*
X581500Y1119850D01*
X587100Y1119850D01*
X739130Y1339130D02*
X739130Y1356380D01*
X739130Y1339130D02*
X737000Y1337000D01*
X737000Y1331050D01*
X737900Y1330150D01*
X719130Y1356380D02*
X719130Y1361487D01*
X721793Y1364150D01*
X727850Y1364150D01*
X729130Y1362870D01*
X729130Y1356380D01*
X719130Y1356380D02*
X719130Y1348380D01*
X717130Y1346380D01*
X717130Y1330130D01*
X705000Y1318000D01*
X680800Y1318000D01*
X724130Y1327130D02*
X724130Y1347000D01*
X724130Y1356380D01*
X696000Y1299000D02*
X680800Y1299000D01*
X696000Y1299000D02*
X724130Y1327130D01*
X734130Y1349130D02*
X734130Y1356380D01*
X734130Y1349130D02*
X730000Y1345000D01*
X726130Y1345000D01*
X724130Y1347000D01*
X709130Y1340580D02*
X709130Y1356380D01*
X709130Y1340580D02*
X704900Y1336350D01*
D50*
X659530Y1312230D02*
X655800Y1308500D01*
X659530Y1312230D02*
X662947Y1312230D01*
X667570Y1316853D01*
X748400Y1358610D02*
X750630Y1356380D01*
X748400Y1358610D02*
X748400Y1363277D01*
X742677Y1369000D01*
X708730Y1369000D01*
X655800Y1308500D02*
X642400Y1308500D01*
X640500Y1310400D01*
X632350Y1310400D02*
X632300Y1310350D01*
X632350Y1310400D02*
X640500Y1310400D01*
X667570Y1316853D02*
X667570Y1350570D01*
X672000Y1355000D01*
X672000Y1374000D01*
X677000Y1379000D01*
X698730Y1379000D01*
X708730Y1369000D01*
X705000Y1365270D01*
X705000Y1364000D01*
X702630Y1361630D01*
X702630Y1356380D01*
D48*
X875000Y1338000D03*
X883000Y1338000D03*
X890000Y1338000D03*
X897000Y1338000D03*
X905000Y1338000D03*
X913000Y1338000D03*
X921000Y1338000D03*
X929000Y1338000D03*
X936000Y1338000D03*
X859000Y1338000D03*
X851000Y1338000D03*
X843000Y1338000D03*
X835000Y1338000D03*
X827000Y1338000D03*
X819000Y1338000D03*
X812000Y1338000D03*
X812000Y1345000D03*
X812000Y1352000D03*
X812000Y1360000D03*
X812000Y1367000D03*
X812000Y1375000D03*
X812000Y1381000D03*
X812000Y1395000D03*
X812000Y1402000D03*
X812000Y1409000D03*
X812000Y1388000D03*
M02*
