G04 EAGLE Gerber RS-274X export*
G75*
%MOMM*%
%FSLAX34Y34*%
%LPD*%
%INBottom Copper*%
%IPPOS*%
%AMOC8*
5,1,8,0,0,1.08239X$1,22.5*%
G01*
G04 Define Apertures*
%ADD10C,1.170000*%
%ADD11R,1.066800X1.066800*%
%ADD12C,0.808000*%
%ADD13C,0.452400*%
%ADD14C,0.150000*%
%ADD15C,0.502400*%
%ADD16C,0.352400*%
%ADD17C,0.300000*%
G36*
X574073Y1069122D02*
X573776Y1069062D01*
X551300Y1069062D01*
X551215Y1069067D01*
X536422Y1070733D01*
X536256Y1070771D01*
X522205Y1075688D01*
X522052Y1075762D01*
X509448Y1083682D01*
X509314Y1083788D01*
X498788Y1094314D01*
X498682Y1094448D01*
X490762Y1107052D01*
X490688Y1107205D01*
X485771Y1121256D01*
X485733Y1121422D01*
X484067Y1136215D01*
X484062Y1136300D01*
X484062Y1168776D01*
X484113Y1169051D01*
X484277Y1169306D01*
X484527Y1169478D01*
X484824Y1169538D01*
X552444Y1169538D01*
X554062Y1171156D01*
X554062Y1311444D01*
X552444Y1313062D01*
X484824Y1313062D01*
X484549Y1313113D01*
X484294Y1313277D01*
X484122Y1313527D01*
X484062Y1313824D01*
X484062Y1346300D01*
X484067Y1346385D01*
X485733Y1361178D01*
X485771Y1361344D01*
X490688Y1375395D01*
X490762Y1375548D01*
X498682Y1388153D01*
X498788Y1388286D01*
X509314Y1398812D01*
X509448Y1398918D01*
X522052Y1406838D01*
X522205Y1406912D01*
X536256Y1411829D01*
X536422Y1411867D01*
X551215Y1413533D01*
X551300Y1413538D01*
X676543Y1413538D01*
X676950Y1413420D01*
X677169Y1413210D01*
X677289Y1412932D01*
X677290Y1412629D01*
X677174Y1412349D01*
X677125Y1412277D01*
X676509Y1411296D01*
X676403Y1411112D01*
X676317Y1410931D01*
X676249Y1410758D01*
X675867Y1409664D01*
X675804Y1409460D01*
X675761Y1409266D01*
X675733Y1409081D01*
X675605Y1407939D01*
X675586Y1407611D01*
X675586Y1406769D01*
X675528Y1406478D01*
X675040Y1405299D01*
X675040Y1404392D01*
X691820Y1404392D01*
X691820Y1405299D01*
X691332Y1406478D01*
X691274Y1406769D01*
X691274Y1407611D01*
X691255Y1407939D01*
X691127Y1409080D01*
X691095Y1409289D01*
X691050Y1409484D01*
X690994Y1409662D01*
X690611Y1410756D01*
X690533Y1410954D01*
X690446Y1411133D01*
X690352Y1411295D01*
X689736Y1412275D01*
X689688Y1412346D01*
X689555Y1412752D01*
X689606Y1413051D01*
X689769Y1413306D01*
X690019Y1413478D01*
X690317Y1413538D01*
X762943Y1413538D01*
X763350Y1413420D01*
X763569Y1413210D01*
X763689Y1412932D01*
X763690Y1412629D01*
X763574Y1412349D01*
X763525Y1412277D01*
X762909Y1411296D01*
X762803Y1411112D01*
X762717Y1410931D01*
X762649Y1410758D01*
X762267Y1409664D01*
X762204Y1409460D01*
X762161Y1409266D01*
X762133Y1409081D01*
X762005Y1407939D01*
X761986Y1407611D01*
X761986Y1406769D01*
X761928Y1406478D01*
X761440Y1405299D01*
X761440Y1404392D01*
X778220Y1404392D01*
X778220Y1405299D01*
X777732Y1406478D01*
X777674Y1406769D01*
X777674Y1407611D01*
X777655Y1407939D01*
X777527Y1409080D01*
X777495Y1409289D01*
X777450Y1409484D01*
X777394Y1409662D01*
X777011Y1410756D01*
X776933Y1410954D01*
X776846Y1411133D01*
X776752Y1411295D01*
X776136Y1412275D01*
X776088Y1412346D01*
X775955Y1412752D01*
X776006Y1413051D01*
X776169Y1413306D01*
X776419Y1413478D01*
X776717Y1413538D01*
X809703Y1413538D01*
X809967Y1413491D01*
X810225Y1413332D01*
X810400Y1413084D01*
X810465Y1412788D01*
X810410Y1412490D01*
X810242Y1412237D01*
X808468Y1410463D01*
X808468Y1407537D01*
X809966Y1406039D01*
X810124Y1405808D01*
X810189Y1405512D01*
X810134Y1405214D01*
X809966Y1404961D01*
X808468Y1403463D01*
X808468Y1400537D01*
X809966Y1399039D01*
X810124Y1398808D01*
X810189Y1398512D01*
X810134Y1398214D01*
X809966Y1397961D01*
X808468Y1396463D01*
X808468Y1393537D01*
X809966Y1392039D01*
X810124Y1391808D01*
X810189Y1391512D01*
X810134Y1391214D01*
X809966Y1390961D01*
X808468Y1389463D01*
X808468Y1386537D01*
X809966Y1385039D01*
X810124Y1384808D01*
X810189Y1384512D01*
X810134Y1384214D01*
X809966Y1383961D01*
X808468Y1382463D01*
X808468Y1379537D01*
X809466Y1378539D01*
X809624Y1378308D01*
X809689Y1378012D01*
X809634Y1377714D01*
X809466Y1377461D01*
X808468Y1376463D01*
X808468Y1373537D01*
X810466Y1371539D01*
X810624Y1371308D01*
X810689Y1371012D01*
X810634Y1370714D01*
X810466Y1370461D01*
X808468Y1368463D01*
X808468Y1365537D01*
X809966Y1364039D01*
X810124Y1363808D01*
X810189Y1363512D01*
X810134Y1363214D01*
X809966Y1362961D01*
X808468Y1361463D01*
X808468Y1358537D01*
X810466Y1356539D01*
X810624Y1356308D01*
X810689Y1356012D01*
X810634Y1355714D01*
X810466Y1355461D01*
X808468Y1353463D01*
X808468Y1350537D01*
X809966Y1349039D01*
X810124Y1348808D01*
X810189Y1348512D01*
X810134Y1348214D01*
X809966Y1347961D01*
X808468Y1346463D01*
X808468Y1343537D01*
X809966Y1342039D01*
X810124Y1341808D01*
X810189Y1341512D01*
X810134Y1341214D01*
X809966Y1340961D01*
X808468Y1339463D01*
X808468Y1336537D01*
X810537Y1334468D01*
X813463Y1334468D01*
X814961Y1335966D01*
X815192Y1336124D01*
X815488Y1336189D01*
X815786Y1336134D01*
X816039Y1335966D01*
X817537Y1334468D01*
X820463Y1334468D01*
X822461Y1336466D01*
X822692Y1336624D01*
X822988Y1336689D01*
X823286Y1336634D01*
X823539Y1336466D01*
X825537Y1334468D01*
X828463Y1334468D01*
X830461Y1336466D01*
X830692Y1336624D01*
X830988Y1336689D01*
X831286Y1336634D01*
X831539Y1336466D01*
X833537Y1334468D01*
X836463Y1334468D01*
X838461Y1336466D01*
X838692Y1336624D01*
X838988Y1336689D01*
X839286Y1336634D01*
X839539Y1336466D01*
X841537Y1334468D01*
X844463Y1334468D01*
X846461Y1336466D01*
X846692Y1336624D01*
X846988Y1336689D01*
X847286Y1336634D01*
X847539Y1336466D01*
X849537Y1334468D01*
X852463Y1334468D01*
X854461Y1336466D01*
X854692Y1336624D01*
X854988Y1336689D01*
X855286Y1336634D01*
X855539Y1336466D01*
X857537Y1334468D01*
X858772Y1334468D01*
X859035Y1334421D01*
X859293Y1334262D01*
X859468Y1334014D01*
X859534Y1333718D01*
X859478Y1333420D01*
X859310Y1333167D01*
X853386Y1327243D01*
X853145Y1327080D01*
X852848Y1327020D01*
X825163Y1327020D01*
X816980Y1318837D01*
X816980Y1264152D01*
X816924Y1263866D01*
X816757Y1263614D01*
X806148Y1253005D01*
X805907Y1252842D01*
X805610Y1252782D01*
X803433Y1252782D01*
X801218Y1250567D01*
X801218Y1247433D01*
X803433Y1245218D01*
X806567Y1245218D01*
X808782Y1247433D01*
X808782Y1249610D01*
X808838Y1249896D01*
X809005Y1250148D01*
X821020Y1262163D01*
X821020Y1316848D01*
X821076Y1317134D01*
X821243Y1317386D01*
X826614Y1322757D01*
X826855Y1322920D01*
X827152Y1322980D01*
X854837Y1322980D01*
X865852Y1333995D01*
X866093Y1334158D01*
X866390Y1334218D01*
X868567Y1334218D01*
X870638Y1336289D01*
X870868Y1336447D01*
X871165Y1336513D01*
X871463Y1336457D01*
X871716Y1336289D01*
X873537Y1334468D01*
X876463Y1334468D01*
X878461Y1336466D01*
X878692Y1336624D01*
X878988Y1336689D01*
X879286Y1336634D01*
X879539Y1336466D01*
X881537Y1334468D01*
X884463Y1334468D01*
X885961Y1335966D01*
X886192Y1336124D01*
X886488Y1336189D01*
X886786Y1336134D01*
X887039Y1335966D01*
X888537Y1334468D01*
X891463Y1334468D01*
X892961Y1335966D01*
X893192Y1336124D01*
X893488Y1336189D01*
X893786Y1336134D01*
X894039Y1335966D01*
X895537Y1334468D01*
X898463Y1334468D01*
X900461Y1336466D01*
X900692Y1336624D01*
X900988Y1336689D01*
X901286Y1336634D01*
X901539Y1336466D01*
X903537Y1334468D01*
X906463Y1334468D01*
X908461Y1336466D01*
X908692Y1336624D01*
X908988Y1336689D01*
X909286Y1336634D01*
X909539Y1336466D01*
X911537Y1334468D01*
X914463Y1334468D01*
X916461Y1336466D01*
X916692Y1336624D01*
X916988Y1336689D01*
X917286Y1336634D01*
X917539Y1336466D01*
X919537Y1334468D01*
X922463Y1334468D01*
X924461Y1336466D01*
X924692Y1336624D01*
X924988Y1336689D01*
X925286Y1336634D01*
X925539Y1336466D01*
X927537Y1334468D01*
X930463Y1334468D01*
X931961Y1335966D01*
X932192Y1336124D01*
X932488Y1336189D01*
X932786Y1336134D01*
X933039Y1335966D01*
X934537Y1334468D01*
X937776Y1334468D01*
X938051Y1334417D01*
X938306Y1334253D01*
X938478Y1334003D01*
X938538Y1333706D01*
X938538Y1136300D01*
X938533Y1136215D01*
X936867Y1121422D01*
X936829Y1121256D01*
X931912Y1107205D01*
X931838Y1107052D01*
X923918Y1094448D01*
X923812Y1094314D01*
X913286Y1083788D01*
X913153Y1083682D01*
X900548Y1075762D01*
X900395Y1075688D01*
X886344Y1070771D01*
X886178Y1070733D01*
X871385Y1069067D01*
X871300Y1069062D01*
X848824Y1069062D01*
X848549Y1069113D01*
X848294Y1069277D01*
X848122Y1069527D01*
X848062Y1069824D01*
X848062Y1085444D01*
X846444Y1087062D01*
X796156Y1087062D01*
X794538Y1085444D01*
X794538Y1069824D01*
X794487Y1069549D01*
X794323Y1069294D01*
X794073Y1069122D01*
X793776Y1069062D01*
X738824Y1069062D01*
X738549Y1069113D01*
X738294Y1069277D01*
X738122Y1069527D01*
X738062Y1069824D01*
X738062Y1085444D01*
X736444Y1087062D01*
X686156Y1087062D01*
X684538Y1085444D01*
X684538Y1069824D01*
X684487Y1069549D01*
X684323Y1069294D01*
X684073Y1069122D01*
X683776Y1069062D01*
X628824Y1069062D01*
X628549Y1069113D01*
X628294Y1069277D01*
X628122Y1069527D01*
X628062Y1069824D01*
X628062Y1085444D01*
X626404Y1087102D01*
X626364Y1087109D01*
X626106Y1087268D01*
X625931Y1087516D01*
X625866Y1087812D01*
X625921Y1088110D01*
X626089Y1088363D01*
X626862Y1089136D01*
X626862Y1100856D01*
X626118Y1101600D01*
X614398Y1101600D01*
X613654Y1100856D01*
X613654Y1089136D01*
X614427Y1088363D01*
X614580Y1088143D01*
X614650Y1087848D01*
X614599Y1087549D01*
X614436Y1087294D01*
X614186Y1087122D01*
X613888Y1087062D01*
X589672Y1087062D01*
X589408Y1087109D01*
X589150Y1087268D01*
X588975Y1087516D01*
X588910Y1087812D01*
X588965Y1088110D01*
X589133Y1088363D01*
X589906Y1089136D01*
X589906Y1100856D01*
X589162Y1101600D01*
X577442Y1101600D01*
X576698Y1100856D01*
X576698Y1089136D01*
X577471Y1088363D01*
X577624Y1088143D01*
X577694Y1087848D01*
X577643Y1087549D01*
X577480Y1087294D01*
X577230Y1087122D01*
X576932Y1087062D01*
X576156Y1087062D01*
X574538Y1085444D01*
X574538Y1069824D01*
X574487Y1069549D01*
X574323Y1069294D01*
X574073Y1069122D01*
G37*
%LPC*%
G36*
X754537Y1170468D02*
X757463Y1170468D01*
X759532Y1172537D01*
X759532Y1175463D01*
X757463Y1177532D01*
X755640Y1177532D01*
X755354Y1177588D01*
X755102Y1177755D01*
X748837Y1184020D01*
X702208Y1184020D01*
X701945Y1184067D01*
X701687Y1184226D01*
X701511Y1184474D01*
X701446Y1184770D01*
X701502Y1185068D01*
X701669Y1185321D01*
X702782Y1186433D01*
X702782Y1189567D01*
X700567Y1191782D01*
X699451Y1191782D01*
X699165Y1191838D01*
X698912Y1192005D01*
X679147Y1211770D01*
X673894Y1211770D01*
X673608Y1211826D01*
X673355Y1211993D01*
X672567Y1212782D01*
X669433Y1212782D01*
X667218Y1210567D01*
X667218Y1207433D01*
X669433Y1205218D01*
X672567Y1205218D01*
X673355Y1206007D01*
X673597Y1206170D01*
X673894Y1206230D01*
X676537Y1206230D01*
X676823Y1206174D01*
X677076Y1206007D01*
X694995Y1188088D01*
X695158Y1187846D01*
X695218Y1187549D01*
X695218Y1187478D01*
X695171Y1187215D01*
X695012Y1186957D01*
X694764Y1186782D01*
X694468Y1186716D01*
X694170Y1186772D01*
X693917Y1186940D01*
X678837Y1202020D01*
X665152Y1202020D01*
X664866Y1202076D01*
X664614Y1202243D01*
X647243Y1219614D01*
X647080Y1219855D01*
X647020Y1220152D01*
X647020Y1236837D01*
X624837Y1259020D01*
X624291Y1259020D01*
X624005Y1259076D01*
X623752Y1259243D01*
X623066Y1259929D01*
X622913Y1260149D01*
X622843Y1260444D01*
X622894Y1260743D01*
X623057Y1260998D01*
X623307Y1261170D01*
X623605Y1261230D01*
X637537Y1261230D01*
X637823Y1261174D01*
X638076Y1261007D01*
X643995Y1255088D01*
X644158Y1254846D01*
X644218Y1254549D01*
X644218Y1253433D01*
X646433Y1251218D01*
X649567Y1251218D01*
X651782Y1253433D01*
X651782Y1256567D01*
X649567Y1258782D01*
X648451Y1258782D01*
X648165Y1258838D01*
X647912Y1259005D01*
X640147Y1266770D01*
X618463Y1266770D01*
X618177Y1266826D01*
X617924Y1266993D01*
X613993Y1270924D01*
X613830Y1271166D01*
X613770Y1271463D01*
X613770Y1284106D01*
X613826Y1284392D01*
X613993Y1284645D01*
X614782Y1285433D01*
X614782Y1288567D01*
X614669Y1288679D01*
X614516Y1288899D01*
X614447Y1289194D01*
X614497Y1289493D01*
X614661Y1289748D01*
X614911Y1289920D01*
X615208Y1289980D01*
X623848Y1289980D01*
X624134Y1289924D01*
X624386Y1289757D01*
X626757Y1287386D01*
X626920Y1287145D01*
X626980Y1286848D01*
X626980Y1282163D01*
X638163Y1270980D01*
X641848Y1270980D01*
X642134Y1270924D01*
X642386Y1270757D01*
X661060Y1252083D01*
X661213Y1251863D01*
X661283Y1251568D01*
X661232Y1251269D01*
X661069Y1251014D01*
X660819Y1250842D01*
X660522Y1250782D01*
X659433Y1250782D01*
X657218Y1248567D01*
X657218Y1245433D01*
X658007Y1244645D01*
X658170Y1244403D01*
X658230Y1244106D01*
X658230Y1237853D01*
X672995Y1223088D01*
X673158Y1222846D01*
X673218Y1222549D01*
X673218Y1221433D01*
X675433Y1219218D01*
X678567Y1219218D01*
X680782Y1221433D01*
X680782Y1224567D01*
X678567Y1226782D01*
X677451Y1226782D01*
X677165Y1226838D01*
X676912Y1227005D01*
X663993Y1239924D01*
X663830Y1240166D01*
X663770Y1240463D01*
X663770Y1244106D01*
X663826Y1244392D01*
X663993Y1244645D01*
X664782Y1245433D01*
X664782Y1246522D01*
X664829Y1246785D01*
X664988Y1247043D01*
X665236Y1247218D01*
X665532Y1247284D01*
X665830Y1247228D01*
X666083Y1247060D01*
X667757Y1245386D01*
X667920Y1245145D01*
X667980Y1244848D01*
X667980Y1240163D01*
X674163Y1233980D01*
X687848Y1233980D01*
X688134Y1233924D01*
X688386Y1233757D01*
X696757Y1225386D01*
X696920Y1225145D01*
X696980Y1224848D01*
X696980Y1217163D01*
X699310Y1214833D01*
X699463Y1214613D01*
X699533Y1214318D01*
X699482Y1214019D01*
X699319Y1213764D01*
X699069Y1213592D01*
X698772Y1213532D01*
X698537Y1213532D01*
X696468Y1211463D01*
X696468Y1208537D01*
X698537Y1206468D01*
X701360Y1206468D01*
X701646Y1206412D01*
X701898Y1206245D01*
X706163Y1201980D01*
X707848Y1201980D01*
X708134Y1201924D01*
X708386Y1201757D01*
X710757Y1199386D01*
X710920Y1199145D01*
X710980Y1198848D01*
X710980Y1193291D01*
X710924Y1193005D01*
X710757Y1192752D01*
X709468Y1191463D01*
X709468Y1188537D01*
X711537Y1186468D01*
X714463Y1186468D01*
X716532Y1188537D01*
X716532Y1191463D01*
X715243Y1192752D01*
X715080Y1192993D01*
X715020Y1193291D01*
X715020Y1200218D01*
X715071Y1200493D01*
X715235Y1200748D01*
X715485Y1200920D01*
X715782Y1200980D01*
X768848Y1200980D01*
X769134Y1200924D01*
X769386Y1200757D01*
X776245Y1193898D01*
X776408Y1193657D01*
X776468Y1193360D01*
X776468Y1191537D01*
X778537Y1189468D01*
X781463Y1189468D01*
X783532Y1191537D01*
X783532Y1194463D01*
X781463Y1196532D01*
X779640Y1196532D01*
X779354Y1196588D01*
X779102Y1196755D01*
X770837Y1205020D01*
X765848Y1205020D01*
X765584Y1205067D01*
X765326Y1205226D01*
X765151Y1205474D01*
X765086Y1205770D01*
X765141Y1206068D01*
X765309Y1206321D01*
X767132Y1208144D01*
X767132Y1210656D01*
X765356Y1212432D01*
X762844Y1212432D01*
X762805Y1212393D01*
X762564Y1212230D01*
X762266Y1212170D01*
X741063Y1212170D01*
X740777Y1212226D01*
X740524Y1212393D01*
X740238Y1212679D01*
X740085Y1212899D01*
X740015Y1213194D01*
X740066Y1213493D01*
X740230Y1213748D01*
X740480Y1213920D01*
X740777Y1213980D01*
X781837Y1213980D01*
X804614Y1236757D01*
X804855Y1236920D01*
X805152Y1236980D01*
X813792Y1236980D01*
X814055Y1236933D01*
X814313Y1236774D01*
X814489Y1236526D01*
X814554Y1236230D01*
X814498Y1235932D01*
X814331Y1235679D01*
X814218Y1235567D01*
X814218Y1232433D01*
X815757Y1230895D01*
X815920Y1230653D01*
X815980Y1230356D01*
X815980Y1228152D01*
X815924Y1227866D01*
X815757Y1227614D01*
X804980Y1216837D01*
X804980Y1201163D01*
X809163Y1196980D01*
X841837Y1196980D01*
X850614Y1205757D01*
X850855Y1205920D01*
X851152Y1205980D01*
X860456Y1205980D01*
X860731Y1205929D01*
X860986Y1205765D01*
X861158Y1205515D01*
X861163Y1205488D01*
X863433Y1203218D01*
X866567Y1203218D01*
X868782Y1205433D01*
X868782Y1208567D01*
X866567Y1210782D01*
X863433Y1210782D01*
X862895Y1210243D01*
X862653Y1210080D01*
X862356Y1210020D01*
X849163Y1210020D01*
X840386Y1201243D01*
X840145Y1201080D01*
X839848Y1201020D01*
X811152Y1201020D01*
X810866Y1201076D01*
X810614Y1201243D01*
X809243Y1202614D01*
X809080Y1202855D01*
X809020Y1203152D01*
X809020Y1214848D01*
X809076Y1215134D01*
X809243Y1215386D01*
X820020Y1226163D01*
X820020Y1230356D01*
X820076Y1230642D01*
X820243Y1230895D01*
X821782Y1232433D01*
X821782Y1235567D01*
X821669Y1235679D01*
X821516Y1235899D01*
X821447Y1236194D01*
X821497Y1236493D01*
X821661Y1236748D01*
X821911Y1236920D01*
X822208Y1236980D01*
X828837Y1236980D01*
X829214Y1237357D01*
X829436Y1237511D01*
X829504Y1237527D01*
X829511Y1237569D01*
X829679Y1237822D01*
X844614Y1252757D01*
X844834Y1252910D01*
X845129Y1252980D01*
X845428Y1252929D01*
X845683Y1252766D01*
X845855Y1252516D01*
X845915Y1252219D01*
X845915Y1250711D01*
X847032Y1248015D01*
X849095Y1245952D01*
X851791Y1244835D01*
X852653Y1244835D01*
X852916Y1244788D01*
X853174Y1244629D01*
X853349Y1244381D01*
X853415Y1244085D01*
X853359Y1243787D01*
X853191Y1243534D01*
X839365Y1229708D01*
X839135Y1229550D01*
X838839Y1229485D01*
X838584Y1229532D01*
X835537Y1229532D01*
X835321Y1229316D01*
X835101Y1229163D01*
X834806Y1229093D01*
X834507Y1229144D01*
X834252Y1229307D01*
X834080Y1229557D01*
X834020Y1229855D01*
X834020Y1233117D01*
X834077Y1233405D01*
X834245Y1233658D01*
X834499Y1233824D01*
X834520Y1233832D01*
X834790Y1233887D01*
X835089Y1233831D01*
X835341Y1233664D01*
X835537Y1233468D01*
X838463Y1233468D01*
X840532Y1235537D01*
X840532Y1238463D01*
X838463Y1240532D01*
X835537Y1240532D01*
X833468Y1238463D01*
X833468Y1238279D01*
X833411Y1237990D01*
X833243Y1237738D01*
X832989Y1237571D01*
X831747Y1237075D01*
X831464Y1237020D01*
X831163Y1237020D01*
X830975Y1236832D01*
X830720Y1236663D01*
X830501Y1236576D01*
X830463Y1236568D01*
X830453Y1236518D01*
X830354Y1236288D01*
X830193Y1236050D01*
X829980Y1235837D01*
X829980Y1235571D01*
X829918Y1235271D01*
X829814Y1235027D01*
X829926Y1234747D01*
X829980Y1234464D01*
X829980Y1229041D01*
X829924Y1228755D01*
X829757Y1228502D01*
X822454Y1221199D01*
X822213Y1221037D01*
X821915Y1220976D01*
X820093Y1220976D01*
X818024Y1218907D01*
X818024Y1215981D01*
X820093Y1213912D01*
X823019Y1213912D01*
X825088Y1215981D01*
X825088Y1217804D01*
X825143Y1218090D01*
X825311Y1218343D01*
X832167Y1225199D01*
X832387Y1225352D01*
X832682Y1225422D01*
X832981Y1225371D01*
X833236Y1225208D01*
X833408Y1224957D01*
X833468Y1224660D01*
X833468Y1224537D01*
X835537Y1222468D01*
X838463Y1222468D01*
X840532Y1224537D01*
X840532Y1224846D01*
X840588Y1225132D01*
X840755Y1225385D01*
X862684Y1247313D01*
X862729Y1247355D01*
X863317Y1247854D01*
X863319Y1247863D01*
X863355Y1247918D01*
X863355Y1248708D01*
X863358Y1248770D01*
X863741Y1253490D01*
X863794Y1253714D01*
X863962Y1253967D01*
X865372Y1255377D01*
X865581Y1255524D01*
X865532Y1255763D01*
X865532Y1258463D01*
X863463Y1260532D01*
X860537Y1260532D01*
X858438Y1258433D01*
X858208Y1258275D01*
X857912Y1258210D01*
X857613Y1258265D01*
X857466Y1258363D01*
X854709Y1259505D01*
X853201Y1259505D01*
X852938Y1259552D01*
X852680Y1259711D01*
X852505Y1259959D01*
X852439Y1260255D01*
X852495Y1260553D01*
X852663Y1260806D01*
X854474Y1262617D01*
X854715Y1262780D01*
X855012Y1262840D01*
X866116Y1262840D01*
X866402Y1262784D01*
X866655Y1262617D01*
X868193Y1261078D01*
X871327Y1261078D01*
X873542Y1263293D01*
X873542Y1266427D01*
X871327Y1268642D01*
X868193Y1268642D01*
X866655Y1267103D01*
X866413Y1266940D01*
X866116Y1266880D01*
X852782Y1266880D01*
X852513Y1266929D01*
X852256Y1267090D01*
X852083Y1267339D01*
X852020Y1267636D01*
X852078Y1267934D01*
X852265Y1268385D01*
X852265Y1274056D01*
X850095Y1279295D01*
X846085Y1283305D01*
X840846Y1285475D01*
X835175Y1285475D01*
X829935Y1283305D01*
X825925Y1279295D01*
X823755Y1274056D01*
X823755Y1268385D01*
X825925Y1263145D01*
X829935Y1259135D01*
X835175Y1256965D01*
X840846Y1256965D01*
X841169Y1257099D01*
X841424Y1257156D01*
X841724Y1257110D01*
X841982Y1256951D01*
X842158Y1256703D01*
X842223Y1256407D01*
X842167Y1256109D01*
X842000Y1255856D01*
X827386Y1241243D01*
X827145Y1241080D01*
X826848Y1241020D01*
X803163Y1241020D01*
X780386Y1218243D01*
X780145Y1218080D01*
X779848Y1218020D01*
X737163Y1218020D01*
X736798Y1217655D01*
X736557Y1217492D01*
X736260Y1217432D01*
X735344Y1217432D01*
X733568Y1215656D01*
X733568Y1212932D01*
X733517Y1212657D01*
X733353Y1212402D01*
X733103Y1212230D01*
X732806Y1212170D01*
X717532Y1212170D01*
X717257Y1212221D01*
X717002Y1212385D01*
X716830Y1212635D01*
X716770Y1212932D01*
X716770Y1218147D01*
X712355Y1222562D01*
X712192Y1222804D01*
X712132Y1223101D01*
X712132Y1223156D01*
X710356Y1224932D01*
X707844Y1224932D01*
X706068Y1223156D01*
X706068Y1220644D01*
X707844Y1218868D01*
X707899Y1218868D01*
X708185Y1218812D01*
X708438Y1218645D01*
X711007Y1216076D01*
X711170Y1215834D01*
X711230Y1215537D01*
X711230Y1210466D01*
X711183Y1210203D01*
X711024Y1209945D01*
X710776Y1209770D01*
X710480Y1209704D01*
X710182Y1209760D01*
X709929Y1209928D01*
X701243Y1218614D01*
X701080Y1218855D01*
X701020Y1219152D01*
X701020Y1226837D01*
X689837Y1238020D01*
X676152Y1238020D01*
X675866Y1238076D01*
X675614Y1238243D01*
X672243Y1241614D01*
X672080Y1241855D01*
X672020Y1242152D01*
X672020Y1243792D01*
X672067Y1244055D01*
X672226Y1244313D01*
X672474Y1244489D01*
X672770Y1244554D01*
X673068Y1244498D01*
X673321Y1244331D01*
X674833Y1242818D01*
X677967Y1242818D01*
X680182Y1245033D01*
X680182Y1245410D01*
X680238Y1245696D01*
X680405Y1245948D01*
X683252Y1248795D01*
X683493Y1248958D01*
X683790Y1249018D01*
X685967Y1249018D01*
X688182Y1251233D01*
X688182Y1254367D01*
X685967Y1256582D01*
X682833Y1256582D01*
X680839Y1254587D01*
X680608Y1254429D01*
X680312Y1254364D01*
X680014Y1254420D01*
X679761Y1254587D01*
X677567Y1256782D01*
X675390Y1256782D01*
X675104Y1256838D01*
X674852Y1257005D01*
X650837Y1281020D01*
X647152Y1281020D01*
X646866Y1281076D01*
X646614Y1281243D01*
X623641Y1304215D01*
X623483Y1304446D01*
X623418Y1304742D01*
X623474Y1305040D01*
X623641Y1305293D01*
X623782Y1305433D01*
X623782Y1307522D01*
X623829Y1307785D01*
X623988Y1308043D01*
X624236Y1308218D01*
X624532Y1308284D01*
X624830Y1308228D01*
X625083Y1308060D01*
X633163Y1299980D01*
X633848Y1299980D01*
X634134Y1299924D01*
X634386Y1299757D01*
X663163Y1270980D01*
X673848Y1270980D01*
X674134Y1270924D01*
X674386Y1270757D01*
X693757Y1251386D01*
X693920Y1251145D01*
X693980Y1250848D01*
X693980Y1239163D01*
X698163Y1234980D01*
X699848Y1234980D01*
X700134Y1234924D01*
X700386Y1234757D01*
X705263Y1229880D01*
X706516Y1229880D01*
X706802Y1229824D01*
X707055Y1229657D01*
X707844Y1228868D01*
X710356Y1228868D01*
X712132Y1230644D01*
X712132Y1233156D01*
X711427Y1233861D01*
X711269Y1234092D01*
X711204Y1234388D01*
X711259Y1234686D01*
X711427Y1234939D01*
X712132Y1235644D01*
X712132Y1238156D01*
X711427Y1238861D01*
X711269Y1239092D01*
X711204Y1239388D01*
X711259Y1239686D01*
X711427Y1239939D01*
X712132Y1240644D01*
X712132Y1243156D01*
X711343Y1243945D01*
X711180Y1244186D01*
X711120Y1244484D01*
X711120Y1275737D01*
X702178Y1284679D01*
X702025Y1284899D01*
X701955Y1285194D01*
X702006Y1285493D01*
X702169Y1285748D01*
X702419Y1285920D01*
X702716Y1285980D01*
X741837Y1285980D01*
X746614Y1290757D01*
X746855Y1290920D01*
X747152Y1290980D01*
X756848Y1290980D01*
X757134Y1290924D01*
X757386Y1290757D01*
X776163Y1271980D01*
X793848Y1271980D01*
X794134Y1271924D01*
X794386Y1271757D01*
X801995Y1264148D01*
X802158Y1263907D01*
X802218Y1263610D01*
X802218Y1261433D01*
X804433Y1259218D01*
X807567Y1259218D01*
X809782Y1261433D01*
X809782Y1264567D01*
X807567Y1266782D01*
X805390Y1266782D01*
X805104Y1266838D01*
X804852Y1267005D01*
X795837Y1276020D01*
X778152Y1276020D01*
X777866Y1276076D01*
X777614Y1276243D01*
X758837Y1295020D01*
X745163Y1295020D01*
X740386Y1290243D01*
X740145Y1290080D01*
X739848Y1290020D01*
X699163Y1290020D01*
X698539Y1289396D01*
X698308Y1289238D01*
X698012Y1289172D01*
X697714Y1289228D01*
X697461Y1289396D01*
X693837Y1293020D01*
X683152Y1293020D01*
X682866Y1293076D01*
X682614Y1293243D01*
X665243Y1310614D01*
X665080Y1310855D01*
X665020Y1311152D01*
X665020Y1321837D01*
X651743Y1335114D01*
X651580Y1335355D01*
X651520Y1335652D01*
X651520Y1385337D01*
X646243Y1390614D01*
X646080Y1390855D01*
X646020Y1391152D01*
X646020Y1397356D01*
X646076Y1397642D01*
X646243Y1397895D01*
X647782Y1399433D01*
X647782Y1402567D01*
X645567Y1404782D01*
X642433Y1404782D01*
X640218Y1402567D01*
X640218Y1399433D01*
X641757Y1397895D01*
X641920Y1397653D01*
X641980Y1397356D01*
X641980Y1389163D01*
X647257Y1383886D01*
X647420Y1383645D01*
X647480Y1383348D01*
X647480Y1333663D01*
X660757Y1320386D01*
X660920Y1320145D01*
X660980Y1319848D01*
X660980Y1309163D01*
X678060Y1292083D01*
X678213Y1291863D01*
X678283Y1291568D01*
X678232Y1291269D01*
X678069Y1291014D01*
X677819Y1290842D01*
X677522Y1290782D01*
X677433Y1290782D01*
X675218Y1288567D01*
X675218Y1285433D01*
X677433Y1283218D01*
X680567Y1283218D01*
X681355Y1284007D01*
X681597Y1284170D01*
X681894Y1284230D01*
X685037Y1284230D01*
X685323Y1284174D01*
X685576Y1284007D01*
X700095Y1269488D01*
X700258Y1269246D01*
X700318Y1268949D01*
X700318Y1267833D01*
X702533Y1265618D01*
X705667Y1265618D01*
X705779Y1265731D01*
X705999Y1265884D01*
X706294Y1265953D01*
X706593Y1265903D01*
X706848Y1265739D01*
X707020Y1265489D01*
X707080Y1265192D01*
X707080Y1244484D01*
X707024Y1244198D01*
X706857Y1243945D01*
X706068Y1243156D01*
X706068Y1242628D01*
X706021Y1242365D01*
X705862Y1242107D01*
X705614Y1241932D01*
X705318Y1241866D01*
X705020Y1241922D01*
X704767Y1242090D01*
X702243Y1244614D01*
X702080Y1244855D01*
X702020Y1245152D01*
X702020Y1257837D01*
X681837Y1278020D01*
X679152Y1278020D01*
X678866Y1278076D01*
X678614Y1278243D01*
X655243Y1301614D01*
X655080Y1301855D01*
X655020Y1302152D01*
X655020Y1310837D01*
X647005Y1318852D01*
X646842Y1319093D01*
X646782Y1319390D01*
X646782Y1321567D01*
X644567Y1323782D01*
X641433Y1323782D01*
X639218Y1321567D01*
X639218Y1318970D01*
X639171Y1318707D01*
X639085Y1318567D01*
X641433Y1316218D01*
X643610Y1316218D01*
X643896Y1316162D01*
X644148Y1315995D01*
X650757Y1309386D01*
X650920Y1309145D01*
X650980Y1308848D01*
X650980Y1301716D01*
X650933Y1301453D01*
X650774Y1301195D01*
X650526Y1301020D01*
X650230Y1300954D01*
X649932Y1301010D01*
X649679Y1301178D01*
X637141Y1313715D01*
X636983Y1313946D01*
X636918Y1314242D01*
X636974Y1314540D01*
X637141Y1314793D01*
X637782Y1315433D01*
X637782Y1318030D01*
X637829Y1318293D01*
X637915Y1318433D01*
X635567Y1320782D01*
X632478Y1320782D01*
X632215Y1320829D01*
X631957Y1320988D01*
X631782Y1321236D01*
X631716Y1321532D01*
X631772Y1321830D01*
X631940Y1322083D01*
X634114Y1324257D01*
X634355Y1324420D01*
X634652Y1324480D01*
X639337Y1324480D01*
X644020Y1329163D01*
X644020Y1381837D01*
X619837Y1406020D01*
X609152Y1406020D01*
X608866Y1406076D01*
X608614Y1406243D01*
X607837Y1407020D01*
X576294Y1407020D01*
X576019Y1407071D01*
X575764Y1407235D01*
X575592Y1407485D01*
X575532Y1407782D01*
X575532Y1409463D01*
X573463Y1411532D01*
X570537Y1411532D01*
X568468Y1409463D01*
X568468Y1406537D01*
X569684Y1405321D01*
X569837Y1405101D01*
X569907Y1404806D01*
X569856Y1404507D01*
X569693Y1404252D01*
X569443Y1404080D01*
X569145Y1404020D01*
X568291Y1404020D01*
X568005Y1404076D01*
X567752Y1404243D01*
X566463Y1405532D01*
X563537Y1405532D01*
X561468Y1403463D01*
X561468Y1400537D01*
X562757Y1399248D01*
X562920Y1399007D01*
X562980Y1398709D01*
X562980Y1391152D01*
X562924Y1390866D01*
X562757Y1390614D01*
X561898Y1389755D01*
X561657Y1389592D01*
X561360Y1389532D01*
X559537Y1389532D01*
X557468Y1387463D01*
X557468Y1384537D01*
X559537Y1382468D01*
X562463Y1382468D01*
X564532Y1384537D01*
X564532Y1386360D01*
X564588Y1386646D01*
X564755Y1386898D01*
X567020Y1389163D01*
X567020Y1398709D01*
X567076Y1398995D01*
X567243Y1399248D01*
X567752Y1399757D01*
X567993Y1399920D01*
X568291Y1399980D01*
X594848Y1399980D01*
X595134Y1399924D01*
X595386Y1399757D01*
X616757Y1378386D01*
X616920Y1378145D01*
X616980Y1377848D01*
X616980Y1370294D01*
X616929Y1370019D01*
X616765Y1369764D01*
X616515Y1369592D01*
X616218Y1369532D01*
X613537Y1369532D01*
X611468Y1367463D01*
X611468Y1364537D01*
X613537Y1362468D01*
X616463Y1362468D01*
X618532Y1364537D01*
X618532Y1365360D01*
X618588Y1365646D01*
X618755Y1365898D01*
X621020Y1368163D01*
X621020Y1379837D01*
X599178Y1401679D01*
X599025Y1401899D01*
X598955Y1402194D01*
X599006Y1402493D01*
X599169Y1402748D01*
X599419Y1402920D01*
X599716Y1402980D01*
X605848Y1402980D01*
X606134Y1402924D01*
X606386Y1402757D01*
X607163Y1401980D01*
X617848Y1401980D01*
X618134Y1401924D01*
X618386Y1401757D01*
X639757Y1380386D01*
X639920Y1380145D01*
X639980Y1379848D01*
X639980Y1372777D01*
X639933Y1372514D01*
X639774Y1372256D01*
X639526Y1372080D01*
X639230Y1372015D01*
X638932Y1372071D01*
X638679Y1372238D01*
X620172Y1390746D01*
X620014Y1390976D01*
X619949Y1391272D01*
X620004Y1391570D01*
X620172Y1391823D01*
X620782Y1392433D01*
X620782Y1395567D01*
X618567Y1397782D01*
X615433Y1397782D01*
X613218Y1395567D01*
X613218Y1392433D01*
X614007Y1391645D01*
X614170Y1391403D01*
X614230Y1391106D01*
X614230Y1388853D01*
X635007Y1368076D01*
X635170Y1367834D01*
X635230Y1367537D01*
X635230Y1346958D01*
X635183Y1346695D01*
X635024Y1346437D01*
X634776Y1346261D01*
X634480Y1346196D01*
X634182Y1346252D01*
X633929Y1346419D01*
X633567Y1346782D01*
X630165Y1346782D01*
X630106Y1346770D01*
X617853Y1346770D01*
X609088Y1338005D01*
X608846Y1337842D01*
X608549Y1337782D01*
X607433Y1337782D01*
X605218Y1335567D01*
X605218Y1332433D01*
X607433Y1330218D01*
X610567Y1330218D01*
X612782Y1332433D01*
X612782Y1333549D01*
X612838Y1333835D01*
X613005Y1334088D01*
X619924Y1341007D01*
X620166Y1341170D01*
X620463Y1341230D01*
X628106Y1341230D01*
X628392Y1341174D01*
X628645Y1341007D01*
X630581Y1339071D01*
X630734Y1338851D01*
X630803Y1338556D01*
X630753Y1338257D01*
X630589Y1338002D01*
X630339Y1337830D01*
X630042Y1337770D01*
X627853Y1337770D01*
X605230Y1315147D01*
X605230Y1300894D01*
X605174Y1300608D01*
X605007Y1300355D01*
X604218Y1299567D01*
X604218Y1296433D01*
X604289Y1296362D01*
X604447Y1296132D01*
X604513Y1295835D01*
X604457Y1295537D01*
X604289Y1295284D01*
X602468Y1293463D01*
X602468Y1290537D01*
X604537Y1288468D01*
X606456Y1288468D01*
X606731Y1288417D01*
X606986Y1288253D01*
X607158Y1288003D01*
X607218Y1287706D01*
X607218Y1285433D01*
X608007Y1284645D01*
X608170Y1284403D01*
X608230Y1284106D01*
X608230Y1268853D01*
X615853Y1261230D01*
X618395Y1261230D01*
X618659Y1261183D01*
X618917Y1261024D01*
X619092Y1260776D01*
X619157Y1260480D01*
X619102Y1260182D01*
X618934Y1259929D01*
X617468Y1258463D01*
X617468Y1255537D01*
X619537Y1253468D01*
X622463Y1253468D01*
X623030Y1254035D01*
X623261Y1254193D01*
X623557Y1254258D01*
X623855Y1254203D01*
X624108Y1254035D01*
X642757Y1235386D01*
X642920Y1235145D01*
X642980Y1234848D01*
X642980Y1218163D01*
X663163Y1197980D01*
X676848Y1197980D01*
X677134Y1197924D01*
X677386Y1197757D01*
X695163Y1179980D01*
X746848Y1179980D01*
X747134Y1179924D01*
X747386Y1179757D01*
X752245Y1174898D01*
X752408Y1174657D01*
X752468Y1174360D01*
X752468Y1172537D01*
X754537Y1170468D01*
G37*
G36*
X681979Y1391933D02*
X682668Y1391856D01*
X682668Y1402868D01*
X675040Y1402868D01*
X675040Y1401961D01*
X675528Y1400782D01*
X675586Y1400491D01*
X675586Y1399649D01*
X675605Y1399321D01*
X675733Y1398180D01*
X675765Y1397971D01*
X675810Y1397776D01*
X675866Y1397598D01*
X676249Y1396504D01*
X676327Y1396306D01*
X676414Y1396127D01*
X676508Y1395965D01*
X677124Y1394985D01*
X677244Y1394809D01*
X677370Y1394653D01*
X677496Y1394518D01*
X678316Y1393698D01*
X678472Y1393554D01*
X678629Y1393430D01*
X678784Y1393325D01*
X679764Y1392709D01*
X679948Y1392603D01*
X680129Y1392517D01*
X680302Y1392449D01*
X681396Y1392067D01*
X681600Y1392004D01*
X681794Y1391961D01*
X681979Y1391933D01*
G37*
G36*
X684192Y1402868D02*
X684192Y1391856D01*
X684880Y1391933D01*
X685089Y1391965D01*
X685284Y1392010D01*
X685462Y1392066D01*
X686556Y1392449D01*
X686754Y1392527D01*
X686933Y1392614D01*
X687095Y1392708D01*
X688075Y1393324D01*
X688251Y1393444D01*
X688407Y1393570D01*
X688542Y1393696D01*
X689362Y1394516D01*
X689506Y1394672D01*
X689630Y1394829D01*
X689735Y1394984D01*
X690351Y1395964D01*
X690457Y1396148D01*
X690543Y1396329D01*
X690611Y1396502D01*
X690993Y1397596D01*
X691056Y1397800D01*
X691099Y1397994D01*
X691127Y1398179D01*
X691255Y1399321D01*
X691274Y1399649D01*
X691274Y1400491D01*
X691332Y1400782D01*
X691820Y1401961D01*
X691820Y1402868D01*
X684192Y1402868D01*
G37*
G36*
X768379Y1391933D02*
X769068Y1391856D01*
X769068Y1402868D01*
X761440Y1402868D01*
X761440Y1401961D01*
X761928Y1400782D01*
X761986Y1400491D01*
X761986Y1399649D01*
X762005Y1399321D01*
X762133Y1398180D01*
X762165Y1397971D01*
X762210Y1397776D01*
X762266Y1397598D01*
X762649Y1396504D01*
X762727Y1396306D01*
X762814Y1396127D01*
X762908Y1395965D01*
X763524Y1394985D01*
X763644Y1394809D01*
X763770Y1394653D01*
X763896Y1394518D01*
X764716Y1393698D01*
X764872Y1393554D01*
X765029Y1393430D01*
X765184Y1393325D01*
X766164Y1392709D01*
X766348Y1392603D01*
X766529Y1392517D01*
X766702Y1392449D01*
X767796Y1392067D01*
X768000Y1392004D01*
X768194Y1391961D01*
X768379Y1391933D01*
G37*
G36*
X770592Y1402868D02*
X770592Y1391856D01*
X771280Y1391933D01*
X771489Y1391965D01*
X771684Y1392010D01*
X771862Y1392066D01*
X772956Y1392449D01*
X773154Y1392527D01*
X773333Y1392614D01*
X773495Y1392708D01*
X774475Y1393324D01*
X774651Y1393444D01*
X774807Y1393570D01*
X774942Y1393696D01*
X775762Y1394516D01*
X775906Y1394672D01*
X776030Y1394829D01*
X776135Y1394984D01*
X776751Y1395964D01*
X776857Y1396148D01*
X776943Y1396329D01*
X777011Y1396502D01*
X777393Y1397596D01*
X777456Y1397800D01*
X777499Y1397994D01*
X777527Y1398179D01*
X777655Y1399321D01*
X777674Y1399649D01*
X777674Y1400491D01*
X777732Y1400782D01*
X778220Y1401961D01*
X778220Y1402868D01*
X770592Y1402868D01*
G37*
G36*
X561537Y1359468D02*
X564463Y1359468D01*
X566532Y1361537D01*
X566532Y1364463D01*
X565993Y1365002D01*
X565830Y1365243D01*
X565770Y1365541D01*
X565770Y1368537D01*
X565826Y1368823D01*
X565993Y1369076D01*
X587690Y1390773D01*
X587932Y1390936D01*
X588229Y1390996D01*
X588991Y1390996D01*
X591060Y1393065D01*
X591060Y1395991D01*
X588991Y1398060D01*
X586065Y1398060D01*
X583996Y1395991D01*
X583996Y1395229D01*
X583941Y1394943D01*
X583773Y1394690D01*
X561076Y1371993D01*
X560834Y1371830D01*
X560537Y1371770D01*
X541894Y1371770D01*
X541608Y1371826D01*
X541355Y1371993D01*
X540567Y1372782D01*
X537433Y1372782D01*
X535218Y1370567D01*
X535218Y1367433D01*
X537433Y1365218D01*
X540567Y1365218D01*
X541355Y1366007D01*
X541597Y1366170D01*
X541894Y1366230D01*
X559395Y1366230D01*
X559659Y1366183D01*
X559917Y1366024D01*
X560092Y1365776D01*
X560157Y1365480D01*
X560102Y1365182D01*
X559934Y1364929D01*
X559468Y1364463D01*
X559468Y1361537D01*
X561537Y1359468D01*
G37*
G36*
X602433Y1321218D02*
X605567Y1321218D01*
X607782Y1323433D01*
X607782Y1326567D01*
X605567Y1328782D01*
X603390Y1328782D01*
X603104Y1328838D01*
X602852Y1329005D01*
X602396Y1329461D01*
X602238Y1329692D01*
X602172Y1329988D01*
X602228Y1330286D01*
X602396Y1330539D01*
X603020Y1331163D01*
X603020Y1350709D01*
X603076Y1350995D01*
X603243Y1351248D01*
X605532Y1353537D01*
X605532Y1356463D01*
X603463Y1358532D01*
X600537Y1358532D01*
X598468Y1356463D01*
X598468Y1353537D01*
X598757Y1353248D01*
X598920Y1353007D01*
X598980Y1352709D01*
X598980Y1333152D01*
X598924Y1332866D01*
X598757Y1332614D01*
X596386Y1330243D01*
X596145Y1330080D01*
X595848Y1330020D01*
X550152Y1330020D01*
X549866Y1330076D01*
X549614Y1330243D01*
X543837Y1336020D01*
X528152Y1336020D01*
X527866Y1336076D01*
X527614Y1336243D01*
X515243Y1348614D01*
X515080Y1348855D01*
X515020Y1349152D01*
X515020Y1356837D01*
X509940Y1361917D01*
X509787Y1362137D01*
X509717Y1362432D01*
X509768Y1362731D01*
X509931Y1362986D01*
X510181Y1363158D01*
X510478Y1363218D01*
X510549Y1363218D01*
X510835Y1363162D01*
X511088Y1362995D01*
X520853Y1353230D01*
X534537Y1353230D01*
X534823Y1353174D01*
X535076Y1353007D01*
X549853Y1338230D01*
X574537Y1338230D01*
X574823Y1338174D01*
X575076Y1338007D01*
X580853Y1332230D01*
X588147Y1332230D01*
X589912Y1333995D01*
X590154Y1334158D01*
X590451Y1334218D01*
X591567Y1334218D01*
X593782Y1336433D01*
X593782Y1339567D01*
X591567Y1341782D01*
X588433Y1341782D01*
X586218Y1339567D01*
X586218Y1338532D01*
X586167Y1338257D01*
X586003Y1338002D01*
X585753Y1337830D01*
X585456Y1337770D01*
X583463Y1337770D01*
X583177Y1337826D01*
X582924Y1337993D01*
X577147Y1343770D01*
X552463Y1343770D01*
X552177Y1343826D01*
X551924Y1343993D01*
X537147Y1358770D01*
X523463Y1358770D01*
X523177Y1358826D01*
X522924Y1358993D01*
X519750Y1362167D01*
X519597Y1362387D01*
X519527Y1362682D01*
X519578Y1362981D01*
X519742Y1363236D01*
X519992Y1363408D01*
X520289Y1363468D01*
X520463Y1363468D01*
X521261Y1364266D01*
X521492Y1364424D01*
X521788Y1364489D01*
X522086Y1364434D01*
X522339Y1364266D01*
X523537Y1363068D01*
X526463Y1363068D01*
X528532Y1365137D01*
X528532Y1368063D01*
X527243Y1369352D01*
X527080Y1369593D01*
X527020Y1369891D01*
X527020Y1372709D01*
X527076Y1372995D01*
X527243Y1373248D01*
X528532Y1374537D01*
X528532Y1377463D01*
X526463Y1379532D01*
X523537Y1379532D01*
X521468Y1377463D01*
X521468Y1374537D01*
X522757Y1373248D01*
X522920Y1373007D01*
X522980Y1372709D01*
X522980Y1369891D01*
X522924Y1369605D01*
X522757Y1369352D01*
X522739Y1369334D01*
X522508Y1369176D01*
X522212Y1369111D01*
X521914Y1369166D01*
X521661Y1369334D01*
X520463Y1370532D01*
X518640Y1370532D01*
X518354Y1370588D01*
X518102Y1370755D01*
X512755Y1376102D01*
X512592Y1376343D01*
X512532Y1376640D01*
X512532Y1378463D01*
X510463Y1380532D01*
X507537Y1380532D01*
X505321Y1378316D01*
X505101Y1378163D01*
X504806Y1378093D01*
X504507Y1378144D01*
X504252Y1378307D01*
X504080Y1378557D01*
X504020Y1378855D01*
X504020Y1380848D01*
X504076Y1381134D01*
X504243Y1381386D01*
X505102Y1382245D01*
X505343Y1382408D01*
X505640Y1382468D01*
X507463Y1382468D01*
X509532Y1384537D01*
X509532Y1387463D01*
X507463Y1389532D01*
X504537Y1389532D01*
X502468Y1387463D01*
X502468Y1385640D01*
X502412Y1385354D01*
X502245Y1385102D01*
X499980Y1382837D01*
X499980Y1366163D01*
X510757Y1355386D01*
X510920Y1355145D01*
X510980Y1354848D01*
X510980Y1347163D01*
X526163Y1331980D01*
X541848Y1331980D01*
X542134Y1331924D01*
X542386Y1331757D01*
X545757Y1328386D01*
X545920Y1328145D01*
X545980Y1327848D01*
X545980Y1327163D01*
X547163Y1325980D01*
X599456Y1325980D01*
X599731Y1325929D01*
X599986Y1325765D01*
X600158Y1325515D01*
X600218Y1325218D01*
X600218Y1323433D01*
X602433Y1321218D01*
G37*
G36*
X705037Y1298968D02*
X707963Y1298968D01*
X710032Y1301037D01*
X710032Y1303963D01*
X707892Y1306103D01*
X707662Y1306255D01*
X679147Y1334770D01*
X664463Y1334770D01*
X664177Y1334826D01*
X663924Y1334993D01*
X660755Y1338162D01*
X660592Y1338404D01*
X660532Y1338701D01*
X660532Y1339463D01*
X659993Y1340002D01*
X659830Y1340243D01*
X659770Y1340541D01*
X659770Y1355106D01*
X659826Y1355392D01*
X659993Y1355645D01*
X660782Y1356433D01*
X660782Y1359567D01*
X659993Y1360355D01*
X659830Y1360597D01*
X659770Y1360894D01*
X659770Y1371106D01*
X659826Y1371392D01*
X659993Y1371645D01*
X660782Y1372433D01*
X660782Y1375567D01*
X658567Y1377782D01*
X655433Y1377782D01*
X653218Y1375567D01*
X653218Y1372433D01*
X654007Y1371645D01*
X654170Y1371403D01*
X654230Y1371106D01*
X654230Y1360894D01*
X654174Y1360608D01*
X654007Y1360355D01*
X653218Y1359567D01*
X653218Y1356433D01*
X654007Y1355645D01*
X654170Y1355403D01*
X654230Y1355106D01*
X654230Y1340541D01*
X654174Y1340255D01*
X654007Y1340002D01*
X653468Y1339463D01*
X653468Y1336537D01*
X655537Y1334468D01*
X656299Y1334468D01*
X656585Y1334412D01*
X656838Y1334245D01*
X661853Y1329230D01*
X676537Y1329230D01*
X676823Y1329174D01*
X677076Y1329007D01*
X702745Y1303338D01*
X702908Y1303096D01*
X702968Y1302799D01*
X702968Y1301037D01*
X705037Y1298968D01*
G37*
G36*
X696636Y1361630D02*
X698824Y1361630D01*
X700846Y1362467D01*
X702393Y1364015D01*
X703230Y1366036D01*
X703230Y1368224D01*
X702393Y1370246D01*
X700846Y1371793D01*
X698824Y1372630D01*
X696636Y1372630D01*
X694615Y1371793D01*
X693067Y1370246D01*
X692565Y1369032D01*
X692280Y1368687D01*
X691999Y1368574D01*
X691696Y1368579D01*
X691419Y1368702D01*
X691212Y1368924D01*
X691107Y1369209D01*
X691095Y1369289D01*
X691050Y1369484D01*
X690994Y1369662D01*
X690611Y1370756D01*
X690533Y1370954D01*
X690446Y1371133D01*
X690352Y1371295D01*
X689736Y1372275D01*
X689616Y1372451D01*
X689491Y1372607D01*
X689364Y1372742D01*
X688544Y1373562D01*
X688388Y1373706D01*
X688231Y1373830D01*
X688076Y1373935D01*
X687096Y1374551D01*
X686912Y1374657D01*
X686731Y1374743D01*
X686558Y1374811D01*
X685464Y1375193D01*
X685260Y1375256D01*
X685066Y1375299D01*
X684881Y1375327D01*
X684192Y1375404D01*
X684192Y1362892D01*
X691820Y1362892D01*
X691820Y1363422D01*
X691867Y1363686D01*
X692026Y1363944D01*
X692274Y1364119D01*
X692570Y1364184D01*
X692868Y1364129D01*
X693121Y1363961D01*
X694615Y1362467D01*
X696636Y1361630D01*
G37*
G36*
X770592Y1362892D02*
X778220Y1362892D01*
X778220Y1363799D01*
X777732Y1364978D01*
X777674Y1365269D01*
X777674Y1367611D01*
X777655Y1367939D01*
X777527Y1369080D01*
X777495Y1369289D01*
X777450Y1369484D01*
X777394Y1369662D01*
X777011Y1370756D01*
X776933Y1370954D01*
X776846Y1371133D01*
X776752Y1371295D01*
X776136Y1372275D01*
X776016Y1372451D01*
X775891Y1372607D01*
X775764Y1372742D01*
X774944Y1373562D01*
X774788Y1373706D01*
X774631Y1373830D01*
X774476Y1373935D01*
X773496Y1374551D01*
X773312Y1374657D01*
X773131Y1374743D01*
X772958Y1374811D01*
X771864Y1375193D01*
X771660Y1375256D01*
X771466Y1375299D01*
X771281Y1375327D01*
X770592Y1375404D01*
X770592Y1362892D01*
G37*
G36*
X754436Y1361630D02*
X756624Y1361630D01*
X758646Y1362467D01*
X760139Y1363961D01*
X760359Y1364114D01*
X760654Y1364184D01*
X760953Y1364133D01*
X761208Y1363970D01*
X761380Y1363719D01*
X761440Y1363422D01*
X761440Y1362892D01*
X769068Y1362892D01*
X769068Y1375404D01*
X768380Y1375327D01*
X768171Y1375295D01*
X767976Y1375250D01*
X767798Y1375194D01*
X766704Y1374811D01*
X766506Y1374733D01*
X766327Y1374646D01*
X766165Y1374552D01*
X765185Y1373936D01*
X765009Y1373816D01*
X764853Y1373691D01*
X764718Y1373564D01*
X763898Y1372744D01*
X763754Y1372588D01*
X763630Y1372431D01*
X763525Y1372276D01*
X762909Y1371296D01*
X762803Y1371112D01*
X762717Y1370931D01*
X762649Y1370758D01*
X762267Y1369664D01*
X762204Y1369460D01*
X762161Y1369266D01*
X762153Y1369213D01*
X761959Y1368808D01*
X761713Y1368630D01*
X761417Y1368563D01*
X761119Y1368616D01*
X760864Y1368781D01*
X760695Y1369033D01*
X760193Y1370246D01*
X758646Y1371793D01*
X756624Y1372630D01*
X754436Y1372630D01*
X752415Y1371793D01*
X750867Y1370246D01*
X750030Y1368224D01*
X750030Y1366036D01*
X750867Y1364015D01*
X752415Y1362467D01*
X754436Y1361630D01*
G37*
G36*
X675040Y1362892D02*
X682668Y1362892D01*
X682668Y1375404D01*
X681980Y1375327D01*
X681771Y1375295D01*
X681576Y1375250D01*
X681398Y1375194D01*
X680304Y1374811D01*
X680106Y1374733D01*
X679927Y1374646D01*
X679765Y1374552D01*
X678785Y1373936D01*
X678609Y1373816D01*
X678453Y1373691D01*
X678318Y1373564D01*
X677498Y1372744D01*
X677354Y1372588D01*
X677230Y1372431D01*
X677125Y1372276D01*
X676509Y1371296D01*
X676403Y1371112D01*
X676317Y1370931D01*
X676249Y1370758D01*
X675867Y1369664D01*
X675804Y1369460D01*
X675761Y1369266D01*
X675733Y1369081D01*
X675605Y1367939D01*
X675586Y1367611D01*
X675586Y1365269D01*
X675528Y1364978D01*
X675040Y1363799D01*
X675040Y1362892D01*
G37*
G36*
X681979Y1348933D02*
X682668Y1348856D01*
X682668Y1361368D01*
X675040Y1361368D01*
X675040Y1360461D01*
X675528Y1359282D01*
X675586Y1358991D01*
X675586Y1356649D01*
X675605Y1356321D01*
X675733Y1355180D01*
X675765Y1354971D01*
X675810Y1354776D01*
X675866Y1354598D01*
X676249Y1353504D01*
X676327Y1353306D01*
X676414Y1353127D01*
X676508Y1352965D01*
X677124Y1351985D01*
X677244Y1351809D01*
X677370Y1351653D01*
X677496Y1351518D01*
X678316Y1350698D01*
X678472Y1350554D01*
X678629Y1350430D01*
X678784Y1350325D01*
X679764Y1349709D01*
X679948Y1349603D01*
X680129Y1349517D01*
X680302Y1349449D01*
X681396Y1349067D01*
X681600Y1349004D01*
X681794Y1348961D01*
X681979Y1348933D01*
G37*
G36*
X684192Y1361368D02*
X684192Y1348856D01*
X684880Y1348933D01*
X685089Y1348965D01*
X685284Y1349010D01*
X685462Y1349066D01*
X686556Y1349449D01*
X686754Y1349527D01*
X686933Y1349614D01*
X687095Y1349708D01*
X688075Y1350324D01*
X688251Y1350444D01*
X688407Y1350570D01*
X688542Y1350696D01*
X689362Y1351516D01*
X689506Y1351672D01*
X689630Y1351829D01*
X689735Y1351984D01*
X690351Y1352964D01*
X690457Y1353148D01*
X690543Y1353329D01*
X690611Y1353502D01*
X690993Y1354596D01*
X691056Y1354800D01*
X691099Y1354994D01*
X691127Y1355179D01*
X691255Y1356321D01*
X691274Y1356649D01*
X691274Y1358991D01*
X691332Y1359282D01*
X691820Y1360461D01*
X691820Y1361368D01*
X684192Y1361368D01*
G37*
G36*
X770592Y1361368D02*
X770592Y1348856D01*
X771280Y1348933D01*
X771489Y1348965D01*
X771684Y1349010D01*
X771862Y1349066D01*
X772956Y1349449D01*
X773154Y1349527D01*
X773333Y1349614D01*
X773495Y1349708D01*
X774475Y1350324D01*
X774651Y1350444D01*
X774807Y1350570D01*
X774942Y1350696D01*
X775762Y1351516D01*
X775906Y1351672D01*
X776030Y1351829D01*
X776135Y1351984D01*
X776751Y1352964D01*
X776857Y1353148D01*
X776943Y1353329D01*
X777011Y1353502D01*
X777393Y1354596D01*
X777456Y1354800D01*
X777499Y1354994D01*
X777527Y1355179D01*
X777655Y1356321D01*
X777674Y1356649D01*
X777674Y1358991D01*
X777732Y1359282D01*
X778220Y1360461D01*
X778220Y1361368D01*
X770592Y1361368D01*
G37*
G36*
X768379Y1348933D02*
X769068Y1348856D01*
X769068Y1361368D01*
X761440Y1361368D01*
X761440Y1360461D01*
X761928Y1359282D01*
X761986Y1358991D01*
X761986Y1356649D01*
X762005Y1356321D01*
X762133Y1355180D01*
X762165Y1354971D01*
X762210Y1354776D01*
X762266Y1354598D01*
X762649Y1353504D01*
X762727Y1353306D01*
X762814Y1353127D01*
X762908Y1352965D01*
X763524Y1351985D01*
X763644Y1351809D01*
X763770Y1351653D01*
X763896Y1351518D01*
X764716Y1350698D01*
X764872Y1350554D01*
X765029Y1350430D01*
X765184Y1350325D01*
X766164Y1349709D01*
X766348Y1349603D01*
X766529Y1349517D01*
X766702Y1349449D01*
X767796Y1349067D01*
X768000Y1349004D01*
X768194Y1348961D01*
X768379Y1348933D01*
G37*
G36*
X885975Y1256965D02*
X891646Y1256965D01*
X896885Y1259135D01*
X900895Y1263145D01*
X903065Y1268385D01*
X903065Y1274056D01*
X900895Y1279295D01*
X897285Y1282904D01*
X897132Y1283124D01*
X897063Y1283419D01*
X897113Y1283718D01*
X897277Y1283973D01*
X897527Y1284145D01*
X897824Y1284205D01*
X900623Y1284205D01*
X900909Y1284149D01*
X901161Y1283982D01*
X906245Y1278898D01*
X906408Y1278657D01*
X906468Y1278360D01*
X906468Y1276537D01*
X908537Y1274468D01*
X911463Y1274468D01*
X913532Y1276537D01*
X913532Y1279463D01*
X911463Y1281532D01*
X909640Y1281532D01*
X909354Y1281588D01*
X909102Y1281755D01*
X902612Y1288245D01*
X894342Y1288245D01*
X894084Y1288290D01*
X893825Y1288447D01*
X893647Y1288693D01*
X893580Y1288989D01*
X893633Y1289287D01*
X893799Y1289542D01*
X894050Y1289711D01*
X896885Y1290885D01*
X900895Y1294895D01*
X903065Y1300135D01*
X903065Y1305806D01*
X900895Y1311045D01*
X896885Y1315055D01*
X891646Y1317225D01*
X885975Y1317225D01*
X880735Y1315055D01*
X876725Y1311045D01*
X874555Y1305806D01*
X874555Y1300135D01*
X876725Y1294895D01*
X880735Y1290885D01*
X883570Y1289711D01*
X883791Y1289571D01*
X883970Y1289326D01*
X884040Y1289031D01*
X883989Y1288732D01*
X883826Y1288477D01*
X883576Y1288305D01*
X883278Y1288245D01*
X881758Y1288245D01*
X879793Y1286280D01*
X879562Y1286122D01*
X879266Y1286057D01*
X878968Y1286112D01*
X878715Y1286280D01*
X877463Y1287532D01*
X874537Y1287532D01*
X872468Y1285463D01*
X872468Y1282537D01*
X874537Y1280468D01*
X876071Y1280468D01*
X876340Y1280419D01*
X876597Y1280258D01*
X876770Y1280009D01*
X876833Y1279712D01*
X876775Y1279414D01*
X874555Y1274056D01*
X874555Y1268385D01*
X876725Y1263145D01*
X880735Y1259135D01*
X885975Y1256965D01*
G37*
G36*
X835175Y1288715D02*
X840846Y1288715D01*
X846085Y1290885D01*
X850095Y1294895D01*
X852265Y1300135D01*
X852265Y1305806D01*
X850095Y1311045D01*
X846085Y1315055D01*
X840846Y1317225D01*
X835175Y1317225D01*
X829935Y1315055D01*
X825925Y1311045D01*
X823755Y1305806D01*
X823755Y1300135D01*
X825925Y1294895D01*
X829935Y1290885D01*
X835175Y1288715D01*
G37*
G36*
X780433Y1296218D02*
X783567Y1296218D01*
X785782Y1298433D01*
X785782Y1300610D01*
X785838Y1300896D01*
X786005Y1301148D01*
X789614Y1304757D01*
X789855Y1304920D01*
X790152Y1304980D01*
X806356Y1304980D01*
X806642Y1304924D01*
X806895Y1304757D01*
X808433Y1303218D01*
X811567Y1303218D01*
X813782Y1305433D01*
X813782Y1308567D01*
X811567Y1310782D01*
X808433Y1310782D01*
X806895Y1309243D01*
X806653Y1309080D01*
X806356Y1309020D01*
X788163Y1309020D01*
X783148Y1304005D01*
X782907Y1303842D01*
X782610Y1303782D01*
X780433Y1303782D01*
X778218Y1301567D01*
X778218Y1299539D01*
X778171Y1299276D01*
X778012Y1299018D01*
X777764Y1298842D01*
X777557Y1298797D01*
X777818Y1298748D01*
X778071Y1298581D01*
X780433Y1296218D01*
G37*
G36*
X861951Y1295635D02*
X864869Y1295635D01*
X867565Y1296752D01*
X869628Y1298815D01*
X870745Y1301511D01*
X870745Y1304429D01*
X869628Y1307125D01*
X867565Y1309188D01*
X864869Y1310305D01*
X861951Y1310305D01*
X859255Y1309188D01*
X857192Y1307125D01*
X856075Y1304429D01*
X856075Y1301511D01*
X857192Y1298815D01*
X859255Y1296752D01*
X861951Y1295635D01*
G37*
G36*
X772433Y1286218D02*
X775567Y1286218D01*
X777782Y1288433D01*
X777782Y1291567D01*
X776993Y1292355D01*
X776830Y1292597D01*
X776770Y1292894D01*
X776770Y1298042D01*
X776817Y1298305D01*
X776976Y1298563D01*
X777224Y1298739D01*
X777431Y1298784D01*
X777170Y1298833D01*
X776917Y1299000D01*
X773005Y1302912D01*
X772842Y1303154D01*
X772782Y1303451D01*
X772782Y1304567D01*
X770567Y1306782D01*
X767433Y1306782D01*
X765218Y1304567D01*
X765218Y1301433D01*
X767433Y1299218D01*
X768549Y1299218D01*
X768835Y1299162D01*
X769088Y1298995D01*
X771007Y1297076D01*
X771170Y1296834D01*
X771230Y1296537D01*
X771230Y1292894D01*
X771174Y1292608D01*
X771007Y1292355D01*
X770218Y1291567D01*
X770218Y1288433D01*
X772433Y1286218D01*
G37*
G36*
X891433Y1236218D02*
X894567Y1236218D01*
X896782Y1238433D01*
X896782Y1240610D01*
X896838Y1240896D01*
X897005Y1241148D01*
X915614Y1259757D01*
X915855Y1259920D01*
X916152Y1259980D01*
X917837Y1259980D01*
X921020Y1263163D01*
X921020Y1281837D01*
X911243Y1291614D01*
X911080Y1291855D01*
X911020Y1292152D01*
X911020Y1292356D01*
X911076Y1292642D01*
X911243Y1292895D01*
X912782Y1294433D01*
X912782Y1297567D01*
X910567Y1299782D01*
X907433Y1299782D01*
X905218Y1297567D01*
X905218Y1294433D01*
X906757Y1292895D01*
X906920Y1292653D01*
X906980Y1292356D01*
X906980Y1290163D01*
X916757Y1280386D01*
X916920Y1280145D01*
X916980Y1279848D01*
X916980Y1265152D01*
X916924Y1264866D01*
X916757Y1264614D01*
X916386Y1264243D01*
X916145Y1264080D01*
X915848Y1264020D01*
X914163Y1264020D01*
X894148Y1244005D01*
X893907Y1243842D01*
X893610Y1243782D01*
X891433Y1243782D01*
X889218Y1241567D01*
X889218Y1238433D01*
X891433Y1236218D01*
G37*
G36*
X767844Y1256368D02*
X770356Y1256368D01*
X772132Y1258144D01*
X772132Y1260656D01*
X770356Y1262432D01*
X769240Y1262432D01*
X768954Y1262488D01*
X768702Y1262655D01*
X750337Y1281020D01*
X750291Y1281020D01*
X750005Y1281076D01*
X749752Y1281243D01*
X748463Y1282532D01*
X745537Y1282532D01*
X743468Y1280463D01*
X743468Y1277537D01*
X745537Y1275468D01*
X748463Y1275468D01*
X748780Y1275785D01*
X749011Y1275943D01*
X749307Y1276008D01*
X749605Y1275953D01*
X749858Y1275785D01*
X765845Y1259798D01*
X766008Y1259557D01*
X766068Y1259260D01*
X766068Y1258144D01*
X767844Y1256368D01*
G37*
G36*
X872111Y1244835D02*
X875029Y1244835D01*
X877725Y1245952D01*
X879788Y1248015D01*
X880905Y1250711D01*
X880905Y1253629D01*
X879788Y1256325D01*
X877725Y1258388D01*
X875029Y1259505D01*
X872111Y1259505D01*
X869415Y1258388D01*
X867352Y1256325D01*
X866998Y1255471D01*
X866858Y1255250D01*
X866624Y1255078D01*
X866673Y1254845D01*
X866615Y1254547D01*
X866235Y1253629D01*
X866235Y1250711D01*
X867352Y1248015D01*
X869415Y1245952D01*
X872111Y1244835D01*
G37*
G36*
X794537Y1211468D02*
X797463Y1211468D01*
X799532Y1213537D01*
X799532Y1215360D01*
X799588Y1215646D01*
X799755Y1215898D01*
X807020Y1223163D01*
X807020Y1223709D01*
X807076Y1223995D01*
X807243Y1224248D01*
X808532Y1225537D01*
X808532Y1228463D01*
X806463Y1230532D01*
X803537Y1230532D01*
X801468Y1228463D01*
X801468Y1225537D01*
X802035Y1224970D01*
X802193Y1224739D01*
X802258Y1224443D01*
X802203Y1224145D01*
X802035Y1223892D01*
X796898Y1218755D01*
X796657Y1218592D01*
X796360Y1218532D01*
X794537Y1218532D01*
X792468Y1216463D01*
X792468Y1213537D01*
X794537Y1211468D01*
G37*
G36*
X521544Y1124868D02*
X524056Y1124868D01*
X525832Y1126644D01*
X525832Y1129156D01*
X525043Y1129945D01*
X524880Y1130186D01*
X524820Y1130484D01*
X524820Y1134648D01*
X524876Y1134934D01*
X525043Y1135186D01*
X539614Y1149757D01*
X539855Y1149920D01*
X540152Y1149980D01*
X569837Y1149980D01*
X588020Y1168163D01*
X588020Y1185837D01*
X587396Y1186461D01*
X587238Y1186692D01*
X587172Y1186988D01*
X587228Y1187286D01*
X587396Y1187539D01*
X610114Y1210257D01*
X610355Y1210420D01*
X610652Y1210480D01*
X627348Y1210480D01*
X627634Y1210424D01*
X627886Y1210257D01*
X646163Y1191980D01*
X660848Y1191980D01*
X661134Y1191924D01*
X661386Y1191757D01*
X672757Y1180386D01*
X672920Y1180145D01*
X672980Y1179848D01*
X672980Y1178163D01*
X677163Y1173980D01*
X737848Y1173980D01*
X738134Y1173924D01*
X738386Y1173757D01*
X774163Y1137980D01*
X791848Y1137980D01*
X792134Y1137924D01*
X792386Y1137757D01*
X802757Y1127386D01*
X802920Y1127145D01*
X802980Y1126848D01*
X802980Y1126163D01*
X804163Y1124980D01*
X844837Y1124980D01*
X853020Y1133163D01*
X853020Y1170848D01*
X853076Y1171134D01*
X853243Y1171386D01*
X870852Y1188995D01*
X871093Y1189158D01*
X871390Y1189218D01*
X873567Y1189218D01*
X875782Y1191433D01*
X875782Y1194567D01*
X873567Y1196782D01*
X870433Y1196782D01*
X868218Y1194567D01*
X868218Y1192390D01*
X868162Y1192104D01*
X867995Y1191852D01*
X848980Y1172837D01*
X848980Y1135152D01*
X848924Y1134866D01*
X848757Y1134614D01*
X843386Y1129243D01*
X843145Y1129080D01*
X842848Y1129020D01*
X807152Y1129020D01*
X806866Y1129076D01*
X806614Y1129243D01*
X793837Y1142020D01*
X776152Y1142020D01*
X775866Y1142076D01*
X775614Y1142243D01*
X739837Y1178020D01*
X679152Y1178020D01*
X678866Y1178076D01*
X678614Y1178243D01*
X677243Y1179614D01*
X677080Y1179855D01*
X677020Y1180152D01*
X677020Y1181837D01*
X662837Y1196020D01*
X648152Y1196020D01*
X647866Y1196076D01*
X647614Y1196243D01*
X629337Y1214520D01*
X608663Y1214520D01*
X581980Y1187837D01*
X581980Y1186163D01*
X583757Y1184386D01*
X583920Y1184145D01*
X583980Y1183848D01*
X583980Y1170152D01*
X583924Y1169866D01*
X583757Y1169614D01*
X568386Y1154243D01*
X568145Y1154080D01*
X567848Y1154020D01*
X538163Y1154020D01*
X520780Y1136637D01*
X520780Y1130484D01*
X520724Y1130198D01*
X520557Y1129945D01*
X519768Y1129156D01*
X519768Y1126644D01*
X521544Y1124868D01*
G37*
G36*
X707537Y1147468D02*
X710463Y1147468D01*
X712532Y1149537D01*
X712532Y1152463D01*
X710463Y1154532D01*
X707537Y1154532D01*
X706248Y1153243D01*
X706007Y1153080D01*
X705709Y1153020D01*
X654152Y1153020D01*
X653866Y1153076D01*
X653614Y1153243D01*
X613755Y1193102D01*
X613592Y1193343D01*
X613532Y1193640D01*
X613532Y1195463D01*
X611463Y1197532D01*
X608537Y1197532D01*
X606468Y1195463D01*
X606468Y1192537D01*
X608537Y1190468D01*
X610360Y1190468D01*
X610646Y1190412D01*
X610898Y1190245D01*
X652163Y1148980D01*
X705709Y1148980D01*
X705995Y1148924D01*
X706248Y1148757D01*
X707537Y1147468D01*
G37*
G36*
X832537Y1131468D02*
X835463Y1131468D01*
X837532Y1133537D01*
X837532Y1136463D01*
X835463Y1138532D01*
X832537Y1138532D01*
X831248Y1137243D01*
X831007Y1137080D01*
X830709Y1137020D01*
X821152Y1137020D01*
X820866Y1137076D01*
X820614Y1137243D01*
X810243Y1147614D01*
X810080Y1147855D01*
X810020Y1148152D01*
X810020Y1177709D01*
X810076Y1177995D01*
X810243Y1178248D01*
X811532Y1179537D01*
X811532Y1182463D01*
X809463Y1184532D01*
X806537Y1184532D01*
X804468Y1182463D01*
X804468Y1179537D01*
X805757Y1178248D01*
X805920Y1178007D01*
X805980Y1177709D01*
X805980Y1146163D01*
X819163Y1132980D01*
X830709Y1132980D01*
X830995Y1132924D01*
X831248Y1132757D01*
X832537Y1131468D01*
G37*
G36*
X796482Y1088792D02*
X808202Y1088792D01*
X808946Y1089536D01*
X808946Y1101256D01*
X808202Y1102000D01*
X799757Y1102000D01*
X799494Y1102047D01*
X799236Y1102206D01*
X799060Y1102454D01*
X798995Y1102750D01*
X799051Y1103048D01*
X799218Y1103301D01*
X809924Y1114007D01*
X810166Y1114170D01*
X810463Y1114230D01*
X852147Y1114230D01*
X863770Y1125853D01*
X863770Y1140106D01*
X863826Y1140392D01*
X863993Y1140645D01*
X864782Y1141433D01*
X864782Y1144567D01*
X862567Y1146782D01*
X859433Y1146782D01*
X857218Y1144567D01*
X857218Y1141433D01*
X858007Y1140645D01*
X858170Y1140403D01*
X858230Y1140106D01*
X858230Y1128463D01*
X858174Y1128177D01*
X858007Y1127924D01*
X850076Y1119993D01*
X849834Y1119830D01*
X849537Y1119770D01*
X807853Y1119770D01*
X794076Y1105993D01*
X793834Y1105830D01*
X793537Y1105770D01*
X767463Y1105770D01*
X767177Y1105826D01*
X766924Y1105993D01*
X763755Y1109162D01*
X763592Y1109404D01*
X763532Y1109701D01*
X763532Y1110463D01*
X761463Y1112532D01*
X758537Y1112532D01*
X757998Y1111993D01*
X757757Y1111830D01*
X757459Y1111770D01*
X749463Y1111770D01*
X749177Y1111826D01*
X748924Y1111993D01*
X725147Y1135770D01*
X688853Y1135770D01*
X684833Y1131750D01*
X684613Y1131597D01*
X684318Y1131527D01*
X684019Y1131578D01*
X683764Y1131742D01*
X683592Y1131992D01*
X683532Y1132289D01*
X683532Y1135181D01*
X681463Y1137250D01*
X679640Y1137250D01*
X679354Y1137306D01*
X679102Y1137473D01*
X669555Y1147020D01*
X651152Y1147020D01*
X650866Y1147076D01*
X650614Y1147243D01*
X620837Y1177020D01*
X615291Y1177020D01*
X615005Y1177076D01*
X614752Y1177243D01*
X613463Y1178532D01*
X610537Y1178532D01*
X608468Y1176463D01*
X608468Y1173537D01*
X610537Y1171468D01*
X613463Y1171468D01*
X614752Y1172757D01*
X614993Y1172920D01*
X615291Y1172980D01*
X618848Y1172980D01*
X619134Y1172924D01*
X619386Y1172757D01*
X649163Y1142980D01*
X667566Y1142980D01*
X667852Y1142924D01*
X668104Y1142757D01*
X676245Y1134616D01*
X676408Y1134375D01*
X676468Y1134078D01*
X676468Y1132255D01*
X678537Y1130186D01*
X681429Y1130186D01*
X681692Y1130139D01*
X681950Y1129980D01*
X682126Y1129732D01*
X682191Y1129436D01*
X682135Y1129138D01*
X681968Y1128885D01*
X667838Y1114755D01*
X667596Y1114592D01*
X667299Y1114532D01*
X666537Y1114532D01*
X664468Y1112463D01*
X664468Y1109701D01*
X664412Y1109415D01*
X664245Y1109162D01*
X659076Y1103993D01*
X658834Y1103830D01*
X658537Y1103770D01*
X640463Y1103770D01*
X640177Y1103826D01*
X639924Y1103993D01*
X625147Y1118770D01*
X580853Y1118770D01*
X570088Y1108005D01*
X569846Y1107842D01*
X569549Y1107782D01*
X568433Y1107782D01*
X566218Y1105567D01*
X566218Y1102433D01*
X568433Y1100218D01*
X571567Y1100218D01*
X573782Y1102433D01*
X573782Y1103549D01*
X573838Y1103835D01*
X574005Y1104088D01*
X582924Y1113007D01*
X583166Y1113170D01*
X583463Y1113230D01*
X622537Y1113230D01*
X622823Y1113174D01*
X623076Y1113007D01*
X637853Y1098230D01*
X661147Y1098230D01*
X670770Y1107853D01*
X670770Y1108459D01*
X670826Y1108745D01*
X670993Y1108998D01*
X671532Y1109537D01*
X671532Y1110299D01*
X671588Y1110585D01*
X671755Y1110838D01*
X690924Y1130007D01*
X691166Y1130170D01*
X691463Y1130230D01*
X722537Y1130230D01*
X722823Y1130174D01*
X723076Y1130007D01*
X746853Y1106230D01*
X757459Y1106230D01*
X757745Y1106174D01*
X757998Y1106007D01*
X758537Y1105468D01*
X759299Y1105468D01*
X759585Y1105412D01*
X759838Y1105245D01*
X764853Y1100230D01*
X794976Y1100230D01*
X795251Y1100179D01*
X795506Y1100015D01*
X795678Y1099765D01*
X795738Y1099468D01*
X795738Y1089536D01*
X796482Y1088792D01*
G37*
G36*
X724018Y1089192D02*
X735738Y1089192D01*
X736482Y1089936D01*
X736482Y1101656D01*
X735738Y1102400D01*
X724018Y1102400D01*
X723274Y1101656D01*
X723274Y1089936D01*
X724018Y1089192D01*
G37*
G36*
X687062Y1089192D02*
X698782Y1089192D01*
X699526Y1089936D01*
X699526Y1101656D01*
X698782Y1102400D01*
X687062Y1102400D01*
X686318Y1101656D01*
X686318Y1089936D01*
X687062Y1089192D01*
G37*
G36*
X833438Y1088792D02*
X845158Y1088792D01*
X845902Y1089536D01*
X845902Y1101256D01*
X845158Y1102000D01*
X833438Y1102000D01*
X832694Y1101256D01*
X832694Y1089536D01*
X833438Y1088792D01*
G37*
%LPD*%
G36*
X682251Y1372797D02*
X683430Y1372930D01*
X684609Y1372797D01*
X685730Y1372405D01*
X686735Y1371774D01*
X687574Y1370935D01*
X688205Y1369930D01*
X688597Y1368809D01*
X688730Y1367633D01*
X688730Y1356627D01*
X688597Y1355451D01*
X688205Y1354330D01*
X687574Y1353325D01*
X686735Y1352486D01*
X685730Y1351855D01*
X684609Y1351463D01*
X683430Y1351330D01*
X682251Y1351463D01*
X681130Y1351855D01*
X680125Y1352486D01*
X679286Y1353325D01*
X678655Y1354330D01*
X678263Y1355451D01*
X678130Y1356627D01*
X678130Y1367633D01*
X678263Y1368809D01*
X678655Y1369930D01*
X679286Y1370935D01*
X680125Y1371774D01*
X681130Y1372405D01*
X682251Y1372797D01*
G37*
G36*
X682251Y1372797D02*
X683430Y1372930D01*
X684609Y1372797D01*
X685730Y1372405D01*
X686735Y1371774D01*
X687574Y1370935D01*
X688205Y1369930D01*
X688597Y1368809D01*
X688730Y1367633D01*
X688730Y1356627D01*
X688597Y1355451D01*
X688205Y1354330D01*
X687574Y1353325D01*
X686735Y1352486D01*
X685730Y1351855D01*
X684609Y1351463D01*
X683430Y1351330D01*
X682251Y1351463D01*
X681130Y1351855D01*
X680125Y1352486D01*
X679286Y1353325D01*
X678655Y1354330D01*
X678263Y1355451D01*
X678130Y1356627D01*
X678130Y1367633D01*
X678263Y1368809D01*
X678655Y1369930D01*
X679286Y1370935D01*
X680125Y1371774D01*
X681130Y1372405D01*
X682251Y1372797D01*
G37*
G36*
X768651Y1372797D02*
X769830Y1372930D01*
X771009Y1372797D01*
X772130Y1372405D01*
X773135Y1371774D01*
X773974Y1370935D01*
X774605Y1369930D01*
X774997Y1368809D01*
X775130Y1367633D01*
X775130Y1356627D01*
X774997Y1355451D01*
X774605Y1354330D01*
X773974Y1353325D01*
X773135Y1352486D01*
X772130Y1351855D01*
X771009Y1351463D01*
X769830Y1351330D01*
X768651Y1351463D01*
X767530Y1351855D01*
X766525Y1352486D01*
X765686Y1353325D01*
X765055Y1354330D01*
X764663Y1355451D01*
X764530Y1356627D01*
X764530Y1367633D01*
X764663Y1368809D01*
X765055Y1369930D01*
X765686Y1370935D01*
X766525Y1371774D01*
X767530Y1372405D01*
X768651Y1372797D01*
G37*
G36*
X768651Y1372797D02*
X769830Y1372930D01*
X771009Y1372797D01*
X772130Y1372405D01*
X773135Y1371774D01*
X773974Y1370935D01*
X774605Y1369930D01*
X774997Y1368809D01*
X775130Y1367633D01*
X775130Y1356627D01*
X774997Y1355451D01*
X774605Y1354330D01*
X773974Y1353325D01*
X773135Y1352486D01*
X772130Y1351855D01*
X771009Y1351463D01*
X769830Y1351330D01*
X768651Y1351463D01*
X767530Y1351855D01*
X766525Y1352486D01*
X765686Y1353325D01*
X765055Y1354330D01*
X764663Y1355451D01*
X764530Y1356627D01*
X764530Y1367633D01*
X764663Y1368809D01*
X765055Y1369930D01*
X765686Y1370935D01*
X766525Y1371774D01*
X767530Y1372405D01*
X768651Y1372797D01*
G37*
G36*
X682251Y1412797D02*
X683430Y1412930D01*
X684609Y1412797D01*
X685730Y1412405D01*
X686735Y1411774D01*
X687574Y1410935D01*
X688205Y1409930D01*
X688597Y1408809D01*
X688730Y1407633D01*
X688730Y1399627D01*
X688597Y1398451D01*
X688205Y1397330D01*
X687574Y1396325D01*
X686735Y1395486D01*
X685730Y1394855D01*
X684609Y1394463D01*
X683430Y1394330D01*
X682251Y1394463D01*
X681130Y1394855D01*
X680125Y1395486D01*
X679286Y1396325D01*
X678655Y1397330D01*
X678263Y1398451D01*
X678130Y1399627D01*
X678130Y1407633D01*
X678263Y1408809D01*
X678655Y1409930D01*
X679286Y1410935D01*
X680125Y1411774D01*
X681130Y1412405D01*
X682251Y1412797D01*
G37*
G36*
X682251Y1412797D02*
X683430Y1412930D01*
X684609Y1412797D01*
X685730Y1412405D01*
X686735Y1411774D01*
X687574Y1410935D01*
X688205Y1409930D01*
X688597Y1408809D01*
X688730Y1407633D01*
X688730Y1399627D01*
X688597Y1398451D01*
X688205Y1397330D01*
X687574Y1396325D01*
X686735Y1395486D01*
X685730Y1394855D01*
X684609Y1394463D01*
X683430Y1394330D01*
X682251Y1394463D01*
X681130Y1394855D01*
X680125Y1395486D01*
X679286Y1396325D01*
X678655Y1397330D01*
X678263Y1398451D01*
X678130Y1399627D01*
X678130Y1407633D01*
X678263Y1408809D01*
X678655Y1409930D01*
X679286Y1410935D01*
X680125Y1411774D01*
X681130Y1412405D01*
X682251Y1412797D01*
G37*
G36*
X768651Y1412797D02*
X769830Y1412930D01*
X771009Y1412797D01*
X772130Y1412405D01*
X773135Y1411774D01*
X773974Y1410935D01*
X774605Y1409930D01*
X774997Y1408809D01*
X775130Y1407633D01*
X775130Y1399627D01*
X774997Y1398451D01*
X774605Y1397330D01*
X773974Y1396325D01*
X773135Y1395486D01*
X772130Y1394855D01*
X771009Y1394463D01*
X769830Y1394330D01*
X768651Y1394463D01*
X767530Y1394855D01*
X766525Y1395486D01*
X765686Y1396325D01*
X765055Y1397330D01*
X764663Y1398451D01*
X764530Y1399627D01*
X764530Y1407633D01*
X764663Y1408809D01*
X765055Y1409930D01*
X765686Y1410935D01*
X766525Y1411774D01*
X767530Y1412405D01*
X768651Y1412797D01*
G37*
G36*
X768651Y1412797D02*
X769830Y1412930D01*
X771009Y1412797D01*
X772130Y1412405D01*
X773135Y1411774D01*
X773974Y1410935D01*
X774605Y1409930D01*
X774997Y1408809D01*
X775130Y1407633D01*
X775130Y1399627D01*
X774997Y1398451D01*
X774605Y1397330D01*
X773974Y1396325D01*
X773135Y1395486D01*
X772130Y1394855D01*
X771009Y1394463D01*
X769830Y1394330D01*
X768651Y1394463D01*
X767530Y1394855D01*
X766525Y1395486D01*
X765686Y1396325D01*
X765055Y1397330D01*
X764663Y1398451D01*
X764530Y1399627D01*
X764530Y1407633D01*
X764663Y1408809D01*
X765055Y1409930D01*
X765686Y1410935D01*
X766525Y1411774D01*
X767530Y1412405D01*
X768651Y1412797D01*
G37*
D10*
X769830Y1403630D03*
X683430Y1403630D03*
X769830Y1362130D03*
X683430Y1362130D03*
D11*
X620258Y1094996D03*
X583302Y1094996D03*
X839298Y1095396D03*
X802342Y1095396D03*
X729878Y1095796D03*
X692922Y1095796D03*
D12*
X730600Y1247900D03*
X718600Y1247900D03*
X718600Y1259900D03*
X730600Y1259900D03*
X742600Y1259900D03*
X754600Y1259900D03*
X754600Y1247900D03*
X742600Y1247900D03*
X718600Y1235900D03*
X730600Y1235900D03*
X742600Y1235900D03*
X754600Y1235900D03*
X754600Y1223900D03*
X742600Y1223900D03*
X730600Y1223900D03*
X718600Y1223900D03*
D13*
X506000Y1386000D03*
D14*
X502000Y1382000D01*
X502000Y1367000D01*
X548000Y1328000D02*
X597000Y1328000D01*
X601000Y1332000D01*
X601000Y1354000D01*
X602000Y1355000D01*
D13*
X602000Y1355000D03*
D14*
X601000Y1328000D02*
X597000Y1328000D01*
X601000Y1328000D02*
X604000Y1325000D01*
D15*
X604000Y1325000D03*
X620000Y1307000D03*
D14*
X620000Y1305000D01*
X646000Y1279000D01*
X650000Y1279000D01*
D15*
X676000Y1253000D03*
D14*
X650000Y1279000D01*
X513000Y1356000D02*
X502000Y1367000D01*
X513000Y1356000D02*
X513000Y1348000D01*
X527000Y1334000D01*
X543000Y1334000D01*
X548000Y1329000D01*
X548000Y1328000D01*
D16*
X709100Y1231900D03*
D14*
X706100Y1231900D01*
X701000Y1237000D01*
X699000Y1237000D01*
X696000Y1240000D01*
X696000Y1252000D01*
X675000Y1273000D01*
X664000Y1273000D01*
X635000Y1302000D01*
X634000Y1302000D01*
X624000Y1312000D01*
X624000Y1317000D01*
X633500Y1326500D01*
X638500Y1326500D02*
X642000Y1330000D01*
X638500Y1326500D02*
X633500Y1326500D01*
X642000Y1330000D02*
X642000Y1381000D01*
X619000Y1404000D01*
X608000Y1404000D01*
X607000Y1405000D01*
X575000Y1405000D01*
X572000Y1408000D01*
D13*
X572000Y1408000D03*
D15*
X648000Y1255000D03*
D17*
X639000Y1264000D01*
X617000Y1264000D01*
X611000Y1270000D01*
X611000Y1287000D01*
D15*
X611000Y1287000D03*
X608000Y1298000D03*
D17*
X638000Y1335000D02*
X638000Y1369000D01*
X617000Y1390000D01*
X617000Y1394000D01*
D15*
X617000Y1394000D03*
D17*
X608000Y1314000D02*
X608000Y1298000D01*
X608000Y1314000D02*
X629000Y1335000D01*
X638000Y1335000D01*
D15*
X671000Y1209000D03*
D17*
X678000Y1209000D01*
X699000Y1188000D01*
D15*
X699000Y1188000D03*
D17*
X563000Y1363000D02*
X563000Y1369000D01*
D13*
X563000Y1363000D03*
D17*
X563000Y1369000D02*
X563000Y1370000D01*
D13*
X587528Y1394528D03*
D17*
X563000Y1370000D01*
D15*
X539000Y1369000D03*
D17*
X563000Y1369000D01*
D13*
X565000Y1402000D03*
D14*
X565000Y1390000D01*
X561000Y1386000D01*
D13*
X561000Y1386000D03*
D14*
X565000Y1402000D02*
X596000Y1402000D01*
X619000Y1379000D01*
X619000Y1369000D01*
X616000Y1366000D01*
X615000Y1366000D01*
D13*
X615000Y1366000D03*
D16*
X709100Y1241900D03*
D14*
X709100Y1274900D01*
X698000Y1286000D01*
X693000Y1291000D01*
X682000Y1291000D01*
X663000Y1310000D01*
X663000Y1321000D01*
X649500Y1334500D01*
X649500Y1384500D01*
X644000Y1390000D01*
X644000Y1401000D01*
D15*
X644000Y1401000D03*
X865000Y1207000D03*
D14*
X700000Y1288000D02*
X698000Y1286000D01*
X700000Y1288000D02*
X741000Y1288000D01*
X746000Y1293000D01*
X758000Y1293000D01*
X777000Y1274000D01*
X795000Y1274000D01*
X806000Y1263000D01*
D15*
X806000Y1263000D03*
X818000Y1234000D03*
D14*
X818000Y1227000D01*
X807000Y1216000D01*
X807000Y1202000D01*
X810000Y1199000D01*
X841000Y1199000D01*
X850000Y1208000D01*
X864000Y1208000D01*
X865000Y1207000D01*
D13*
X657000Y1338000D03*
D17*
X663000Y1332000D02*
X678000Y1332000D01*
X663000Y1332000D02*
X657000Y1338000D01*
X678000Y1332000D02*
X707000Y1303000D01*
X706500Y1302500D01*
D13*
X706500Y1302500D03*
D15*
X704100Y1269400D03*
D17*
X686500Y1287000D01*
X679000Y1287000D01*
D15*
X679000Y1287000D03*
X661000Y1247000D03*
D17*
X661000Y1239000D01*
X677000Y1223000D01*
D15*
X677000Y1223000D03*
D16*
X764100Y1209400D03*
D17*
X739600Y1209400D01*
X739000Y1210000D01*
X739000Y1209500D01*
X739100Y1209400D01*
D16*
X739100Y1209400D03*
D17*
X715600Y1209400D01*
D16*
X709100Y1221900D03*
D17*
X714000Y1217000D01*
X714000Y1211000D01*
X715600Y1209400D01*
D15*
X774000Y1290000D03*
D17*
X774000Y1298000D01*
X769000Y1303000D01*
D15*
X769000Y1303000D03*
D17*
X657000Y1338000D02*
X657000Y1358000D01*
D15*
X609000Y1334000D03*
D17*
X619000Y1344000D02*
X631000Y1344000D01*
X619000Y1344000D02*
X609000Y1334000D01*
X631000Y1344000D02*
X632000Y1343000D01*
D15*
X632000Y1343000D03*
X511000Y1367000D03*
D17*
X522000Y1356000D01*
X536000Y1356000D01*
X551000Y1341000D01*
X576000Y1341000D01*
X582000Y1335000D01*
X587000Y1335000D01*
X590000Y1338000D01*
D15*
X590000Y1338000D03*
X657000Y1358000D03*
X657000Y1374000D03*
D17*
X657000Y1358000D01*
D13*
X525000Y1376000D03*
D14*
X525000Y1366600D01*
D13*
X525000Y1366600D03*
X519000Y1367000D03*
D14*
X509000Y1377000D01*
D13*
X509000Y1377000D03*
D16*
X709100Y1236900D03*
D14*
X707100Y1236900D01*
X700000Y1244000D01*
X700000Y1257000D01*
X681000Y1276000D01*
X678000Y1276000D01*
X653000Y1301000D01*
X653000Y1310000D01*
X643000Y1320000D01*
D15*
X643000Y1320000D03*
X659000Y1288000D03*
D14*
X657000Y1290000D02*
X657000Y1291000D01*
X657000Y1290000D02*
X659000Y1288000D01*
X657000Y1291000D02*
X634000Y1314000D01*
X634000Y1317000D01*
D15*
X634000Y1317000D03*
D13*
X837000Y1237000D03*
X821556Y1217444D03*
D14*
X832000Y1227889D02*
X832000Y1235000D01*
X832000Y1227889D02*
X821556Y1217444D01*
D15*
X893000Y1240000D03*
X909000Y1296000D03*
D14*
X915000Y1262000D02*
X893000Y1240000D01*
X919000Y1281000D02*
X909000Y1291000D01*
X909000Y1296000D01*
X915000Y1262000D02*
X917000Y1262000D01*
X919000Y1264000D01*
X919000Y1281000D01*
X837000Y1237000D02*
X832000Y1235000D01*
D13*
X876000Y1284000D03*
D14*
X880370Y1284000D01*
X882595Y1286225D01*
X901775Y1286225D01*
X910000Y1278000D01*
D13*
X910000Y1278000D03*
X862000Y1257000D03*
D14*
X861335Y1248821D02*
X838514Y1226000D01*
X837000Y1226000D01*
D13*
X837000Y1226000D03*
D14*
X861335Y1248821D02*
X862000Y1257000D01*
D15*
X869760Y1264860D03*
D14*
X853860Y1264860D01*
X828000Y1239000D01*
X804000Y1239000D01*
X781000Y1216000D01*
X738000Y1216000D01*
X736600Y1214600D01*
X736600Y1214400D01*
D16*
X736600Y1214400D03*
D15*
X684400Y1252800D03*
D14*
X678200Y1246600D01*
X676400Y1246600D01*
D15*
X676400Y1246600D03*
D13*
X700000Y1210000D03*
D14*
X701000Y1210000D02*
X707000Y1204000D01*
X701000Y1210000D02*
X700000Y1210000D01*
X707000Y1204000D02*
X709000Y1204000D01*
X713000Y1200000D01*
X713000Y1190000D01*
D13*
X713000Y1190000D03*
D15*
X782000Y1300000D03*
D14*
X789000Y1307000D01*
X810000Y1307000D01*
D15*
X810000Y1307000D03*
D16*
X769100Y1259400D03*
D14*
X749500Y1279000D01*
X747000Y1279000D01*
D13*
X747000Y1279000D03*
D15*
X764000Y1094000D03*
D13*
X644000Y1108000D03*
X667000Y1135000D03*
D14*
X667000Y1131000D01*
X644000Y1108000D01*
D16*
X721600Y1269400D03*
D14*
X721600Y1262900D01*
X718600Y1259900D01*
D13*
X805000Y1227000D03*
D14*
X805000Y1224000D01*
X796000Y1215000D01*
D13*
X796000Y1215000D03*
D15*
X805000Y1249000D03*
D14*
X819000Y1263000D01*
X819000Y1318000D01*
X854000Y1325000D02*
X867000Y1338000D01*
X854000Y1325000D02*
X826000Y1325000D01*
X819000Y1318000D01*
D15*
X867000Y1338000D03*
D13*
X606000Y1292000D03*
D14*
X625000Y1292000D01*
X714000Y1203000D02*
X770000Y1203000D01*
X780000Y1193000D01*
D13*
X780000Y1193000D03*
X808000Y1181000D03*
D14*
X808000Y1147000D01*
X820000Y1135000D02*
X834000Y1135000D01*
X820000Y1135000D02*
X808000Y1147000D01*
D13*
X834000Y1135000D03*
D14*
X714000Y1203000D02*
X699000Y1218000D01*
X699000Y1226000D01*
X689000Y1236000D01*
X675000Y1236000D01*
X670000Y1241000D01*
X670000Y1246000D01*
X643000Y1273000D01*
X639000Y1273000D01*
X629000Y1283000D01*
X629000Y1288000D01*
X625000Y1292000D01*
D13*
X756000Y1174000D03*
D14*
X748000Y1182000D01*
X696000Y1182000D01*
X624000Y1257000D02*
X621000Y1257000D01*
D13*
X621000Y1257000D03*
D14*
X624000Y1257000D02*
X645000Y1236000D01*
X645000Y1219000D01*
X664000Y1200000D01*
X678000Y1200000D01*
X696000Y1182000D01*
D13*
X610000Y1194000D03*
D14*
X653000Y1151000D01*
X709000Y1151000D01*
D13*
X709000Y1151000D03*
X612000Y1175000D03*
D14*
X620000Y1175000D01*
X650000Y1145000D01*
D13*
X680000Y1133718D03*
D14*
X668718Y1145000D01*
X650000Y1145000D01*
D16*
X522800Y1127900D03*
D14*
X522800Y1135800D01*
X539000Y1152000D01*
X569000Y1152000D01*
X586000Y1169000D01*
X586000Y1185000D01*
X584000Y1187000D01*
X609500Y1212500D01*
X628500Y1212500D01*
X647000Y1194000D01*
D15*
X872000Y1193000D03*
D14*
X662000Y1194000D02*
X647000Y1194000D01*
X662000Y1194000D02*
X675000Y1181000D01*
X675000Y1179000D02*
X678000Y1176000D01*
X675000Y1179000D02*
X675000Y1181000D01*
X678000Y1176000D02*
X739000Y1176000D01*
X775000Y1140000D01*
X793000Y1140000D01*
X805000Y1128000D01*
X805000Y1127000D01*
X844000Y1127000D01*
X851000Y1134000D01*
X851000Y1172000D01*
X872000Y1193000D01*
D13*
X760000Y1109000D03*
D17*
X748000Y1109000D01*
X724000Y1133000D01*
X690000Y1133000D01*
X668000Y1111000D01*
D13*
X668000Y1111000D03*
D15*
X861000Y1143000D03*
D17*
X795000Y1103000D02*
X766000Y1103000D01*
X760000Y1109000D01*
X795000Y1103000D02*
X809000Y1117000D01*
X851000Y1117000D01*
X861000Y1127000D02*
X861000Y1143000D01*
X861000Y1127000D02*
X851000Y1117000D01*
D15*
X570000Y1104000D03*
D17*
X582000Y1116000D01*
X624000Y1116000D01*
X639000Y1101000D01*
X660000Y1101000D01*
X668000Y1109000D01*
X668000Y1111000D01*
D13*
X875000Y1338000D03*
X883000Y1338000D03*
X890000Y1338000D03*
X897000Y1338000D03*
X905000Y1338000D03*
X913000Y1338000D03*
X921000Y1338000D03*
X929000Y1338000D03*
X936000Y1338000D03*
X859000Y1338000D03*
X851000Y1338000D03*
X843000Y1338000D03*
X835000Y1338000D03*
X827000Y1338000D03*
X819000Y1338000D03*
X812000Y1338000D03*
X812000Y1345000D03*
X812000Y1352000D03*
X812000Y1360000D03*
X812000Y1367000D03*
X812000Y1375000D03*
X812000Y1381000D03*
X812000Y1395000D03*
X812000Y1402000D03*
X812000Y1409000D03*
X812000Y1388000D03*
M02*
