G04 EAGLE Gerber RS-274X export*
G75*
%MOMM*%
%FSLAX34Y34*%
%LPD*%
%IN*%
%IPPOS*%
%AMOC8*
5,1,8,0,0,1.08239X$1,22.5*%
G01*
G04 Define Apertures*
%ADD10C,0.254000*%
D10*
X481300Y1136300D02*
X481566Y1130199D01*
X482363Y1124145D01*
X483685Y1118183D01*
X485522Y1112359D01*
X487858Y1106717D01*
X490678Y1101300D01*
X493959Y1096150D01*
X497677Y1091305D01*
X501803Y1086803D01*
X506305Y1082677D01*
X511150Y1078959D01*
X516300Y1075678D01*
X521717Y1072858D01*
X527359Y1070522D01*
X533183Y1068685D01*
X539145Y1067363D01*
X545199Y1066566D01*
X551300Y1066300D01*
X577300Y1066300D01*
X577300Y1084300D01*
X625300Y1084300D01*
X625300Y1066300D01*
X687300Y1066300D01*
X687300Y1084300D01*
X735300Y1084300D01*
X735300Y1066300D01*
X797300Y1066300D01*
X797300Y1084300D01*
X845300Y1084300D01*
X845300Y1066300D01*
X871300Y1066300D01*
X877401Y1066566D01*
X883455Y1067363D01*
X889417Y1068685D01*
X895241Y1070522D01*
X900883Y1072858D01*
X906300Y1075678D01*
X911450Y1078959D01*
X916295Y1082677D01*
X920797Y1086803D01*
X924923Y1091305D01*
X928641Y1096150D01*
X931922Y1101300D01*
X934742Y1106717D01*
X937078Y1112359D01*
X938915Y1118183D01*
X940237Y1124145D01*
X941034Y1130199D01*
X941300Y1136300D01*
X941300Y1346300D01*
X941034Y1352401D01*
X940237Y1358455D01*
X938915Y1364417D01*
X937078Y1370241D01*
X936775Y1371059D01*
X896524Y1371000D01*
X896524Y1411597D01*
X890737Y1413547D01*
X884802Y1414986D01*
X878764Y1415901D01*
X872670Y1416287D01*
X871300Y1416300D01*
X551300Y1416300D01*
X545199Y1416034D01*
X539145Y1415237D01*
X533183Y1413915D01*
X527359Y1412078D01*
X521717Y1409742D01*
X516300Y1406922D01*
X511150Y1403641D01*
X506305Y1399923D01*
X501803Y1395797D01*
X497677Y1391295D01*
X493959Y1386450D01*
X490678Y1381300D01*
X487858Y1375883D01*
X485522Y1370241D01*
X483685Y1364417D01*
X482363Y1358455D01*
X481566Y1352401D01*
X481300Y1346300D01*
X481300Y1310300D01*
X551300Y1310300D01*
X551300Y1172300D01*
X481300Y1172300D01*
X481300Y1136300D01*
X680180Y1356630D02*
X680192Y1356347D01*
X680229Y1356066D01*
X680291Y1355789D01*
X680376Y1355518D01*
X680485Y1355257D01*
X680615Y1355005D01*
X680768Y1354766D01*
X680940Y1354541D01*
X681132Y1354332D01*
X681341Y1354140D01*
X681566Y1353968D01*
X681805Y1353815D01*
X682057Y1353685D01*
X682318Y1353576D01*
X682589Y1353491D01*
X682866Y1353429D01*
X683147Y1353392D01*
X683430Y1353380D01*
X683713Y1353392D01*
X683994Y1353429D01*
X684271Y1353491D01*
X684542Y1353576D01*
X684804Y1353685D01*
X685055Y1353815D01*
X685294Y1353968D01*
X685519Y1354140D01*
X685728Y1354332D01*
X685920Y1354541D01*
X686092Y1354766D01*
X686245Y1355005D01*
X686376Y1355257D01*
X686484Y1355518D01*
X686569Y1355789D01*
X686631Y1356066D01*
X686668Y1356347D01*
X686680Y1356630D01*
X686680Y1367630D01*
X686668Y1367913D01*
X686631Y1368194D01*
X686569Y1368471D01*
X686484Y1368742D01*
X686376Y1369004D01*
X686245Y1369255D01*
X686092Y1369494D01*
X685920Y1369719D01*
X685728Y1369928D01*
X685519Y1370120D01*
X685294Y1370292D01*
X685055Y1370445D01*
X684804Y1370576D01*
X684542Y1370684D01*
X684271Y1370769D01*
X683994Y1370831D01*
X683713Y1370868D01*
X683430Y1370880D01*
X683147Y1370868D01*
X682866Y1370831D01*
X682589Y1370769D01*
X682318Y1370684D01*
X682057Y1370576D01*
X681805Y1370445D01*
X681566Y1370292D01*
X681341Y1370120D01*
X681132Y1369928D01*
X680940Y1369719D01*
X680768Y1369494D01*
X680615Y1369255D01*
X680485Y1369004D01*
X680376Y1368742D01*
X680291Y1368471D01*
X680229Y1368194D01*
X680192Y1367913D01*
X680180Y1367630D01*
X680180Y1356630D01*
X766580Y1356630D02*
X766592Y1356347D01*
X766629Y1356066D01*
X766691Y1355789D01*
X766776Y1355518D01*
X766885Y1355257D01*
X767015Y1355005D01*
X767168Y1354766D01*
X767340Y1354541D01*
X767532Y1354332D01*
X767741Y1354140D01*
X767966Y1353968D01*
X768205Y1353815D01*
X768457Y1353685D01*
X768718Y1353576D01*
X768989Y1353491D01*
X769266Y1353429D01*
X769547Y1353392D01*
X769830Y1353380D01*
X770113Y1353392D01*
X770394Y1353429D01*
X770671Y1353491D01*
X770942Y1353576D01*
X771204Y1353685D01*
X771455Y1353815D01*
X771694Y1353968D01*
X771919Y1354140D01*
X772128Y1354332D01*
X772320Y1354541D01*
X772492Y1354766D01*
X772645Y1355005D01*
X772776Y1355257D01*
X772884Y1355518D01*
X772969Y1355789D01*
X773031Y1356066D01*
X773068Y1356347D01*
X773080Y1356630D01*
X773080Y1367630D01*
X773068Y1367913D01*
X773031Y1368194D01*
X772969Y1368471D01*
X772884Y1368742D01*
X772776Y1369004D01*
X772645Y1369255D01*
X772492Y1369494D01*
X772320Y1369719D01*
X772128Y1369928D01*
X771919Y1370120D01*
X771694Y1370292D01*
X771455Y1370445D01*
X771204Y1370576D01*
X770942Y1370684D01*
X770671Y1370769D01*
X770394Y1370831D01*
X770113Y1370868D01*
X769830Y1370880D01*
X769547Y1370868D01*
X769266Y1370831D01*
X768989Y1370769D01*
X768718Y1370684D01*
X768457Y1370576D01*
X768205Y1370445D01*
X767966Y1370292D01*
X767741Y1370120D01*
X767532Y1369928D01*
X767340Y1369719D01*
X767168Y1369494D01*
X767015Y1369255D01*
X766885Y1369004D01*
X766776Y1368742D01*
X766691Y1368471D01*
X766629Y1368194D01*
X766592Y1367913D01*
X766580Y1367630D01*
X766580Y1356630D01*
X680180Y1399630D02*
X680192Y1399347D01*
X680229Y1399066D01*
X680291Y1398789D01*
X680376Y1398518D01*
X680485Y1398257D01*
X680615Y1398005D01*
X680768Y1397766D01*
X680940Y1397541D01*
X681132Y1397332D01*
X681341Y1397140D01*
X681566Y1396968D01*
X681805Y1396815D01*
X682057Y1396685D01*
X682318Y1396576D01*
X682589Y1396491D01*
X682866Y1396429D01*
X683147Y1396392D01*
X683430Y1396380D01*
X683713Y1396392D01*
X683994Y1396429D01*
X684271Y1396491D01*
X684542Y1396576D01*
X684804Y1396685D01*
X685055Y1396815D01*
X685294Y1396968D01*
X685519Y1397140D01*
X685728Y1397332D01*
X685920Y1397541D01*
X686092Y1397766D01*
X686245Y1398005D01*
X686376Y1398257D01*
X686484Y1398518D01*
X686569Y1398789D01*
X686631Y1399066D01*
X686668Y1399347D01*
X686680Y1399630D01*
X686680Y1407630D01*
X686668Y1407913D01*
X686631Y1408194D01*
X686569Y1408471D01*
X686484Y1408742D01*
X686376Y1409004D01*
X686245Y1409255D01*
X686092Y1409494D01*
X685920Y1409719D01*
X685728Y1409928D01*
X685519Y1410120D01*
X685294Y1410292D01*
X685055Y1410445D01*
X684804Y1410576D01*
X684542Y1410684D01*
X684271Y1410769D01*
X683994Y1410831D01*
X683713Y1410868D01*
X683430Y1410880D01*
X683147Y1410868D01*
X682866Y1410831D01*
X682589Y1410769D01*
X682318Y1410684D01*
X682057Y1410576D01*
X681805Y1410445D01*
X681566Y1410292D01*
X681341Y1410120D01*
X681132Y1409928D01*
X680940Y1409719D01*
X680768Y1409494D01*
X680615Y1409255D01*
X680485Y1409004D01*
X680376Y1408742D01*
X680291Y1408471D01*
X680229Y1408194D01*
X680192Y1407913D01*
X680180Y1407630D01*
X680180Y1399630D01*
X766580Y1399630D02*
X766592Y1399347D01*
X766629Y1399066D01*
X766691Y1398789D01*
X766776Y1398518D01*
X766885Y1398257D01*
X767015Y1398005D01*
X767168Y1397766D01*
X767340Y1397541D01*
X767532Y1397332D01*
X767741Y1397140D01*
X767966Y1396968D01*
X768205Y1396815D01*
X768457Y1396685D01*
X768718Y1396576D01*
X768989Y1396491D01*
X769266Y1396429D01*
X769547Y1396392D01*
X769830Y1396380D01*
X770113Y1396392D01*
X770394Y1396429D01*
X770671Y1396491D01*
X770942Y1396576D01*
X771204Y1396685D01*
X771455Y1396815D01*
X771694Y1396968D01*
X771919Y1397140D01*
X772128Y1397332D01*
X772320Y1397541D01*
X772492Y1397766D01*
X772645Y1398005D01*
X772776Y1398257D01*
X772884Y1398518D01*
X772969Y1398789D01*
X773031Y1399066D01*
X773068Y1399347D01*
X773080Y1399630D01*
X773080Y1407630D01*
X773068Y1407913D01*
X773031Y1408194D01*
X772969Y1408471D01*
X772884Y1408742D01*
X772776Y1409004D01*
X772645Y1409255D01*
X772492Y1409494D01*
X772320Y1409719D01*
X772128Y1409928D01*
X771919Y1410120D01*
X771694Y1410292D01*
X771455Y1410445D01*
X771204Y1410576D01*
X770942Y1410684D01*
X770671Y1410769D01*
X770394Y1410831D01*
X770113Y1410868D01*
X769830Y1410880D01*
X769547Y1410868D01*
X769266Y1410831D01*
X768989Y1410769D01*
X768718Y1410684D01*
X768457Y1410576D01*
X768205Y1410445D01*
X767966Y1410292D01*
X767741Y1410120D01*
X767532Y1409928D01*
X767340Y1409719D01*
X767168Y1409494D01*
X767015Y1409255D01*
X766885Y1409004D01*
X766776Y1408742D01*
X766691Y1408471D01*
X766629Y1408194D01*
X766592Y1407913D01*
X766580Y1407630D01*
X766580Y1399630D01*
M02*
